<?xml version="1.0" encoding="utf-8"?>
<!-- Generator: Adobe Illustrator 23.1.0, SVG Export Plug-In . SVG Version: 6.00 Build 0)  -->
<svg version="1.1" id="Layer_1" xmlns="http://www.w3.org/2000/svg" xmlns:xlink="http://www.w3.org/1999/xlink" x="0px" y="0px"
	 viewBox="0 0 1208 841.9" style="enable-background:new 0 0 1208 841.9;" xml:space="preserve">
<style type="text/css">
	.st0{fill:#1E1E1E;}
	.st1{fill:#4EC9AB;}
	.st2{fill:#52B9FE;}
	.st3{fill:none;stroke:#1E1E1E;stroke-miterlimit:10;}
	.st4{fill:#4EC9B0;}
	.st5{fill:#DCDCAA;}
	.st6{fill:#569CD6;}
	.st7{fill:#9CDCF0;}
	.st8{fill:#CE723B;}
</style>
<rect x="117" y="597.8" class="st0" width="536" height="238.5"/>
<g>
	<g>
		<path d="M309.7,241.1c-0.1-0.4-0.3-0.9-0.4-1.3c0.3,0.1,0.6,0.2,0.9,0.2c0.6,0,1.1-0.2,1.5-0.6l0.8-0.1l-0.3-1.8
			c-0.4-3.6-1-7.5-2.1-11.1c-1.3-4.2-3.4-7.8-6.1-10.5c-3-3-6.7-5.1-10.3-7.2l-0.6-0.4c-2.2-1.3-4.2-2.4-6.1-3.4l-0.8-0.4
			c-1.7-0.9-3.4-1.8-5.3-2.6c-2-0.8-4.2-1.2-6.5-1.2c-0.5,0-1,0-1.5,0.1c-2.6,0.2-5.1,0.8-7.9,1.5l-0.2,0.1
			c-0.9,0.4-1.5,1.3-1.3,2.3c0.2,1,1,1.7,2,1.7c0.2,0,0.3,0,0.5-0.1c2.5-0.6,5.5-1.4,8.4-1.4c1.4,0,2.7,0.2,3.8,0.5
			c1.7,0.5,3.4,1.4,5.1,2.3l0.4,0.2c1.9,1,3.9,2.1,5.9,3.2c2,1.2,3.9,2.2,5.6,3.3c1.4,0.9,3.2,2.1,4.8,3.4c2.6,2.3,4.6,5.2,5.8,8.7
			c0.4,1.1,0.7,2.2,1,3.5c-1-0.7-2.2-1.2-3.4-1.6c-0.2-0.1-0.4-0.1-0.7-0.1c-0.7,0-1.3,0.4-1.7,1c-0.4,0.6-0.4,1.4-0.1,2
			c1.7,3.2,3.2,6.5,4.3,9.9c1.4,4.1,2.2,7.5,2.4,10.5c0.3,3.1-0.1,6.4-1,9.7c-0.8,2.8-2.1,5.8-3.9,9.2c-0.6,1-1.1,2-1.7,3.1
			c0.3-4.4,0.2-8.8-0.2-13.2c-0.2-2.1-0.4-4.2-0.8-6.7c-0.1-1-1-1.7-2-1.7c-0.2,0-0.4,0-0.6,0.1c-0.5,0.1-0.9,0.4-1.2,0.9
			c-0.3,0.4-0.4,1-0.3,1.5c0.6,4,1,8,1.1,12c-2.3-3.2-4-7.2-5.5-12.5c-0.4-1.3-0.7-2.6-1-3.8l-0.2-0.8l0.2-1.7l-1.1,0.1
			c-0.1-0.1-0.2-0.1-0.3-0.2c-0.3-0.1-0.5-0.2-0.8-0.2c-1,0-1.9,0.8-2.1,1.8c-0.6,4.9-2.3,9.7-4.9,14.2c-2.6,4.5-6,8.6-10.2,12.1
			c-0.2,0.2-0.5,0.4-0.7,0.6c1-1.6,1.9-3.3,2.7-5.1c2-4.5,3.4-9.3,4.5-13.4c0.7-2.6,1.4-5.3,1.9-8c0.1-0.6,0-1.2-0.4-1.7
			c-0.4-0.5-1-0.8-1.6-0.8c-0.2,0-0.4,0-0.6,0.1l-1-0.5l-0.4,1.8c-1.2,2.2-2.1,4.5-2.9,6.8c-0.4,1.2-0.9,2.4-1.4,3.6
			c-1.2,2.8-2.9,5.4-5,7.6c-2.1,2.2-4.6,4.1-7.4,5.9c-3.1,1.8-6.3,3.3-9.4,4.5c-2.1,0.7-4,1.3-5.9,1.6c5.1-5.1,9.2-10.9,12-17.1
			c0.1-0.3,0.3-0.6,0.3-0.8c0.1-0.2,0.3-0.4,0.4-0.7c0.2-0.2,0.4-0.5,0.6-0.8c0,0,0-0.1,0.1-0.2c0-0.1,0-0.1,0-0.2
			c0.1-0.3,0.2-0.6,0.3-0.9l0.2-0.5c0.3-0.7,0.4-1.5,0.6-2.1l0.6-2.1l-0.9-0.2c0,0,0,0-0.1-0.1c-0.4-0.4-0.9-0.7-1.5-0.7
			c-0.2,0-0.5,0-0.7,0.1l-0.9-0.2l-0.3,1.5l-0.3,1c-0.5,1.5-1.1,3-1.7,4.5c-1.9,3.1-4.9,5.7-7.2,7.6c-1.3,1-2.4,1.9-3.7,2.6
			c-1.2,0.7-2.6,1.4-4.1,2.2c-2.6,1.2-5.3,2.3-7.9,3.3l-0.4,0.2c1.5-1.2,2.8-2.5,4.1-3.8c3.6-3.8,6.4-8.1,8.3-12.7
			c0.3-0.7,0.5-1.3,0.8-2c0.3-0.2,0.5-0.5,0.7-0.9c0.2-0.4,0.2-0.9,0.3-1.3l0-0.2c0.1-0.6,0.2-1.3,0.3-1.9c0.1-0.6,0.2-1.2,0.3-1.9
			l0.2-1.7l-0.8-0.1c-0.4-0.4-0.9-0.6-1.5-0.6c-0.3,0-0.6,0.1-0.9,0.2l-0.8-0.2l-0.3,1.8c-0.2,1.2-0.5,2.4-0.8,3.5
			c-1.2,3.1-3.4,6.2-6.5,9c-2,1.8-4.3,3.5-6.5,5.1c-2.3,1.7-4.6,3.1-6.9,4.3c-2.8,1.5-5.7,2.6-8.6,3.4c-0.1,0-0.2,0.1-0.2,0.1
			c-0.2,0-0.4-0.1-0.5-0.1c-0.6,0-1.2,0.3-1.6,0.7c-0.4,0.5-0.6,1-0.5,1.7c0,0.2,0.1,0.4,0.1,0.6c-0.2,0-0.5,0-0.7,0
			c-0.1,0-0.1,0-0.2,0c-2.9-4.5-5.5-9.2-6.7-14.3c-1-4.4-1.1-9-1.1-12.9c0.1-4.6,0.7-8.6,1.8-12c2.2-6.3,6.5-12.3,12.5-17.4
			c5.4-4.6,12.1-8.5,20.1-11.6c4.5-1.8,8.1-2.9,11.5-3.6c2.5-0.5,4.9-0.8,7.2-0.8c1.6,0,3.1,0.1,4.6,0.4c0.9,0.2,1.8,0.4,2.8,0.7
			c0.2,0.1,0.4,0.1,0.6,0.1c1,0,1.8-0.7,2-1.8c0.1-1-0.4-1.9-1.4-2.2c-2.6-0.9-5.5-1.3-8.5-1.3c-5,0-10.5,1.1-17.2,3.6
			c-8.6,3.1-15.9,7-21.9,11.6c-6.8,5.3-11.9,11.6-14.8,18.3c-1.7,3.8-2.7,8-3,12.4c-0.2,2.2-0.2,4.5-0.1,6.9c0.1,2.7,0.2,4.9,0.5,7
			c0.5,4.1,1.8,8.2,4,12.4c1,2,2.2,4,3.4,5.9c-0.5,0.4-0.9,0.8-1.3,1.3c-1.4,1.9-1.7,4.6-0.7,7.1c0.8,2,2.2,3.8,4.3,5.3
			c2.2,1.6,4.7,2.6,6.9,3.4c0.1,0,0.2,0,0.2,0.1c1.4,3.6,3.1,7.2,5,10.7c2.4,4.2,5.3,8.4,8.7,12.4c3.3,3.9,7,7.5,11,10.8
			c4.6,3.9,9,6.7,13.2,8.7c4.6,2.1,9,3.2,13.1,3.2c1.1,0,2.1-0.1,3.1-0.2c1.6-0.2,3-0.7,4.3-1.4c1.4-0.7,2.6-1.8,3.4-2.7
			c1.7-1.7,3.3-3.7,5.3-6.3c3.1-4.1,5.8-8.6,8.5-13.8c2.6-5,4.7-10.2,6.5-14.6c1-2.4,1.9-4.9,2.9-7.4l0.1-0.3c0.2,0,0.3-0.1,0.5-0.2
			c3.1-1.9,7.4-4.6,9.3-9c0.4-1,0.7-2.2,0.8-3.3c0.1-1.4-0.1-2.6-0.6-3.5c-0.8-1.7-2.7-1.9-3.8-2c0,0-0.1,0-0.1,0
			c2.7-4.3,5.1-8.8,6.7-13.7c1.2-3.7,1.7-7.3,1.6-10.9C311.8,249.1,311.1,245.4,309.7,241.1z M206.4,284.2c0.3,0.4,0.5,0.8,0.8,1.2
			c0,0,0.7,0.9,0.9,1.4c0.4,0.5,0.9,0.8,1.5,0.9c0.3,1.2,0.6,2.4,1,3.7c-2.2-1-4.3-2.3-5.4-4.3c-0.7-1.2-0.9-2.5-0.5-3.5
			c0.1-0.3,0.3-0.6,0.6-0.9C205.6,283.1,206,283.6,206.4,284.2z M213.4,282.6c-0.2-0.8-0.5-1.6-1.1-2.3c-0.1-0.6-0.2-1.1-0.3-1.7
			c5-1.4,9.9-3.8,15.1-7.4c-0.5,0.4-1,0.8-1.5,1.2c-2.3,1.8-4.9,3.4-7.6,4.7c-0.7,0.3-1.2,1.1-1.1,1.9c0.1,0.9,0.6,1.6,1.5,1.8
			c0.8,0.2,1.7,0.4,2.7,0.4c2.6,0,5.1-1,7.3-1.8l0.2-0.1c3.1-1.2,6.2-2.4,9.3-3.8c1.8-0.8,3.9-1.8,6.1-3.1c-0.5,0.6-1.1,1.2-1.6,1.8
			c-1.8,1.9-3.6,3.6-5.4,5.1c-0.6,0.5-0.9,1.4-0.6,2.2c0.3,0.8,1.1,1.4,1.9,1.4c0.4,0,0.7,0,1.1,0c6.3,0,13.1-2.1,20.8-6.4
			c3.9-2.2,7.2-4.7,9.8-7.5c-0.7,1.7-1.6,3.4-2.7,5.1c-1.3,1.9-2.7,3.6-4.4,5.1c-0.6,0.5-0.9,1.3-0.6,2.1c0.3,0.8,1,1.4,1.8,1.4
			c0.3,0,0.6,0.1,1,0.1c3.3,0,6.2-1.8,8-3.2c2.2-1.7,4.3-3.6,6.5-6.1c3.9-4.4,6.9-9.3,9-14.7c0.1-0.4,0.3-0.8,0.4-1.2
			c1,3.2,2.5,6.9,4.7,10.3c1.1,1.7,2.4,3.2,3.7,4.4c0,0,0.1,0.1,0.1,0.1c-0.1,1.7-0.2,3.4-0.4,5c-0.2,2.3-0.6,4.4-1,6.4
			c-0.1,0.6,0,1.2,0.4,1.7c0,0,0.1,0.1,0.1,0.1c-0.4,1.6-0.9,3.2-1.4,4.7c-0.7,1.9-1.5,3.9-2.2,5.8l-0.7,1.7
			c-2.2,5.8-4.1,10.2-6,14.2c-2.3,5-4.8,9.4-7.5,13.5c-1.4,2.1-2.9,4.1-4.6,6.2l-0.4,0.5c-1.4,1.7-2.9,3.5-4.8,4.5
			c-1.3,0.7-3,1-5.1,1c-0.6,0-1.2,0-1.8-0.1c-2.3-0.2-4.6-0.7-7.1-1.6c-4.1-1.5-8.1-3.8-12.8-7.3c-4-3.1-7.6-6.4-10.8-9.9
			c-3.3-3.6-6.2-7.5-8.7-11.4c-2.5-3.9-4.6-8.1-6.3-12.5c-1.3-3.3-2.4-7-3.2-11C213.4,283.7,213.5,283.2,213.4,282.6z M300.7,288.3
			c-0.3,0.3-0.7,0.5-1,0.8c0.2-0.7,0.4-1.3,0.5-2c0.3-1,0.4-2,0.6-3c0.1-0.3,0.1-0.6,0.1-0.9c0-0.2,0.1-0.4,0.1-0.6
			c0-0.2,0-0.5-0.1-0.7c0.2-0.2,0.4-0.4,0.7-0.5c0.4-0.1,0.8-0.2,1.3-0.2c0.2,0,0.3,0,0.5,0c0.2,0,0.4,0,0.6,0.1
			C304.7,284.4,301.9,287.2,300.7,288.3z"/>
		<path d="M267.9,292.5c0,0,0.1,0,0.1,0c0.1,0.7,0.2,1.3,0.5,2c0.9,1.9,2.5,3.2,4.6,3.6c0.5,0.1,1,0.1,1.5,0.1c0.6,0,1.1,0,1.8-0.1
			c1.2-0.2,2.1-0.6,2.9-1.3c1.2-1,1.9-2.6,2.1-4.7c0.2-1.8,0.2-3.5,0.2-5.2c0.6,0,1.2-0.1,1.8-0.1c1.5,0,3,0.2,4.5,0.5
			c0.1,0,0.3,0,0.4,0c1,0,1.9-0.8,2-1.8c0.1-1-0.5-1.9-1.6-2.2c-1.8-0.4-3.6-0.6-5.5-0.6c-4.6,0-9.2,1.2-13.1,3.3
			c-0.8,0.4-1.5,0.9-2.2,1.4c-0.7,0.5-2,1.4-2,3.1C265.9,291.6,266.8,292.5,267.9,292.5z M275.7,288c0.6-0.2,1.3-0.4,1.9-0.6
			c0,1,0,2-0.1,3c-0.1,1.1-0.2,2.3-0.7,3c-0.2,0.4-0.7,0.7-2.3,0.7c-0.6,0-1-0.1-1.4-0.3c-0.3-0.2-0.5-0.4-0.7-0.7
			c-0.6-1-0.4-2.2-0.1-3.7C273.3,288.9,274.4,288.4,275.7,288z"/>
		<path d="M222,291.8c0.1,0,0.2,0,0.4,0c1.8-0.3,3.7-0.5,5.5-0.5c0.2,0,0.4,0,0.7,0c-0.3,1.1-0.4,2.3-0.2,3.6c0.2,1.6,1.2,3.1,2.5,4
			c1.4,1,2.9,1.1,3.9,1.1c0.4,0,0.7,0,1.2-0.1c1.2-0.1,3.6-0.2,4.6-2.3c0.5-1,0.5-2,0.5-2.8l0-0.3c0-0.1,0-0.2,0-0.3
			c0.2,0.1,0.4,0.1,0.5,0.2c0.3,0.1,0.6,0.2,0.9,0.2c0.9,0,1.8-0.7,2-1.6c0.2-0.9-0.2-1.8-1.1-2.2c-4.8-2.4-10.2-3.6-15.6-3.6
			c-0.4,0-0.9,0-1.3,0c-1.6,0.1-3.3,0.2-5,0.6c-1,0.2-1.7,1.1-1.6,2.1C220.1,290.9,220.9,291.8,222,291.8z M237.1,293.8
			c0,0.6,0,1.3-0.1,1.9c-0.3,0.1-0.6,0.1-0.9,0.2c-0.5,0-0.9,0.1-1.3,0.1c-0.7,0-1.1-0.1-1.4-0.3c-0.4-0.2-0.8-0.8-0.9-1.4
			c-0.2-0.8,0-1.8,0.3-2.7c1.5,0.2,3,0.6,4.4,1C237.1,293,237.1,293.4,237.1,293.8z"/>
		<path d="M251.5,297.9c0,0.8,0,1.7,0,2.6c0,0.9,0,1.8,0.1,2.8c0.1,2.3,0.7,4.1,1.8,5.5c1.2,1.7,3.2,2.7,5.1,2.8c0.1,0,0.2,0,0.3,0
			c2.1,0,4.5-1.2,5-3.6c0.1-0.6,0-1.2-0.4-1.7c-0.4-0.5-1-0.8-1.6-0.8c-0.9,0-1.7,0.6-1.9,1.5c-0.1,0.3-0.7,0.5-1.2,0.5l-0.1,0
			c-0.8-0.1-1.6-0.6-2.1-1.4c-0.5-0.9-0.8-2-0.9-3.6c0-0.7,0-1.3,0-2c0-1,0-1.9-0.1-2.9c-0.1-2-0.4-4-0.9-6c-0.3-0.9-1-1.5-1.9-1.5
			c-0.6,0-1.2,0.3-1.6,0.8c-0.4,0.5-0.5,1.1-0.4,1.7C251.1,294.3,251.4,296.1,251.5,297.9z"/>
		<path d="M253.1,317.6c-1,0.2-1.7,1-1.6,2.1c0.1,1.1,1,1.9,2.1,1.9c0.1,0,0.2,0,0.4,0c4.4-0.8,8.5-2.3,12.1-4.2
			c1.3-0.7,2.2-1.3,3.1-1.8c0.8-0.5,1.1-1.4,0.8-2.3c-0.3-0.9-1-1.5-1.9-1.5c-0.4,0-0.8,0.1-1.1,0.3c-3.2,2.1-6.7,3.7-10.5,4.8
			C255.2,317.2,254.1,317.5,253.1,317.6z"/>
	</g>
	<g>
		<path d="M331,247.2c0-0.8,0.3-1.5,0.8-1.9c0.5-0.4,1.1-0.7,1.8-0.7H358c1.4,0,2.6,0.2,3.4,0.5c0.8,0.3,1.5,0.8,1.8,1.3
			c0.4,0.5,0.6,1.2,0.7,1.9c0.1,0.8,0.1,1.5,0.1,2.4v8.3c0,5.2-0.6,9.7-1.7,13.7c-1.1,4-2.5,7.3-4.1,10c-0.6,1-1.4,1.5-2.3,1.5
			c-1,0-1.8-0.2-2.4-0.8c-0.7-0.5-1-1.2-0.9-1.9c0.1-0.7,0.3-1.5,0.8-2.4c2-3.6,3.3-7,3.9-10.2c0.6-3.2,0.9-6.8,0.9-10.6v-6.6
			c0-0.7-0.1-1.2-0.4-1.4c-0.3-0.2-0.6-0.4-1.1-0.4h-23.2c-0.7,0-1.3-0.2-1.8-0.7C331.2,248.7,331,248,331,247.2z M393.2,293.3
			c1.4,0,2.6,0.2,3.5,0.6c0.9,0.4,1.5,1,2,1.6c0.4,0.7,0.7,1.4,0.9,2.2c0.1,0.8,0.2,1.7,0.2,2.5v11.9c0,0.8-0.1,1.7-0.2,2.5
			c-0.1,0.8-0.4,1.6-0.9,2.2c-0.4,0.7-1.1,1.2-2,1.6c-0.9,0.4-2,0.6-3.5,0.6h-51.6c-1.4,0-2.6-0.2-3.5-0.6c-0.9-0.4-1.5-1-2-1.6
			c-0.4-0.7-0.7-1.4-0.9-2.2c-0.1-0.8-0.2-1.7-0.2-2.5v-11.9c0-0.8,0.1-1.7,0.2-2.5c0.1-0.8,0.4-1.6,0.9-2.2c0.4-0.7,1.1-1.2,2-1.6
			c0.9-0.4,2-0.6,3.5-0.6H393.2z M392.3,314c0.5,0,0.9-0.1,1.1-0.4c0.3-0.2,0.4-0.7,0.4-1.4v-11.9c0-0.7-0.1-1.2-0.4-1.4
			c-0.3-0.2-0.6-0.4-1.1-0.4h-49.8c-0.5,0-0.9,0.1-1.1,0.4c-0.3,0.2-0.4,0.7-0.4,1.4v11.9c0,0.7,0.1,1.2,0.4,1.4
			c0.3,0.2,0.6,0.4,1.1,0.4H392.3z M393.9,246.2c0-0.9,0.3-1.6,0.8-2c0.5-0.4,1.2-0.7,2.1-0.7c0.8,0,1.5,0.2,2.1,0.7
			c0.6,0.4,0.9,1.1,0.9,2v36c0,0.9-0.3,1.6-0.9,2c-0.6,0.4-1.3,0.7-2.1,0.7c-0.8,0-1.5-0.2-2.1-0.7c-0.5-0.4-0.8-1.1-0.8-2V246.2z"
			/>
		<path d="M439.4,253.1c0,3.1,0.4,5.9,1.1,8.3c0.7,2.4,1.9,4.5,3.3,6.4c1.5,1.9,3.3,3.5,5.5,4.9c2.2,1.4,4.8,2.8,7.6,4
			c1.9,0.8,2.5,2,2.1,3.8c-0.2,0.8-0.7,1.4-1.4,1.8c-0.7,0.4-1.6,0.4-2.7,0c-2-0.6-3.9-1.5-5.8-2.7s-3.6-2.5-5.2-3.9
			c-1.6-1.4-3-2.9-4.2-4.4c-1.2-1.6-2.2-3-2.8-4.4c-0.7,1.6-1.7,3.1-3,4.8c-1.3,1.6-2.7,3.2-4.3,4.6c-1.6,1.5-3.4,2.8-5.3,4
			c-1.9,1.2-4,2.2-6.2,2.9c-1.1,0.4-2,0.4-2.7,0c-0.7-0.4-1.2-1-1.4-1.8c-0.2-0.8-0.2-1.6,0.2-2.3c0.4-0.7,1-1.2,1.8-1.5
			c2.8-1.1,5.3-2.3,7.5-3.8c2.2-1.4,4-3.1,5.5-5c1.5-1.9,2.6-4,3.4-6.5c0.8-2.4,1.2-5.2,1.2-8.3v-7.4c0-0.9,0.3-1.6,0.8-2
			c0.5-0.4,1.2-0.7,2.1-0.7c0.8,0,1.5,0.2,2.1,0.7c0.6,0.4,0.9,1.1,0.9,2V253.1z M487.5,306.4c0,4.5-1.4,7.7-4.3,9.8
			c-2.8,2-7.2,3-13.1,3h-34.2c-5.9,0-10.2-1-13.1-3c-2.8-2-4.3-5.3-4.3-9.8c0-4.5,1.4-7.7,4.3-9.8c2.8-2,7.2-3,13.1-3h34.2
			c5.9,0,10.2,1,13.1,3C486.1,298.7,487.5,301.9,487.5,306.4z M481.7,306.4c0-2.8-0.9-4.8-2.8-5.9c-1.9-1.1-5.2-1.7-9.9-1.7h-31.7
			c-4.7,0-8,0.6-9.9,1.7c-1.9,1.1-2.8,3.1-2.8,5.9s0.9,4.8,2.8,5.9c1.9,1.1,5.2,1.7,9.9,1.7h31.7c4.7,0,8-0.6,9.9-1.7
			C480.7,311.2,481.7,309.2,481.7,306.4z M460.2,264c0-0.8,0.3-1.5,0.8-1.9c0.5-0.4,1.1-0.7,1.8-0.7h16.4v-15.2c0-0.9,0.3-1.6,0.8-2
			c0.5-0.4,1.2-0.7,2.1-0.7c0.8,0,1.5,0.2,2.1,0.7c0.6,0.4,0.9,1.1,0.9,2V284c0,0.9-0.3,1.6-0.9,2c-0.6,0.4-1.3,0.7-2.1,0.7
			c-0.8,0-1.5-0.2-2.1-0.7c-0.5-0.4-0.8-1.1-0.8-2v-17.4h-16.4c-0.7,0-1.3-0.2-1.8-0.7C460.4,265.5,460.2,264.8,460.2,264z"/>
		<path d="M510.5,310.9c0,0.7,0.1,1.2,0.4,1.4c0.3,0.2,0.6,0.4,1.1,0.4h17.1c0.7,0,1.3,0.2,1.8,0.7c0.5,0.4,0.8,1.1,0.8,1.9
			c0,0.8-0.3,1.5-0.8,1.9c-0.5,0.4-1.1,0.7-1.8,0.7h-18c-1.4,0-2.6-0.2-3.5-0.6c-0.9-0.4-1.5-1-2-1.6c-0.4-0.7-0.7-1.4-0.9-2.2
			c-0.1-0.8-0.2-1.7-0.2-2.5v-59.3c0-0.8,0.1-1.7,0.2-2.5c0.1-0.8,0.4-1.6,0.9-2.2c0.4-0.7,1.1-1.2,2-1.6c0.9-0.4,2-0.6,3.5-0.6
			h16.2c0.7,0,1.3,0.2,1.8,0.7c0.5,0.4,0.8,1.1,0.8,1.9c0,0.8-0.3,1.5-0.8,1.9c-0.5,0.4-1.1,0.7-1.8,0.7H512c-0.5,0-0.9,0.1-1.1,0.4
			c-0.3,0.2-0.4,0.7-0.4,1.4v26.7h16.7c0.7,0,1.3,0.2,1.8,0.7c0.5,0.4,0.8,1.1,0.8,1.9c0,0.8-0.3,1.5-0.8,1.9
			c-0.5,0.4-1.1,0.7-1.8,0.7h-16.7V310.9z M547,246.2c0-0.9,0.3-1.6,0.8-2s1.2-0.7,2.1-0.7s1.5,0.2,2.1,0.7c0.6,0.4,0.9,1.1,0.9,2
			v30.7h13.7v-30.7c0-0.9,0.3-1.6,0.8-2s1.2-0.7,2.1-0.7c0.8,0,1.5,0.2,2.1,0.7s0.9,1.1,0.9,2V318c0,0.9-0.3,1.6-0.9,2
			c-0.6,0.5-1.3,0.7-2.1,0.7c-0.8,0-1.5-0.2-2.1-0.7c-0.5-0.4-0.8-1.1-0.8-2v-35.9h-13.7V318c0,0.9-0.3,1.6-0.9,2
			c-0.6,0.5-1.3,0.7-2.1,0.7s-1.5-0.2-2.1-0.7c-0.5-0.4-0.8-1.1-0.8-2V246.2z"/>
	</g>
	<path class="st0" d="M329,173.9c23-14.9,61-21,121-13s106-2.6,116-1.8c10,0.8,35,4.8,28,41.8s-102.4,6.1-132.4,6
		s-81.6,18-113.6-6.1c-14.9-9-29.9,13.7-29.9,13.7S306,188.8,329,173.9z"/>
	<g>
		<g>
			<path class="st1" d="M355.7,190.5c0.8,0,1.5-0.1,2-0.2c0.5-0.1,0.9-0.3,1.2-0.5c0.3-0.2,0.4-0.4,0.5-0.7c0.1-0.3,0.1-0.5,0.1-0.8
				c0-0.5-0.1-0.9-0.3-1.2c-0.2-0.3-0.5-0.5-0.9-0.7c-0.4-0.2-0.9-0.3-1.4-0.5c-0.6-0.1-1.2-0.3-1.9-0.5c-0.5-0.1-1.1-0.3-1.6-0.5
				c-0.6-0.2-1.1-0.4-1.5-0.7c-0.4-0.3-0.8-0.6-1.1-1c-0.3-0.4-0.4-0.9-0.4-1.5c0-0.4,0.1-0.9,0.3-1.3c0.2-0.4,0.5-0.8,1-1.1
				c0.4-0.3,1-0.6,1.7-0.8c0.7-0.2,1.6-0.3,2.6-0.3c0.9,0,1.7,0.1,2.4,0.2c0.7,0.1,1.3,0.3,1.8,0.6c0.2,0.1,0.3,0.3,0.5,0.4
				c0.1,0.2,0.1,0.4,0,0.7c-0.1,0.2-0.2,0.3-0.5,0.4c-0.2,0-0.5,0-0.8-0.1c-0.4-0.1-0.9-0.2-1.4-0.4c-0.5-0.1-1.2-0.2-2-0.2
				c-0.8,0-1.4,0-1.9,0.1c-0.5,0.1-0.9,0.2-1.2,0.4c-0.3,0.2-0.5,0.4-0.6,0.6s-0.2,0.5-0.2,0.7c0,0.4,0.1,0.7,0.3,1
				c0.2,0.3,0.5,0.5,0.9,0.7c0.4,0.2,0.8,0.4,1.4,0.5c0.5,0.2,1.2,0.3,1.9,0.5c0.5,0.1,1.1,0.3,1.6,0.5c0.6,0.2,1.1,0.5,1.5,0.8
				c0.5,0.3,0.8,0.7,1.1,1.2c0.3,0.5,0.4,1,0.4,1.7c0,1.1-0.5,1.9-1.4,2.6c-0.9,0.7-2.3,1-4.2,1c-1.2,0-2.3-0.1-3.3-0.4
				c-0.9-0.3-1.7-0.6-2.2-1c-0.1-0.1-0.2-0.2-0.3-0.5c0-0.2,0-0.4,0.1-0.6c0.1-0.2,0.3-0.4,0.5-0.4c0.2,0,0.4,0,0.5,0.1
				c0.3,0.2,0.6,0.3,0.9,0.5s0.6,0.3,1,0.4c0.4,0.1,0.8,0.2,1.2,0.3C354.6,190.5,355.1,190.5,355.7,190.5z"/>
			<path class="st1" d="M365.1,175.1c0-0.4,0.2-0.8,0.5-1c0.3-0.3,0.7-0.4,1.2-0.4c0.4,0,0.8,0.1,1.1,0.4c0.3,0.3,0.5,0.6,0.5,1
				c0,0.4-0.2,0.8-0.5,1.1c-0.3,0.3-0.7,0.4-1.1,0.4c-0.5,0-0.8-0.1-1.2-0.4C365.3,175.9,365.1,175.5,365.1,175.1z M365.9,179.1
				c0-0.3,0.1-0.5,0.3-0.6c0.2-0.1,0.4-0.2,0.6-0.2c0.2,0,0.5,0.1,0.6,0.2c0.2,0.1,0.3,0.3,0.3,0.6v11.6c0,0.3-0.1,0.5-0.3,0.6
				c-0.2,0.1-0.4,0.2-0.6,0.2c-0.3,0-0.5-0.1-0.6-0.2c-0.2-0.1-0.3-0.3-0.3-0.6V179.1z"/>
			<path class="st1" d="M384.2,182.7c-0.1-0.6-0.4-1.1-0.7-1.6c-0.3-0.4-0.8-0.8-1.4-1c-0.6-0.2-1.4-0.3-2.3-0.3
				c-0.8,0-1.5,0.1-2,0.3c-0.6,0.2-1,0.5-1.4,0.9c-0.4,0.4-0.6,0.8-0.8,1.2c-0.2,0.5-0.3,0.9-0.3,1.4v7.1c0,0.3-0.1,0.5-0.3,0.6
				c-0.2,0.1-0.4,0.2-0.6,0.2c-0.3,0-0.5-0.1-0.6-0.2c-0.2-0.1-0.2-0.3-0.2-0.6v-11.5c0-0.3,0.1-0.5,0.2-0.6s0.4-0.2,0.6-0.2
				c0.2,0,0.5,0.1,0.6,0.2c0.2,0.1,0.3,0.3,0.3,0.6v0.8c0.5-0.6,1.1-1,1.9-1.3c0.7-0.3,1.6-0.5,2.6-0.5c2.1,0,3.7,0.6,4.8,1.7
				c1.1,1.1,1.6,2.7,1.6,4.8v6c0,0.3-0.1,0.5-0.3,0.6c-0.2,0.1-0.4,0.2-0.6,0.2c-0.3,0-0.5-0.1-0.6-0.2c-0.2-0.1-0.2-0.3-0.2-0.6v-6
				C384.4,184,384.4,183.3,384.2,182.7z"/>
			<path class="st1" d="M397.8,192c-1.2,0-2.2-0.1-3-0.4c-0.8-0.3-1.5-0.6-2.1-1.1c-0.6-0.5-1-1-1.3-1.6s-0.5-1.3-0.5-2.1
				c0-0.6-0.1-1.1-0.1-1.6c0-0.5,0-1,0.1-1.5c0-0.8,0.2-1.5,0.5-2.2c0.3-0.7,0.7-1.2,1.3-1.7c0.6-0.5,1.3-0.9,2.1-1.2
				c0.8-0.3,1.8-0.4,3-0.4c1,0,1.9,0.1,2.6,0.4c0.7,0.3,1.3,0.6,1.6,0.8c0.4,0.3,0.5,0.6,0.3,1c-0.1,0.2-0.2,0.3-0.4,0.4
				c-0.2,0.1-0.4,0-0.6-0.1c-0.2-0.1-0.4-0.2-0.6-0.3c-0.2-0.1-0.4-0.2-0.7-0.3c-0.3-0.1-0.6-0.2-0.9-0.3c-0.3-0.1-0.8-0.1-1.2-0.1
				c-1.7,0-3,0.3-3.8,1c-0.8,0.7-1.3,1.6-1.4,2.9c-0.1,1-0.1,2,0,3c0.1,0.6,0.2,1.1,0.4,1.6c0.2,0.5,0.5,0.9,0.9,1.2
				c0.4,0.3,1,0.6,1.6,0.7s1.5,0.2,2.4,0.2c0.5,0,0.9,0,1.3-0.1c0.4-0.1,0.7-0.2,1-0.3c0.3-0.1,0.5-0.3,0.8-0.4
				c0.2-0.1,0.4-0.2,0.6-0.3c0.2-0.1,0.4-0.1,0.5-0.1s0.3,0.1,0.5,0.3c0.1,0.2,0.2,0.4,0.1,0.6c-0.1,0.2-0.1,0.3-0.3,0.4
				c-0.2,0.2-0.4,0.3-0.7,0.5c-0.3,0.2-0.6,0.3-1,0.5c-0.4,0.1-0.9,0.3-1.4,0.3S398.4,192,397.8,192z"/>
			<path class="st1" d="M412.7,178.3c1,0,1.8,0.1,2.6,0.4c0.8,0.3,1.5,0.7,2,1.2c0.6,0.5,1,1.1,1.3,1.7c0.3,0.7,0.5,1.4,0.5,2.1
				c0,0.5,0,0.9-0.1,1.2c-0.1,0.3-0.2,0.5-0.3,0.7c-0.2,0.2-0.3,0.3-0.6,0.3c-0.2,0-0.5,0.1-0.8,0.1h-9.3c0,1.6,0.4,2.7,1.2,3.5
				s2,1.1,3.7,1.1c0.9,0,1.7-0.1,2.3-0.3c0.6-0.2,1.3-0.5,2-0.8c0.2-0.2,0.5-0.2,0.7-0.1c0.2,0.1,0.4,0.2,0.5,0.4
				c0.1,0.3,0.1,0.5,0,0.7c-0.1,0.2-0.2,0.3-0.3,0.3c-0.5,0.4-1.2,0.7-2,0.9s-1.9,0.4-3.1,0.4c-1.1,0-2.1-0.1-2.9-0.4
				c-0.8-0.3-1.5-0.6-2-1.1c-0.5-0.5-1-1-1.3-1.7c-0.3-0.7-0.5-1.4-0.6-2.2c0-0.5-0.1-1.1-0.1-1.6s0-1,0.1-1.4
				c0.1-0.7,0.2-1.4,0.5-2c0.3-0.6,0.7-1.2,1.2-1.7c0.5-0.5,1.2-0.9,2-1.2C410.7,178.5,411.6,178.3,412.7,178.3z M416.8,184.4
				c0.3,0,0.4,0,0.5-0.1c0.1-0.1,0.2-0.3,0.2-0.5c0-1.2-0.4-2.1-1.2-2.8s-2-1-3.6-1c-0.7,0-1.3,0.1-1.9,0.3
				c-0.6,0.2-1.1,0.4-1.5,0.8s-0.7,0.8-1,1.4c-0.2,0.6-0.4,1.3-0.4,2.1H416.8z"/>
			<path class="st2" d="M442.3,182.8c-0.1-0.6-0.4-1.1-0.7-1.6c-0.3-0.4-0.8-0.8-1.4-1c-0.6-0.2-1.4-0.3-2.3-0.3
				c-0.8,0-1.5,0.1-2,0.3c-0.6,0.2-1,0.5-1.4,0.9s-0.6,0.8-0.8,1.2c-0.2,0.5-0.3,0.9-0.3,1.4v7c0,0.3-0.1,0.5-0.3,0.6
				c-0.2,0.1-0.4,0.2-0.6,0.2c-0.3,0-0.5-0.1-0.6-0.2c-0.2-0.1-0.2-0.3-0.2-0.6v-18.3c0-0.3,0.1-0.5,0.2-0.6s0.4-0.2,0.6-0.2
				c0.2,0,0.5,0.1,0.6,0.2c0.2,0.1,0.3,0.3,0.3,0.6v7.7c0.5-0.6,1.1-1,1.9-1.3c0.7-0.3,1.6-0.5,2.6-0.5c2.1,0,3.7,0.6,4.8,1.7
				c1.1,1.1,1.6,2.7,1.6,4.8v5.9c0,0.3-0.1,0.5-0.3,0.6c-0.2,0.1-0.4,0.2-0.6,0.2c-0.3,0-0.5-0.1-0.6-0.2c-0.2-0.1-0.2-0.3-0.2-0.6
				v-5.9C442.5,184.1,442.5,183.4,442.3,182.8z"/>
			<path class="st2" d="M455.6,178.3c1,0,1.8,0.1,2.6,0.4c0.8,0.3,1.5,0.7,2,1.2c0.6,0.5,1,1.1,1.3,1.7c0.3,0.7,0.5,1.4,0.5,2.1
				c0,0.5,0,0.9-0.1,1.2c-0.1,0.3-0.2,0.5-0.3,0.7c-0.2,0.2-0.3,0.3-0.6,0.3c-0.2,0-0.5,0.1-0.8,0.1h-9.3c0,1.6,0.4,2.7,1.2,3.5
				s2,1.1,3.7,1.1c0.9,0,1.7-0.1,2.3-0.3c0.6-0.2,1.3-0.5,2-0.8c0.2-0.2,0.5-0.2,0.7-0.1c0.2,0.1,0.4,0.2,0.5,0.4
				c0.1,0.3,0.1,0.5,0,0.7c-0.1,0.2-0.2,0.3-0.3,0.3c-0.5,0.4-1.2,0.7-2,0.9s-1.9,0.4-3.1,0.4c-1.1,0-2.1-0.1-2.9-0.4
				c-0.8-0.3-1.5-0.6-2-1.1c-0.5-0.5-1-1-1.3-1.7c-0.3-0.7-0.5-1.4-0.6-2.2c0-0.5-0.1-1.1-0.1-1.6s0-1,0.1-1.4
				c0.1-0.7,0.2-1.4,0.5-2c0.3-0.6,0.7-1.2,1.2-1.7c0.5-0.5,1.2-0.9,2-1.2C453.6,178.5,454.5,178.3,455.6,178.3z M459.7,184.4
				c0.3,0,0.4,0,0.5-0.1c0.1-0.1,0.2-0.3,0.2-0.5c0-1.2-0.4-2.1-1.2-2.8s-2-1-3.6-1c-0.7,0-1.3,0.1-1.9,0.3
				c-0.6,0.2-1.1,0.4-1.5,0.8s-0.7,0.8-1,1.4c-0.2,0.6-0.4,1.3-0.4,2.1H459.7z"/>
			<path class="st2" d="M467,172.4c0-0.3,0.1-0.5,0.2-0.6c0.2-0.1,0.4-0.2,0.6-0.2c0.2,0,0.5,0.1,0.6,0.2s0.3,0.3,0.3,0.6v18.4
				c0,0.3-0.1,0.5-0.3,0.6c-0.2,0.1-0.4,0.2-0.6,0.2c-0.3,0-0.5-0.1-0.6-0.2c-0.2-0.1-0.2-0.3-0.2-0.6V172.4z"/>
			<path class="st2" d="M474.9,172.4c0-0.3,0.1-0.5,0.2-0.6c0.2-0.1,0.4-0.2,0.6-0.2c0.2,0,0.5,0.1,0.6,0.2s0.3,0.3,0.3,0.6v18.4
				c0,0.3-0.1,0.5-0.3,0.6c-0.2,0.1-0.4,0.2-0.6,0.2c-0.3,0-0.5-0.1-0.6-0.2c-0.2-0.1-0.2-0.3-0.2-0.6V172.4z"/>
			<path class="st2" d="M488.3,178.3c1.9,0,3.4,0.5,4.5,1.5c1.1,1,1.7,2.3,1.9,4c0,0.4,0.1,0.9,0.1,1.4s0,1-0.1,1.4
				c-0.1,1.7-0.7,3-1.7,4c-1,1-2.6,1.5-4.7,1.5c-1.1,0-2-0.1-2.7-0.4c-0.8-0.3-1.4-0.6-1.9-1.1c-0.5-0.5-0.9-1-1.2-1.7
				c-0.3-0.7-0.5-1.4-0.5-2.2c0-0.4-0.1-0.9-0.1-1.4s0-1,0.1-1.4c0.1-1.7,0.7-3,1.8-4S486.3,178.3,488.3,178.3z M492.9,183.2
				c-0.1-1-0.5-1.8-1.3-2.4c-0.7-0.6-1.9-0.9-3.3-0.9c-0.7,0-1.4,0.1-1.9,0.3c-0.5,0.2-1,0.4-1.4,0.7s-0.7,0.6-0.9,1
				c-0.2,0.4-0.4,0.8-0.4,1.3c-0.1,0.6-0.1,1.3-0.1,2c0,0.7,0,1.3,0.1,1.9c0.1,0.5,0.2,1,0.4,1.4c0.2,0.4,0.5,0.8,0.8,1.1
				s0.8,0.5,1.4,0.7s1.2,0.3,2,0.3c0.8,0,1.4-0.1,2-0.3s1-0.4,1.4-0.7c0.4-0.3,0.6-0.7,0.8-1.1c0.2-0.4,0.3-0.9,0.4-1.4
				c0.1-0.6,0.1-1.3,0.1-2S493,183.8,492.9,183.2z"/>
			<path class="st2" d="M513.9,190.4c0.3,0,0.4-0.1,0.5-0.3l3.7-11.1c0.1-0.3,0.3-0.5,0.5-0.6c0.2-0.1,0.4-0.1,0.7,0
				c0.2,0,0.3,0.1,0.5,0.3c0.2,0.2,0.2,0.5,0.1,0.9l-3.7,10.8c-0.1,0.2-0.1,0.4-0.2,0.5c-0.1,0.2-0.2,0.3-0.3,0.5
				c-0.2,0.2-0.4,0.3-0.6,0.4c-0.3,0.1-0.6,0.1-1,0.1s-0.7,0-1-0.1c-0.3-0.1-0.5-0.2-0.6-0.4c-0.2-0.1-0.3-0.3-0.3-0.5
				c-0.1-0.2-0.1-0.4-0.2-0.5l-2.9-8.7l-2.9,8.7c-0.1,0.2-0.1,0.4-0.2,0.5c-0.1,0.2-0.2,0.3-0.3,0.5c-0.2,0.1-0.4,0.3-0.6,0.4
				c-0.3,0.1-0.6,0.1-1,0.1c-0.4,0-0.7,0-1-0.1c-0.3-0.1-0.5-0.2-0.6-0.4c-0.2-0.2-0.3-0.3-0.3-0.5c-0.1-0.2-0.1-0.4-0.2-0.5
				l-3.7-10.8c-0.1-0.4-0.1-0.7,0.1-0.9c0.2-0.2,0.3-0.3,0.5-0.3c0.3-0.1,0.5-0.1,0.7,0s0.4,0.3,0.5,0.6l3.7,11.1
				c0.1,0.2,0.2,0.3,0.5,0.3c0.1,0,0.2,0,0.3-0.1c0.1-0.1,0.1-0.1,0.1-0.2l3.7-11.1c0.1-0.2,0.2-0.4,0.4-0.5s0.3-0.1,0.6-0.1
				c0.2,0,0.4,0,0.6,0.1s0.3,0.3,0.4,0.5l3.7,11.1c0,0.1,0.1,0.2,0.1,0.2S513.8,190.4,513.9,190.4z"/>
			<path class="st2" d="M529.8,178.3c1.9,0,3.4,0.5,4.5,1.5c1.1,1,1.7,2.3,1.9,4c0,0.4,0.1,0.9,0.1,1.4s0,1-0.1,1.4
				c-0.1,1.7-0.7,3-1.7,4c-1,1-2.6,1.5-4.7,1.5c-1.1,0-2-0.1-2.7-0.4c-0.8-0.3-1.4-0.6-1.9-1.1c-0.5-0.5-0.9-1-1.2-1.7
				c-0.3-0.7-0.5-1.4-0.5-2.2c0-0.4-0.1-0.9-0.1-1.4s0-1,0.1-1.4c0.1-1.7,0.7-3,1.8-4S527.7,178.3,529.8,178.3z M534.4,183.2
				c-0.1-1-0.5-1.8-1.3-2.4c-0.7-0.6-1.9-0.9-3.3-0.9c-0.7,0-1.4,0.1-1.9,0.3c-0.5,0.2-1,0.4-1.4,0.7s-0.7,0.6-0.9,1
				c-0.2,0.4-0.4,0.8-0.4,1.3c-0.1,0.6-0.1,1.3-0.1,2c0,0.7,0,1.3,0.1,1.9c0.1,0.5,0.2,1,0.4,1.4c0.2,0.4,0.5,0.8,0.8,1.1
				s0.8,0.5,1.4,0.7s1.2,0.3,2,0.3c0.8,0,1.4-0.1,2-0.3s1-0.4,1.4-0.7c0.4-0.3,0.6-0.7,0.8-1.1c0.2-0.4,0.3-0.9,0.4-1.4
				c0.1-0.6,0.1-1.3,0.1-2S534.4,183.8,534.4,183.2z"/>
			<path class="st2" d="M545.4,180.4c-0.6,0.3-1,0.7-1.4,1.2s-0.6,1-0.8,1.5c-0.2,0.6-0.2,1.1-0.2,1.6v6.1c0,0.3-0.1,0.5-0.3,0.6
				c-0.2,0.1-0.4,0.2-0.6,0.2c-0.3,0-0.5-0.1-0.6-0.2c-0.2-0.1-0.2-0.3-0.2-0.6v-11.5c0-0.3,0.1-0.5,0.2-0.6s0.4-0.2,0.6-0.2
				c0.2,0,0.5,0.1,0.6,0.2c0.2,0.1,0.3,0.3,0.3,0.6v1c0.5-0.6,1-1.1,1.7-1.4c0.7-0.3,1.5-0.5,2.5-0.5h3c0.2,0,0.4,0.1,0.5,0.2
				c0.2,0.1,0.2,0.3,0.2,0.6s-0.1,0.4-0.2,0.6c-0.2,0.1-0.3,0.2-0.5,0.2h-2.8C546.6,179.9,545.9,180,545.4,180.4z"/>
			<path class="st2" d="M554.7,172.4c0-0.3,0.1-0.5,0.2-0.6c0.2-0.1,0.4-0.2,0.6-0.2c0.2,0,0.5,0.1,0.6,0.2s0.3,0.3,0.3,0.6v18.4
				c0,0.3-0.1,0.5-0.3,0.6c-0.2,0.1-0.4,0.2-0.6,0.2c-0.3,0-0.5-0.1-0.6-0.2c-0.2-0.1-0.2-0.3-0.2-0.6V172.4z"/>
			<path class="st2" d="M568,178.3c1,0,1.9,0.2,2.6,0.5c0.8,0.3,1.4,0.7,2,1.3v-7.6c0-0.3,0.1-0.5,0.2-0.6s0.4-0.2,0.6-0.2
				c0.2,0,0.5,0.1,0.6,0.2c0.2,0.1,0.3,0.3,0.3,0.6v18.3c0,0.3-0.1,0.5-0.3,0.6c-0.2,0.1-0.4,0.2-0.6,0.2c-0.3,0-0.5-0.1-0.6-0.2
				c-0.2-0.1-0.2-0.3-0.2-0.6v-0.2c-0.5,0.5-1.2,0.8-1.9,1.1s-1.6,0.4-2.7,0.4c-1.1,0-2-0.1-2.7-0.4c-0.8-0.3-1.4-0.6-1.9-1.1
				s-0.9-1-1.1-1.7c-0.3-0.7-0.4-1.4-0.5-2.2c0-0.4-0.1-0.9-0.1-1.4s0-1,0.1-1.4c0.1-1.7,0.7-3,1.7-4S566,178.3,568,178.3z
				 M572.5,183.2c-0.1-0.4-0.2-0.8-0.4-1.2c-0.2-0.4-0.5-0.8-0.8-1.1s-0.8-0.6-1.4-0.7c-0.5-0.2-1.2-0.3-1.9-0.3
				c-0.7,0-1.4,0.1-1.9,0.3c-0.5,0.2-1,0.4-1.3,0.7c-0.3,0.3-0.6,0.6-0.8,1c-0.2,0.4-0.3,0.8-0.4,1.3c-0.1,0.6-0.1,1.3-0.1,2
				c0,0.7,0,1.3,0.1,1.9c0.1,0.5,0.2,1,0.3,1.4c0.2,0.4,0.4,0.8,0.8,1.1s0.8,0.5,1.3,0.7s1.2,0.3,2,0.3c0.8,0,1.4-0.1,1.9-0.3
				c0.5-0.2,1-0.5,1.3-0.8c0.3-0.3,0.6-0.7,0.8-1.1c0.2-0.4,0.3-0.8,0.4-1.3c0-0.1,0-0.2,0.1-0.5c0-0.3,0-0.6,0-1c0-0.4,0-0.8,0-1.2
				C572.6,184,572.5,183.6,572.5,183.2z"/>
		</g>
	</g>
</g>
<g>
	<g>
		<path d="M309.7,489.6c-0.1-0.4-0.3-0.9-0.4-1.3c0.3,0.1,0.6,0.2,0.9,0.2c0.6,0,1.1-0.2,1.5-0.6l0.8-0.1l-0.3-1.8
			c-0.4-3.6-1-7.5-2.1-11.1c-1.3-4.2-3.4-7.8-6.1-10.5c-3-3-6.7-5.1-10.3-7.2l-0.6-0.4c-2.2-1.3-4.2-2.4-6.1-3.4l-0.8-0.4
			c-1.7-0.9-3.4-1.8-5.3-2.6c-2-0.8-4.2-1.2-6.5-1.2c-0.5,0-1,0-1.5,0.1c-2.6,0.2-5.1,0.8-7.9,1.5l-0.2,0.1
			c-0.9,0.4-1.5,1.3-1.3,2.3c0.2,1,1,1.7,2,1.7c0.2,0,0.3,0,0.5-0.1c2.5-0.6,5.5-1.4,8.4-1.4c1.4,0,2.7,0.2,3.8,0.5
			c1.7,0.5,3.4,1.4,5.1,2.3l0.4,0.2c1.9,1,3.9,2.1,5.9,3.2c2,1.2,3.9,2.2,5.6,3.3c1.4,0.9,3.2,2.1,4.8,3.4c2.6,2.3,4.6,5.2,5.8,8.7
			c0.4,1.1,0.7,2.2,1,3.5c-1-0.7-2.2-1.2-3.4-1.6c-0.2-0.1-0.4-0.1-0.7-0.1c-0.7,0-1.3,0.4-1.7,1c-0.4,0.6-0.4,1.4-0.1,2
			c1.7,3.2,3.2,6.5,4.3,9.9c1.4,4.1,2.2,7.5,2.4,10.5c0.3,3.1-0.1,6.4-1,9.7c-0.8,2.8-2.1,5.8-3.9,9.2c-0.6,1-1.1,2-1.7,3.1
			c0.3-4.4,0.2-8.8-0.2-13.2c-0.2-2.1-0.4-4.2-0.8-6.7c-0.1-1-1-1.7-2-1.7c-0.2,0-0.4,0-0.6,0.1c-0.5,0.1-0.9,0.4-1.2,0.9
			c-0.3,0.4-0.4,1-0.3,1.5c0.6,4,1,8,1.1,12c-2.3-3.2-4-7.2-5.5-12.5c-0.4-1.3-0.7-2.6-1-3.8l-0.2-0.8l0.2-1.7l-1.1,0.1
			c-0.1-0.1-0.2-0.1-0.3-0.2c-0.3-0.1-0.5-0.2-0.8-0.2c-1,0-1.9,0.8-2.1,1.8c-0.6,4.9-2.3,9.7-4.9,14.2c-2.6,4.5-6,8.6-10.2,12.1
			c-0.2,0.2-0.5,0.4-0.7,0.6c1-1.6,1.9-3.3,2.7-5.1c2-4.5,3.4-9.3,4.5-13.4c0.7-2.6,1.4-5.3,1.9-8c0.1-0.6,0-1.2-0.4-1.7
			c-0.4-0.5-1-0.8-1.6-0.8c-0.2,0-0.4,0-0.6,0.1l-1-0.5l-0.4,1.8c-1.2,2.2-2.1,4.5-2.9,6.8c-0.4,1.2-0.9,2.4-1.4,3.6
			c-1.2,2.8-2.9,5.4-5,7.6c-2.1,2.2-4.6,4.1-7.4,5.9c-3.1,1.8-6.3,3.3-9.4,4.5c-2.1,0.7-4,1.3-5.9,1.6c5.1-5.1,9.2-10.9,12-17.1
			c0.1-0.3,0.3-0.6,0.3-0.8c0.1-0.2,0.3-0.4,0.4-0.7c0.2-0.2,0.4-0.5,0.6-0.8c0,0,0-0.1,0.1-0.2c0-0.1,0-0.1,0-0.2
			c0.1-0.3,0.2-0.6,0.3-0.9l0.2-0.5c0.3-0.7,0.4-1.5,0.6-2.1l0.6-2.1l-0.9-0.2c0,0,0,0-0.1-0.1c-0.4-0.4-0.9-0.7-1.5-0.7
			c-0.2,0-0.5,0-0.7,0.1l-0.9-0.2l-0.3,1.5l-0.3,1c-0.5,1.5-1.1,3-1.7,4.5c-1.9,3.1-4.9,5.7-7.2,7.6c-1.3,1-2.4,1.9-3.7,2.6
			c-1.2,0.7-2.6,1.4-4.1,2.2c-2.6,1.2-5.3,2.3-7.9,3.3l-0.4,0.2c1.5-1.2,2.8-2.5,4.1-3.8c3.6-3.8,6.4-8.1,8.3-12.7
			c0.3-0.7,0.5-1.3,0.8-2c0.3-0.2,0.5-0.5,0.7-0.9c0.2-0.4,0.2-0.9,0.3-1.3l0-0.2c0.1-0.6,0.2-1.3,0.3-1.9c0.1-0.6,0.2-1.2,0.3-1.9
			l0.2-1.7l-0.8-0.1c-0.4-0.4-0.9-0.6-1.5-0.6c-0.3,0-0.6,0.1-0.9,0.2l-0.8-0.2l-0.3,1.8c-0.2,1.2-0.5,2.4-0.8,3.5
			c-1.2,3.1-3.4,6.2-6.5,9c-2,1.8-4.3,3.5-6.5,5.1c-2.3,1.7-4.6,3.1-6.9,4.3c-2.8,1.5-5.7,2.6-8.6,3.4c-0.1,0-0.2,0.1-0.2,0.1
			c-0.2,0-0.4-0.1-0.5-0.1c-0.6,0-1.2,0.3-1.6,0.7c-0.4,0.5-0.6,1-0.5,1.7c0,0.2,0.1,0.4,0.1,0.6c-0.2,0-0.5,0-0.7,0
			c-0.1,0-0.1,0-0.2,0c-2.9-4.5-5.5-9.2-6.7-14.3c-1-4.4-1.1-9-1.1-12.9c0.1-4.6,0.7-8.6,1.8-12c2.2-6.3,6.5-12.3,12.5-17.4
			c5.4-4.6,12.1-8.5,20.1-11.6c4.5-1.8,8.1-2.9,11.5-3.6c2.5-0.5,4.9-0.8,7.2-0.8c1.6,0,3.1,0.1,4.6,0.4c0.9,0.2,1.8,0.4,2.8,0.7
			c0.2,0.1,0.4,0.1,0.6,0.1c1,0,1.8-0.7,2-1.8c0.1-1-0.4-1.9-1.4-2.2c-2.6-0.9-5.5-1.3-8.5-1.3c-5,0-10.5,1.1-17.2,3.6
			c-8.6,3.1-15.9,7-21.9,11.6c-6.8,5.3-11.9,11.6-14.8,18.3c-1.7,3.8-2.7,8-3,12.4c-0.2,2.2-0.2,4.5-0.1,6.9c0.1,2.7,0.2,4.9,0.5,7
			c0.5,4.1,1.8,8.2,4,12.4c1,2,2.2,4,3.4,5.9c-0.5,0.4-0.9,0.8-1.3,1.3c-1.4,1.9-1.7,4.6-0.7,7.1c0.8,2,2.2,3.8,4.3,5.3
			c2.2,1.6,4.7,2.6,6.9,3.4c0.1,0,0.2,0,0.2,0.1c1.4,3.6,3.1,7.2,5,10.7c2.4,4.2,5.3,8.4,8.7,12.4c3.3,3.9,7,7.5,11,10.8
			c4.6,3.9,9,6.7,13.2,8.7c4.6,2.1,9,3.2,13.1,3.2c1.1,0,2.1-0.1,3.1-0.2c1.6-0.2,3-0.7,4.3-1.4c1.4-0.7,2.6-1.8,3.4-2.7
			c1.7-1.7,3.3-3.7,5.3-6.3c3.1-4.1,5.8-8.6,8.5-13.8c2.6-5,4.7-10.2,6.5-14.6c1-2.4,1.9-4.9,2.9-7.4l0.1-0.3c0.2,0,0.3-0.1,0.5-0.2
			c3.1-1.9,7.4-4.6,9.3-9c0.4-1,0.7-2.2,0.8-3.3c0.1-1.4-0.1-2.6-0.6-3.5c-0.8-1.7-2.7-1.9-3.8-2c0,0-0.1,0-0.1,0
			c2.7-4.3,5.1-8.8,6.7-13.7c1.2-3.7,1.7-7.3,1.6-10.9C311.8,497.6,311.1,493.8,309.7,489.6z M206.4,532.7c0.3,0.4,0.5,0.8,0.8,1.2
			c0,0,0.7,0.9,0.9,1.4c0.4,0.5,0.9,0.8,1.5,0.9c0.3,1.2,0.6,2.4,1,3.7c-2.2-1-4.3-2.3-5.4-4.3c-0.7-1.2-0.9-2.5-0.5-3.5
			c0.1-0.3,0.3-0.6,0.6-0.9C205.6,531.6,206,532.1,206.4,532.7z M213.4,531.1c-0.2-0.8-0.5-1.6-1.1-2.3c-0.1-0.6-0.2-1.1-0.3-1.7
			c5-1.4,9.9-3.8,15.1-7.4c-0.5,0.4-1,0.8-1.5,1.2c-2.3,1.8-4.9,3.4-7.6,4.7c-0.7,0.3-1.2,1.1-1.1,1.9c0.1,0.9,0.6,1.6,1.5,1.8
			c0.8,0.2,1.7,0.4,2.7,0.4c2.6,0,5.1-1,7.3-1.8l0.2-0.1c3.1-1.2,6.2-2.4,9.3-3.8c1.8-0.8,3.9-1.8,6.1-3.1c-0.5,0.6-1.1,1.2-1.6,1.8
			c-1.8,1.9-3.6,3.6-5.4,5.1c-0.6,0.5-0.9,1.4-0.6,2.2c0.3,0.8,1.1,1.4,1.9,1.4c0.4,0,0.7,0,1.1,0c6.3,0,13.1-2.1,20.8-6.4
			c3.9-2.2,7.2-4.7,9.8-7.5c-0.7,1.7-1.6,3.4-2.7,5.1c-1.3,1.9-2.7,3.6-4.4,5.1c-0.6,0.5-0.9,1.3-0.6,2.1c0.3,0.8,1,1.4,1.8,1.4
			c0.3,0,0.6,0.1,1,0.1c3.3,0,6.2-1.8,8-3.2c2.2-1.7,4.3-3.6,6.5-6.1c3.9-4.4,6.9-9.3,9-14.7c0.1-0.4,0.3-0.8,0.4-1.2
			c1,3.2,2.5,6.9,4.7,10.3c1.1,1.7,2.4,3.2,3.7,4.4c0,0,0.1,0.1,0.1,0.1c-0.1,1.7-0.2,3.4-0.4,5c-0.2,2.3-0.6,4.4-1,6.4
			c-0.1,0.6,0,1.2,0.4,1.7c0,0,0.1,0.1,0.1,0.1c-0.4,1.6-0.9,3.2-1.4,4.7c-0.7,1.9-1.5,3.9-2.2,5.8l-0.7,1.7
			c-2.2,5.8-4.1,10.2-6,14.2c-2.3,5-4.8,9.4-7.5,13.5c-1.4,2.1-2.9,4.1-4.6,6.2l-0.4,0.5c-1.4,1.7-2.9,3.5-4.8,4.5
			c-1.3,0.7-3,1-5.1,1c-0.6,0-1.2,0-1.8-0.1c-2.3-0.2-4.6-0.7-7.1-1.6c-4.1-1.5-8.1-3.8-12.8-7.3c-4-3.1-7.6-6.4-10.8-9.9
			c-3.3-3.6-6.2-7.5-8.7-11.4c-2.5-3.9-4.6-8.1-6.3-12.5c-1.3-3.3-2.4-7-3.2-11C213.4,532.2,213.5,531.7,213.4,531.1z M300.7,536.8
			c-0.3,0.3-0.7,0.5-1,0.8c0.2-0.7,0.4-1.3,0.5-2c0.3-1,0.4-2,0.6-3c0.1-0.3,0.1-0.6,0.1-0.9c0-0.2,0.1-0.4,0.1-0.6
			c0-0.2,0-0.5-0.1-0.7c0.2-0.2,0.4-0.4,0.7-0.5c0.4-0.1,0.8-0.2,1.3-0.2c0.2,0,0.3,0,0.5,0c0.2,0,0.4,0,0.6,0.1
			C304.7,532.9,301.9,535.7,300.7,536.8z"/>
		<path d="M267.9,541c0,0,0.1,0,0.1,0c0.1,0.7,0.2,1.3,0.5,2c0.9,1.9,2.5,3.2,4.6,3.6c0.5,0.1,1,0.1,1.5,0.1c0.6,0,1.1,0,1.8-0.1
			c1.2-0.2,2.1-0.6,2.9-1.3c1.2-1,1.9-2.6,2.1-4.7c0.2-1.8,0.2-3.5,0.2-5.2c0.6,0,1.2-0.1,1.8-0.1c1.5,0,3,0.2,4.5,0.5
			c0.1,0,0.3,0,0.4,0c1,0,1.9-0.8,2-1.8c0.1-1-0.5-1.9-1.6-2.2c-1.8-0.4-3.6-0.6-5.5-0.6c-4.6,0-9.2,1.2-13.1,3.3
			c-0.8,0.4-1.5,0.9-2.2,1.4c-0.7,0.5-2,1.4-2,3.1C265.9,540.1,266.8,541,267.9,541z M275.7,536.5c0.6-0.2,1.3-0.4,1.9-0.6
			c0,1,0,2-0.1,3c-0.1,1.1-0.2,2.3-0.7,3c-0.2,0.4-0.7,0.7-2.3,0.7c-0.6,0-1-0.1-1.4-0.3c-0.3-0.2-0.5-0.4-0.7-0.7
			c-0.6-1-0.4-2.2-0.1-3.7C273.3,537.4,274.4,536.9,275.7,536.5z"/>
		<path d="M222,540.3c0.1,0,0.2,0,0.4,0c1.8-0.3,3.7-0.5,5.5-0.5c0.2,0,0.4,0,0.7,0c-0.3,1.1-0.4,2.3-0.2,3.6c0.2,1.6,1.2,3.1,2.5,4
			c1.4,1,2.9,1.1,3.9,1.1c0.4,0,0.7,0,1.2-0.1c1.2-0.1,3.6-0.2,4.6-2.3c0.5-1,0.5-2,0.5-2.8l0-0.3c0-0.1,0-0.2,0-0.3
			c0.2,0.1,0.4,0.1,0.5,0.2c0.3,0.1,0.6,0.2,0.9,0.2c0.9,0,1.8-0.7,2-1.6c0.2-0.9-0.2-1.8-1.1-2.2c-4.8-2.4-10.2-3.6-15.6-3.6
			c-0.4,0-0.9,0-1.3,0c-1.6,0.1-3.3,0.2-5,0.6c-1,0.2-1.7,1.1-1.6,2.1C220.1,539.4,220.9,540.3,222,540.3z M237.1,542.3
			c0,0.6,0,1.3-0.1,1.9c-0.3,0.1-0.6,0.1-0.9,0.2c-0.5,0-0.9,0.1-1.3,0.1c-0.7,0-1.1-0.1-1.4-0.3c-0.4-0.2-0.8-0.8-0.9-1.4
			c-0.2-0.8,0-1.8,0.3-2.7c1.5,0.2,3,0.6,4.4,1C237.1,541.5,237.1,541.9,237.1,542.3z"/>
		<path d="M251.5,546.3c0,0.8,0,1.7,0,2.6c0,0.9,0,1.8,0.1,2.8c0.1,2.3,0.7,4.1,1.8,5.5c1.2,1.7,3.2,2.7,5.1,2.8c0.1,0,0.2,0,0.3,0
			c2.1,0,4.5-1.2,5-3.6c0.1-0.6,0-1.2-0.4-1.7c-0.4-0.5-1-0.8-1.6-0.8c-0.9,0-1.7,0.6-1.9,1.5c-0.1,0.3-0.7,0.5-1.2,0.5l-0.1,0
			c-0.8-0.1-1.6-0.6-2.1-1.4c-0.5-0.9-0.8-2-0.9-3.6c0-0.7,0-1.3,0-2c0-1,0-1.9-0.1-2.9c-0.1-2-0.4-4-0.9-6c-0.3-0.9-1-1.5-1.9-1.5
			c-0.6,0-1.2,0.3-1.6,0.8c-0.4,0.5-0.5,1.1-0.4,1.7C251.1,542.8,251.4,544.6,251.5,546.3z"/>
		<path d="M253.1,566.1c-1,0.2-1.7,1-1.6,2.1c0.1,1.1,1,1.9,2.1,1.9c0.1,0,0.2,0,0.4,0c4.4-0.8,8.5-2.3,12.1-4.2
			c1.3-0.7,2.2-1.3,3.1-1.8c0.8-0.5,1.1-1.4,0.8-2.3c-0.3-0.9-1-1.5-1.9-1.5c-0.4,0-0.8,0.1-1.1,0.3c-3.2,2.1-6.7,3.7-10.5,4.8
			C255.2,565.7,254.1,565.9,253.1,566.1z"/>
	</g>
	<g>
		<path d="M331,495.7c0-0.8,0.3-1.5,0.8-1.9c0.5-0.4,1.1-0.7,1.8-0.7H358c1.4,0,2.6,0.2,3.4,0.5c0.8,0.3,1.5,0.8,1.8,1.3
			c0.4,0.5,0.6,1.2,0.7,1.9c0.1,0.8,0.1,1.5,0.1,2.4v8.3c0,5.2-0.6,9.7-1.7,13.7c-1.1,4-2.5,7.3-4.1,10c-0.6,1-1.4,1.5-2.3,1.5
			c-1,0-1.8-0.2-2.4-0.8c-0.7-0.5-1-1.2-0.9-1.9c0.1-0.7,0.3-1.5,0.8-2.4c2-3.6,3.3-7,3.9-10.2c0.6-3.2,0.9-6.8,0.9-10.6v-6.6
			c0-0.7-0.1-1.2-0.4-1.4c-0.3-0.2-0.6-0.4-1.1-0.4h-23.2c-0.7,0-1.3-0.2-1.8-0.7C331.2,497.2,331,496.5,331,495.7z M393.2,541.8
			c1.4,0,2.6,0.2,3.5,0.6c0.9,0.4,1.5,1,2,1.6c0.4,0.7,0.7,1.4,0.9,2.2c0.1,0.8,0.2,1.7,0.2,2.5v11.9c0,0.8-0.1,1.7-0.2,2.5
			c-0.1,0.8-0.4,1.6-0.9,2.2c-0.4,0.7-1.1,1.2-2,1.6c-0.9,0.4-2,0.6-3.5,0.6h-51.6c-1.4,0-2.6-0.2-3.5-0.6c-0.9-0.4-1.5-1-2-1.6
			c-0.4-0.7-0.7-1.4-0.9-2.2c-0.1-0.8-0.2-1.7-0.2-2.5v-11.9c0-0.8,0.1-1.7,0.2-2.5c0.1-0.8,0.4-1.6,0.9-2.2c0.4-0.7,1.1-1.2,2-1.6
			c0.9-0.4,2-0.6,3.5-0.6H393.2z M392.3,562.5c0.5,0,0.9-0.1,1.1-0.4c0.3-0.2,0.4-0.7,0.4-1.4v-11.9c0-0.7-0.1-1.2-0.4-1.4
			c-0.3-0.2-0.6-0.4-1.1-0.4h-49.8c-0.5,0-0.9,0.1-1.1,0.4c-0.3,0.2-0.4,0.7-0.4,1.4v11.9c0,0.7,0.1,1.2,0.4,1.4
			c0.3,0.2,0.6,0.4,1.1,0.4H392.3z M393.9,494.7c0-0.9,0.3-1.6,0.8-2c0.5-0.4,1.2-0.7,2.1-0.7c0.8,0,1.5,0.2,2.1,0.7
			c0.6,0.4,0.9,1.1,0.9,2v36c0,0.9-0.3,1.6-0.9,2c-0.6,0.4-1.3,0.7-2.1,0.7c-0.8,0-1.5-0.2-2.1-0.7c-0.5-0.4-0.8-1.1-0.8-2V494.7z"
			/>
		<path d="M439.4,501.6c0,3.1,0.4,5.9,1.1,8.3c0.7,2.4,1.9,4.5,3.3,6.4c1.5,1.9,3.3,3.5,5.5,4.9c2.2,1.4,4.8,2.8,7.6,4
			c1.9,0.8,2.5,2,2.1,3.8c-0.2,0.8-0.7,1.4-1.4,1.8c-0.7,0.4-1.6,0.4-2.7,0c-2-0.6-3.9-1.5-5.8-2.7s-3.6-2.5-5.2-3.9
			c-1.6-1.4-3-2.9-4.2-4.4c-1.2-1.6-2.2-3-2.8-4.4c-0.7,1.6-1.7,3.1-3,4.8c-1.3,1.6-2.7,3.2-4.3,4.6c-1.6,1.5-3.4,2.8-5.3,4
			c-1.9,1.2-4,2.2-6.2,2.9c-1.1,0.4-2,0.4-2.7,0c-0.7-0.4-1.2-1-1.4-1.8c-0.2-0.8-0.2-1.6,0.2-2.3c0.4-0.7,1-1.2,1.8-1.5
			c2.8-1.1,5.3-2.3,7.5-3.8c2.2-1.4,4-3.1,5.5-5c1.5-1.9,2.6-4,3.4-6.5c0.8-2.4,1.2-5.2,1.2-8.3v-7.4c0-0.9,0.3-1.6,0.8-2
			c0.5-0.4,1.2-0.7,2.1-0.7c0.8,0,1.5,0.2,2.1,0.7c0.6,0.4,0.9,1.1,0.9,2V501.6z M487.5,554.9c0,4.5-1.4,7.7-4.3,9.8
			c-2.8,2-7.2,3-13.1,3h-34.2c-5.9,0-10.2-1-13.1-3c-2.8-2-4.3-5.3-4.3-9.8c0-4.5,1.4-7.7,4.3-9.8c2.8-2,7.2-3,13.1-3h34.2
			c5.9,0,10.2,1,13.1,3C486.1,547.2,487.5,550.4,487.5,554.9z M481.7,554.9c0-2.8-0.9-4.8-2.8-5.9c-1.9-1.1-5.2-1.7-9.9-1.7h-31.7
			c-4.7,0-8,0.6-9.9,1.7c-1.9,1.1-2.8,3.1-2.8,5.9s0.9,4.8,2.8,5.9c1.9,1.1,5.2,1.7,9.9,1.7h31.7c4.7,0,8-0.6,9.9-1.7
			C480.7,559.7,481.7,557.7,481.7,554.9z M460.2,512.5c0-0.8,0.3-1.5,0.8-1.9c0.5-0.4,1.1-0.7,1.8-0.7h16.4v-15.2
			c0-0.9,0.3-1.6,0.8-2c0.5-0.4,1.2-0.7,2.1-0.7c0.8,0,1.5,0.2,2.1,0.7c0.6,0.4,0.9,1.1,0.9,2v37.8c0,0.9-0.3,1.6-0.9,2
			c-0.6,0.4-1.3,0.7-2.1,0.7c-0.8,0-1.5-0.2-2.1-0.7c-0.5-0.4-0.8-1.1-0.8-2v-17.4h-16.4c-0.7,0-1.3-0.2-1.8-0.7
			C460.4,514,460.2,513.3,460.2,512.5z"/>
		<path d="M510.5,559.4c0,0.7,0.1,1.2,0.4,1.4c0.3,0.2,0.6,0.4,1.1,0.4h17.1c0.7,0,1.3,0.2,1.8,0.7c0.5,0.4,0.8,1.1,0.8,1.9
			c0,0.8-0.3,1.5-0.8,1.9c-0.5,0.4-1.1,0.7-1.8,0.7h-18c-1.4,0-2.6-0.2-3.5-0.6c-0.9-0.4-1.5-1-2-1.6c-0.4-0.7-0.7-1.4-0.9-2.2
			c-0.1-0.8-0.2-1.7-0.2-2.5v-59.3c0-0.8,0.1-1.7,0.2-2.5c0.1-0.8,0.4-1.6,0.9-2.2c0.4-0.7,1.1-1.2,2-1.6c0.9-0.4,2-0.6,3.5-0.6
			h16.2c0.7,0,1.3,0.2,1.8,0.7c0.5,0.4,0.8,1.1,0.8,1.9c0,0.8-0.3,1.5-0.8,1.9c-0.5,0.4-1.1,0.7-1.8,0.7H512c-0.5,0-0.9,0.1-1.1,0.4
			c-0.3,0.2-0.4,0.7-0.4,1.4v26.7h16.7c0.7,0,1.3,0.2,1.8,0.7c0.5,0.4,0.8,1.1,0.8,1.9c0,0.8-0.3,1.5-0.8,1.9
			c-0.5,0.4-1.1,0.7-1.8,0.7h-16.7V559.4z M547,494.7c0-0.9,0.3-1.6,0.8-2s1.2-0.7,2.1-0.7s1.5,0.2,2.1,0.7c0.6,0.4,0.9,1.1,0.9,2
			v30.7h13.7v-30.7c0-0.9,0.3-1.6,0.8-2s1.2-0.7,2.1-0.7c0.8,0,1.5,0.2,2.1,0.7s0.9,1.1,0.9,2v71.8c0,0.9-0.3,1.6-0.9,2
			c-0.6,0.5-1.3,0.7-2.1,0.7c-0.8,0-1.5-0.2-2.1-0.7c-0.5-0.4-0.8-1.1-0.8-2v-35.9h-13.7v35.9c0,0.9-0.3,1.6-0.9,2
			c-0.6,0.5-1.3,0.7-2.1,0.7s-1.5-0.2-2.1-0.7c-0.5-0.4-0.8-1.1-0.8-2V494.7z"/>
	</g>
	<path class="st3" d="M329,422.4c23-14.9,61-21,121-13s106-2.6,116-1.8s35,4.8,28,41.8s-102.4,6.1-132.4,6s-81.6,18-113.6-6.1
		c-14.9-9-29.9,13.7-29.9,13.7S306,437.2,329,422.4z"/>
	<g>
		<g>
			<path class="st1" d="M355.7,439c0.8,0,1.5-0.1,2-0.2c0.5-0.1,0.9-0.3,1.2-0.5c0.3-0.2,0.4-0.4,0.5-0.7c0.1-0.3,0.1-0.5,0.1-0.8
				c0-0.5-0.1-0.9-0.3-1.2c-0.2-0.3-0.5-0.5-0.9-0.7c-0.4-0.2-0.9-0.3-1.4-0.5c-0.6-0.1-1.2-0.3-1.9-0.5c-0.5-0.1-1.1-0.3-1.6-0.5
				c-0.6-0.2-1.1-0.4-1.5-0.7c-0.4-0.3-0.8-0.6-1.1-1c-0.3-0.4-0.4-0.9-0.4-1.5c0-0.4,0.1-0.9,0.3-1.3c0.2-0.4,0.5-0.8,1-1.1
				c0.4-0.3,1-0.6,1.7-0.8c0.7-0.2,1.6-0.3,2.6-0.3c0.9,0,1.7,0.1,2.4,0.2c0.7,0.1,1.3,0.3,1.8,0.6c0.2,0.1,0.3,0.3,0.5,0.4
				c0.1,0.2,0.1,0.4,0,0.7c-0.1,0.2-0.2,0.3-0.5,0.4c-0.2,0-0.5,0-0.8-0.1c-0.4-0.1-0.9-0.2-1.4-0.4c-0.5-0.1-1.2-0.2-2-0.2
				c-0.8,0-1.4,0-1.9,0.1c-0.5,0.1-0.9,0.2-1.2,0.4c-0.3,0.2-0.5,0.4-0.6,0.6s-0.2,0.5-0.2,0.7c0,0.4,0.1,0.7,0.3,1
				c0.2,0.3,0.5,0.5,0.9,0.7c0.4,0.2,0.8,0.4,1.4,0.5c0.5,0.2,1.2,0.3,1.9,0.5c0.5,0.1,1.1,0.3,1.6,0.5c0.6,0.2,1.1,0.5,1.5,0.8
				c0.5,0.3,0.8,0.7,1.1,1.2c0.3,0.5,0.4,1,0.4,1.7c0,1.1-0.5,1.9-1.4,2.6c-0.9,0.7-2.3,1-4.2,1c-1.2,0-2.3-0.1-3.3-0.4
				c-0.9-0.3-1.7-0.6-2.2-1c-0.1-0.1-0.2-0.2-0.3-0.5c0-0.2,0-0.4,0.1-0.6c0.1-0.2,0.3-0.4,0.5-0.4c0.2,0,0.4,0,0.5,0.1
				c0.3,0.2,0.6,0.3,0.9,0.5s0.6,0.3,1,0.4c0.4,0.1,0.8,0.2,1.2,0.3C354.6,439,355.1,439,355.7,439z"/>
			<path class="st1" d="M365.1,423.6c0-0.4,0.2-0.8,0.5-1c0.3-0.3,0.7-0.4,1.2-0.4c0.4,0,0.8,0.1,1.1,0.4c0.3,0.3,0.5,0.6,0.5,1
				c0,0.4-0.2,0.8-0.5,1.1c-0.3,0.3-0.7,0.4-1.1,0.4c-0.5,0-0.8-0.1-1.2-0.4C365.3,424.4,365.1,424,365.1,423.6z M365.9,427.6
				c0-0.3,0.1-0.5,0.3-0.6c0.2-0.1,0.4-0.2,0.6-0.2c0.2,0,0.5,0.1,0.6,0.2c0.2,0.1,0.3,0.3,0.3,0.6v11.6c0,0.3-0.1,0.5-0.3,0.6
				c-0.2,0.1-0.4,0.2-0.6,0.2c-0.3,0-0.5-0.1-0.6-0.2c-0.2-0.1-0.3-0.3-0.3-0.6V427.6z"/>
			<path class="st1" d="M384.2,431.2c-0.1-0.6-0.4-1.1-0.7-1.6c-0.3-0.4-0.8-0.8-1.4-1c-0.6-0.2-1.4-0.3-2.3-0.3
				c-0.8,0-1.5,0.1-2,0.3c-0.6,0.2-1,0.5-1.4,0.9c-0.4,0.4-0.6,0.8-0.8,1.2c-0.2,0.5-0.3,0.9-0.3,1.4v7.1c0,0.3-0.1,0.5-0.3,0.6
				c-0.2,0.1-0.4,0.2-0.6,0.2c-0.3,0-0.5-0.1-0.6-0.2c-0.2-0.1-0.2-0.3-0.2-0.6v-11.5c0-0.3,0.1-0.5,0.2-0.6s0.4-0.2,0.6-0.2
				c0.2,0,0.5,0.1,0.6,0.2c0.2,0.1,0.3,0.3,0.3,0.6v0.8c0.5-0.6,1.1-1,1.9-1.3c0.7-0.3,1.6-0.5,2.6-0.5c2.1,0,3.7,0.6,4.8,1.7
				c1.1,1.1,1.6,2.7,1.6,4.8v6c0,0.3-0.1,0.5-0.3,0.6c-0.2,0.1-0.4,0.2-0.6,0.2c-0.3,0-0.5-0.1-0.6-0.2c-0.2-0.1-0.2-0.3-0.2-0.6v-6
				C384.4,432.5,384.4,431.8,384.2,431.2z"/>
			<path class="st1" d="M397.8,440.5c-1.2,0-2.2-0.1-3-0.4c-0.8-0.3-1.5-0.6-2.1-1.1c-0.6-0.5-1-1-1.3-1.6s-0.5-1.3-0.5-2.1
				c0-0.6-0.1-1.1-0.1-1.6c0-0.5,0-1,0.1-1.5c0-0.8,0.2-1.5,0.5-2.2c0.3-0.7,0.7-1.2,1.3-1.7c0.6-0.5,1.3-0.9,2.1-1.2
				c0.8-0.3,1.8-0.4,3-0.4c1,0,1.9,0.1,2.6,0.4c0.7,0.3,1.3,0.6,1.6,0.8c0.4,0.3,0.5,0.6,0.3,1c-0.1,0.2-0.2,0.3-0.4,0.4
				c-0.2,0.1-0.4,0-0.6-0.1c-0.2-0.1-0.4-0.2-0.6-0.3c-0.2-0.1-0.4-0.2-0.7-0.3c-0.3-0.1-0.6-0.2-0.9-0.3c-0.3-0.1-0.8-0.1-1.2-0.1
				c-1.7,0-3,0.3-3.8,1c-0.8,0.7-1.3,1.6-1.4,2.9c-0.1,1-0.1,2,0,3c0.1,0.6,0.2,1.1,0.4,1.6c0.2,0.5,0.5,0.9,0.9,1.2
				c0.4,0.3,1,0.6,1.6,0.7s1.5,0.2,2.4,0.2c0.5,0,0.9,0,1.3-0.1c0.4-0.1,0.7-0.2,1-0.3c0.3-0.1,0.5-0.3,0.8-0.4
				c0.2-0.1,0.4-0.2,0.6-0.3c0.2-0.1,0.4-0.1,0.5-0.1s0.3,0.1,0.5,0.3c0.1,0.2,0.2,0.4,0.1,0.6c-0.1,0.2-0.1,0.3-0.3,0.4
				c-0.2,0.2-0.4,0.3-0.7,0.5c-0.3,0.2-0.6,0.3-1,0.5c-0.4,0.1-0.9,0.3-1.4,0.3S398.4,440.5,397.8,440.5z"/>
			<path class="st1" d="M412.7,426.8c1,0,1.8,0.1,2.6,0.4c0.8,0.3,1.5,0.7,2,1.2c0.6,0.5,1,1.1,1.3,1.7c0.3,0.7,0.5,1.4,0.5,2.1
				c0,0.5,0,0.9-0.1,1.2c-0.1,0.3-0.2,0.5-0.3,0.7c-0.2,0.2-0.3,0.3-0.6,0.3c-0.2,0-0.5,0.1-0.8,0.1h-9.3c0,1.6,0.4,2.7,1.2,3.5
				s2,1.1,3.7,1.1c0.9,0,1.7-0.1,2.3-0.3c0.6-0.2,1.3-0.5,2-0.8c0.2-0.2,0.5-0.2,0.7-0.1c0.2,0.1,0.4,0.2,0.5,0.4
				c0.1,0.3,0.1,0.5,0,0.7c-0.1,0.2-0.2,0.3-0.3,0.3c-0.5,0.4-1.2,0.7-2,0.9s-1.9,0.4-3.1,0.4c-1.1,0-2.1-0.1-2.9-0.4
				c-0.8-0.3-1.5-0.6-2-1.1c-0.5-0.5-1-1-1.3-1.7c-0.3-0.7-0.5-1.4-0.6-2.2c0-0.5-0.1-1.1-0.1-1.6s0-1,0.1-1.4
				c0.1-0.7,0.2-1.4,0.5-2c0.3-0.6,0.7-1.2,1.2-1.7c0.5-0.5,1.2-0.9,2-1.2C410.7,427,411.6,426.8,412.7,426.8z M416.8,432.9
				c0.3,0,0.4,0,0.5-0.1c0.1-0.1,0.2-0.3,0.2-0.5c0-1.2-0.4-2.1-1.2-2.8s-2-1-3.6-1c-0.7,0-1.3,0.1-1.9,0.3
				c-0.6,0.2-1.1,0.4-1.5,0.8s-0.7,0.8-1,1.4c-0.2,0.6-0.4,1.3-0.4,2.1H416.8z"/>
			<path class="st2" d="M442.3,431.3c-0.1-0.6-0.4-1.1-0.7-1.6c-0.3-0.4-0.8-0.8-1.4-1c-0.6-0.2-1.4-0.3-2.3-0.3
				c-0.8,0-1.5,0.1-2,0.3c-0.6,0.2-1,0.5-1.4,0.9s-0.6,0.8-0.8,1.2c-0.2,0.5-0.3,0.9-0.3,1.4v7c0,0.3-0.1,0.5-0.3,0.6
				c-0.2,0.1-0.4,0.2-0.6,0.2c-0.3,0-0.5-0.1-0.6-0.2c-0.2-0.1-0.2-0.3-0.2-0.6v-18.3c0-0.3,0.1-0.5,0.2-0.6s0.4-0.2,0.6-0.2
				c0.2,0,0.5,0.1,0.6,0.2c0.2,0.1,0.3,0.3,0.3,0.6v7.7c0.5-0.6,1.1-1,1.9-1.3c0.7-0.3,1.6-0.5,2.6-0.5c2.1,0,3.7,0.6,4.8,1.7
				c1.1,1.1,1.6,2.7,1.6,4.8v5.9c0,0.3-0.1,0.5-0.3,0.6c-0.2,0.1-0.4,0.2-0.6,0.2c-0.3,0-0.5-0.1-0.6-0.2c-0.2-0.1-0.2-0.3-0.2-0.6
				v-5.9C442.5,432.5,442.5,431.9,442.3,431.3z"/>
			<path class="st2" d="M455.6,426.8c1,0,1.8,0.1,2.6,0.4c0.8,0.3,1.5,0.7,2,1.2c0.6,0.5,1,1.1,1.3,1.7c0.3,0.7,0.5,1.4,0.5,2.1
				c0,0.5,0,0.9-0.1,1.2c-0.1,0.3-0.2,0.5-0.3,0.7c-0.2,0.2-0.3,0.3-0.6,0.3c-0.2,0-0.5,0.1-0.8,0.1h-9.3c0,1.6,0.4,2.7,1.2,3.5
				s2,1.1,3.7,1.1c0.9,0,1.7-0.1,2.3-0.3c0.6-0.2,1.3-0.5,2-0.8c0.2-0.2,0.5-0.2,0.7-0.1c0.2,0.1,0.4,0.2,0.5,0.4
				c0.1,0.3,0.1,0.5,0,0.7c-0.1,0.2-0.2,0.3-0.3,0.3c-0.5,0.4-1.2,0.7-2,0.9s-1.9,0.4-3.1,0.4c-1.1,0-2.1-0.1-2.9-0.4
				c-0.8-0.3-1.5-0.6-2-1.1c-0.5-0.5-1-1-1.3-1.7c-0.3-0.7-0.5-1.4-0.6-2.2c0-0.5-0.1-1.1-0.1-1.6s0-1,0.1-1.4
				c0.1-0.7,0.2-1.4,0.5-2c0.3-0.6,0.7-1.2,1.2-1.7c0.5-0.5,1.2-0.9,2-1.2C453.6,427,454.5,426.8,455.6,426.8z M459.7,432.9
				c0.3,0,0.4,0,0.5-0.1c0.1-0.1,0.2-0.3,0.2-0.5c0-1.2-0.4-2.1-1.2-2.8s-2-1-3.6-1c-0.7,0-1.3,0.1-1.9,0.3
				c-0.6,0.2-1.1,0.4-1.5,0.8s-0.7,0.8-1,1.4c-0.2,0.6-0.4,1.3-0.4,2.1H459.7z"/>
			<path class="st2" d="M467,420.9c0-0.3,0.1-0.5,0.2-0.6c0.2-0.1,0.4-0.2,0.6-0.2c0.2,0,0.5,0.1,0.6,0.2s0.3,0.3,0.3,0.6v18.4
				c0,0.3-0.1,0.5-0.3,0.6c-0.2,0.1-0.4,0.2-0.6,0.2c-0.3,0-0.5-0.1-0.6-0.2c-0.2-0.1-0.2-0.3-0.2-0.6V420.9z"/>
			<path class="st2" d="M474.9,420.9c0-0.3,0.1-0.5,0.2-0.6c0.2-0.1,0.4-0.2,0.6-0.2c0.2,0,0.5,0.1,0.6,0.2s0.3,0.3,0.3,0.6v18.4
				c0,0.3-0.1,0.5-0.3,0.6c-0.2,0.1-0.4,0.2-0.6,0.2c-0.3,0-0.5-0.1-0.6-0.2c-0.2-0.1-0.2-0.3-0.2-0.6V420.9z"/>
			<path class="st2" d="M488.3,426.8c1.9,0,3.4,0.5,4.5,1.5c1.1,1,1.7,2.3,1.9,4c0,0.4,0.1,0.9,0.1,1.4s0,1-0.1,1.4
				c-0.1,1.7-0.7,3-1.7,4c-1,1-2.6,1.5-4.7,1.5c-1.1,0-2-0.1-2.7-0.4c-0.8-0.3-1.4-0.6-1.9-1.1c-0.5-0.5-0.9-1-1.2-1.7
				c-0.3-0.7-0.5-1.4-0.5-2.2c0-0.4-0.1-0.9-0.1-1.4s0-1,0.1-1.4c0.1-1.7,0.7-3,1.8-4S486.3,426.8,488.3,426.8z M492.9,431.7
				c-0.1-1-0.5-1.8-1.3-2.4c-0.7-0.6-1.9-0.9-3.3-0.9c-0.7,0-1.4,0.1-1.9,0.3c-0.5,0.2-1,0.4-1.4,0.7s-0.7,0.6-0.9,1
				c-0.2,0.4-0.4,0.8-0.4,1.3c-0.1,0.6-0.1,1.3-0.1,2c0,0.7,0,1.3,0.1,1.9c0.1,0.5,0.2,1,0.4,1.4c0.2,0.4,0.5,0.8,0.8,1.1
				s0.8,0.5,1.4,0.7s1.2,0.3,2,0.3c0.8,0,1.4-0.1,2-0.3s1-0.4,1.4-0.7c0.4-0.3,0.6-0.7,0.8-1.1c0.2-0.4,0.3-0.9,0.4-1.4
				c0.1-0.6,0.1-1.3,0.1-2S493,432.3,492.9,431.7z"/>
			<path class="st2" d="M513.9,438.9c0.3,0,0.4-0.1,0.5-0.3l3.7-11.1c0.1-0.3,0.3-0.5,0.5-0.6c0.2-0.1,0.4-0.1,0.7,0
				c0.2,0,0.3,0.1,0.5,0.3c0.2,0.2,0.2,0.5,0.1,0.9l-3.7,10.8c-0.1,0.2-0.1,0.4-0.2,0.5c-0.1,0.2-0.2,0.3-0.3,0.5
				c-0.2,0.2-0.4,0.3-0.6,0.4c-0.3,0.1-0.6,0.1-1,0.1s-0.7,0-1-0.1c-0.3-0.1-0.5-0.2-0.6-0.4c-0.2-0.1-0.3-0.3-0.3-0.5
				c-0.1-0.2-0.1-0.4-0.2-0.5l-2.9-8.7L506,439c-0.1,0.2-0.1,0.4-0.2,0.5c-0.1,0.2-0.2,0.3-0.3,0.5c-0.2,0.1-0.4,0.3-0.6,0.4
				c-0.3,0.1-0.6,0.1-1,0.1c-0.4,0-0.7,0-1-0.1c-0.3-0.1-0.5-0.2-0.6-0.4c-0.2-0.2-0.3-0.3-0.3-0.5c-0.1-0.2-0.1-0.4-0.2-0.5
				l-3.7-10.8c-0.1-0.4-0.1-0.7,0.1-0.9c0.2-0.2,0.3-0.3,0.5-0.3c0.3-0.1,0.5-0.1,0.7,0s0.4,0.3,0.5,0.6l3.7,11.1
				c0.1,0.2,0.2,0.3,0.5,0.3c0.1,0,0.2,0,0.3-0.1c0.1-0.1,0.1-0.1,0.1-0.2l3.7-11.1c0.1-0.2,0.2-0.4,0.4-0.5s0.3-0.1,0.6-0.1
				c0.2,0,0.4,0,0.6,0.1s0.3,0.3,0.4,0.5l3.7,11.1c0,0.1,0.1,0.2,0.1,0.2S513.8,438.9,513.9,438.9z"/>
			<path class="st2" d="M529.8,426.8c1.9,0,3.4,0.5,4.5,1.5c1.1,1,1.7,2.3,1.9,4c0,0.4,0.1,0.9,0.1,1.4s0,1-0.1,1.4
				c-0.1,1.7-0.7,3-1.7,4c-1,1-2.6,1.5-4.7,1.5c-1.1,0-2-0.1-2.7-0.4c-0.8-0.3-1.4-0.6-1.9-1.1c-0.5-0.5-0.9-1-1.2-1.7
				c-0.3-0.7-0.5-1.4-0.5-2.2c0-0.4-0.1-0.9-0.1-1.4s0-1,0.1-1.4c0.1-1.7,0.7-3,1.8-4S527.7,426.8,529.8,426.8z M534.4,431.7
				c-0.1-1-0.5-1.8-1.3-2.4c-0.7-0.6-1.9-0.9-3.3-0.9c-0.7,0-1.4,0.1-1.9,0.3c-0.5,0.2-1,0.4-1.4,0.7s-0.7,0.6-0.9,1
				c-0.2,0.4-0.4,0.8-0.4,1.3c-0.1,0.6-0.1,1.3-0.1,2c0,0.7,0,1.3,0.1,1.9c0.1,0.5,0.2,1,0.4,1.4c0.2,0.4,0.5,0.8,0.8,1.1
				s0.8,0.5,1.4,0.7s1.2,0.3,2,0.3c0.8,0,1.4-0.1,2-0.3s1-0.4,1.4-0.7c0.4-0.3,0.6-0.7,0.8-1.1c0.2-0.4,0.3-0.9,0.4-1.4
				c0.1-0.6,0.1-1.3,0.1-2S534.4,432.3,534.4,431.7z"/>
			<path class="st2" d="M545.4,428.9c-0.6,0.3-1,0.7-1.4,1.2s-0.6,1-0.8,1.5c-0.2,0.6-0.2,1.1-0.2,1.6v6.1c0,0.3-0.1,0.5-0.3,0.6
				c-0.2,0.1-0.4,0.2-0.6,0.2c-0.3,0-0.5-0.1-0.6-0.2c-0.2-0.1-0.2-0.3-0.2-0.6v-11.5c0-0.3,0.1-0.5,0.2-0.6s0.4-0.2,0.6-0.2
				c0.2,0,0.5,0.1,0.6,0.2c0.2,0.1,0.3,0.3,0.3,0.6v1c0.5-0.6,1-1.1,1.7-1.4c0.7-0.3,1.5-0.5,2.5-0.5h3c0.2,0,0.4,0.1,0.5,0.2
				c0.2,0.1,0.2,0.3,0.2,0.6s-0.1,0.4-0.2,0.6c-0.2,0.1-0.3,0.2-0.5,0.2h-2.8C546.6,428.4,545.9,428.5,545.4,428.9z"/>
			<path class="st2" d="M554.7,420.9c0-0.3,0.1-0.5,0.2-0.6c0.2-0.1,0.4-0.2,0.6-0.2c0.2,0,0.5,0.1,0.6,0.2s0.3,0.3,0.3,0.6v18.4
				c0,0.3-0.1,0.5-0.3,0.6c-0.2,0.1-0.4,0.2-0.6,0.2c-0.3,0-0.5-0.1-0.6-0.2c-0.2-0.1-0.2-0.3-0.2-0.6V420.9z"/>
			<path class="st2" d="M568,426.8c1,0,1.9,0.2,2.6,0.5c0.8,0.3,1.4,0.7,2,1.3v-7.6c0-0.3,0.1-0.5,0.2-0.6s0.4-0.2,0.6-0.2
				c0.2,0,0.5,0.1,0.6,0.2c0.2,0.1,0.3,0.3,0.3,0.6v18.3c0,0.3-0.1,0.5-0.3,0.6c-0.2,0.1-0.4,0.2-0.6,0.2c-0.3,0-0.5-0.1-0.6-0.2
				c-0.2-0.1-0.2-0.3-0.2-0.6V439c-0.5,0.5-1.2,0.8-1.9,1.1s-1.6,0.4-2.7,0.4c-1.1,0-2-0.1-2.7-0.4c-0.8-0.3-1.4-0.6-1.9-1.1
				s-0.9-1-1.1-1.7c-0.3-0.7-0.4-1.4-0.5-2.2c0-0.4-0.1-0.9-0.1-1.4s0-1,0.1-1.4c0.1-1.7,0.7-3,1.7-4S566,426.8,568,426.8z
				 M572.5,431.7c-0.1-0.4-0.2-0.8-0.4-1.2c-0.2-0.4-0.5-0.8-0.8-1.1s-0.8-0.6-1.4-0.7c-0.5-0.2-1.2-0.3-1.9-0.3
				c-0.7,0-1.4,0.1-1.9,0.3c-0.5,0.2-1,0.4-1.3,0.7c-0.3,0.3-0.6,0.6-0.8,1c-0.2,0.4-0.3,0.8-0.4,1.3c-0.1,0.6-0.1,1.3-0.1,2
				c0,0.7,0,1.3,0.1,1.9c0.1,0.5,0.2,1,0.3,1.4c0.2,0.4,0.4,0.8,0.8,1.1s0.8,0.5,1.3,0.7s1.2,0.3,2,0.3c0.8,0,1.4-0.1,1.9-0.3
				c0.5-0.2,1-0.5,1.3-0.8c0.3-0.3,0.6-0.7,0.8-1.1c0.2-0.4,0.3-0.8,0.4-1.3c0-0.1,0-0.2,0.1-0.5c0-0.3,0-0.6,0-1c0-0.4,0-0.8,0-1.2
				C572.6,432.5,572.5,432.1,572.5,431.7z"/>
		</g>
	</g>
</g>
<g>
	<g>
		<g>
			<path class="st4" d="M309.7,698.2c-0.1-0.4-0.3-0.9-0.4-1.3c0.3,0.1,0.6,0.2,0.9,0.2c0.6,0,1.1-0.2,1.5-0.6l0.8-0.1l-0.3-1.8
				c-0.4-3.6-1-7.5-2.1-11.1c-1.3-4.2-3.4-7.8-6.1-10.5c-3-3-6.7-5.1-10.3-7.2l-0.6-0.4c-2.2-1.3-4.2-2.4-6.1-3.4l-0.8-0.4
				c-1.7-0.9-3.4-1.8-5.3-2.6c-2-0.8-4.2-1.2-6.5-1.2c-0.5,0-1,0-1.5,0.1c-2.6,0.2-5.1,0.8-7.9,1.5l-0.2,0.1
				c-0.9,0.4-1.5,1.3-1.3,2.3c0.2,1,1,1.7,2,1.7c0.2,0,0.3,0,0.5-0.1c2.5-0.6,5.5-1.4,8.4-1.4c1.4,0,2.7,0.2,3.8,0.5
				c1.7,0.5,3.4,1.4,5.1,2.3l0.4,0.2c1.9,1,3.9,2.1,5.9,3.2c2,1.2,3.9,2.2,5.6,3.3c1.4,0.9,3.2,2.1,4.8,3.4c2.6,2.3,4.6,5.2,5.8,8.7
				c0.4,1.1,0.7,2.2,1,3.5c-1-0.7-2.2-1.2-3.4-1.6c-0.2-0.1-0.4-0.1-0.7-0.1c-0.7,0-1.3,0.4-1.7,1c-0.4,0.6-0.4,1.4-0.1,2
				c1.7,3.2,3.2,6.5,4.3,9.9c1.4,4.1,2.2,7.5,2.4,10.5c0.3,3.1-0.1,6.4-1,9.7c-0.8,2.8-2.1,5.8-3.9,9.2c-0.6,1-1.1,2-1.7,3.1
				c0.3-4.4,0.2-8.8-0.2-13.2c-0.2-2.1-0.4-4.2-0.8-6.7c-0.1-1-1-1.7-2-1.7c-0.2,0-0.4,0-0.6,0.1c-0.5,0.1-0.9,0.4-1.2,0.9
				c-0.3,0.4-0.4,1-0.3,1.5c0.6,4,1,8,1.1,12c-2.3-3.2-4-7.2-5.5-12.5c-0.4-1.3-0.7-2.6-1-3.8l-0.2-0.8l0.2-1.7l-1.1,0.1
				c-0.1-0.1-0.2-0.1-0.3-0.2c-0.3-0.1-0.5-0.2-0.8-0.2c-1,0-1.9,0.8-2.1,1.8c-0.6,4.9-2.3,9.7-4.9,14.2c-2.6,4.5-6,8.6-10.2,12.1
				c-0.2,0.2-0.5,0.4-0.7,0.6c1-1.6,1.9-3.3,2.7-5.1c2-4.5,3.4-9.3,4.5-13.4c0.7-2.6,1.4-5.3,1.9-8c0.1-0.6,0-1.2-0.4-1.7
				c-0.4-0.5-1-0.8-1.6-0.8c-0.2,0-0.4,0-0.6,0.1l-1-0.5l-0.4,1.8c-1.2,2.2-2.1,4.5-2.9,6.8c-0.4,1.2-0.9,2.4-1.4,3.6
				c-1.2,2.8-2.9,5.4-5,7.6c-2.1,2.2-4.6,4.1-7.4,5.9c-3.1,1.8-6.3,3.3-9.4,4.5c-2.1,0.7-4,1.3-5.9,1.6c5.1-5.1,9.2-10.9,12-17.1
				c0.1-0.3,0.3-0.6,0.3-0.8c0.1-0.2,0.3-0.4,0.4-0.7c0.2-0.2,0.4-0.5,0.6-0.8c0,0,0-0.1,0.1-0.2c0-0.1,0-0.1,0-0.2
				c0.1-0.3,0.2-0.6,0.3-0.9l0.2-0.5c0.3-0.7,0.4-1.5,0.6-2.1l0.6-2.1l-0.9-0.2c0,0,0,0-0.1-0.1c-0.4-0.4-0.9-0.7-1.5-0.7
				c-0.2,0-0.5,0-0.7,0.1l-0.9-0.2l-0.3,1.5l-0.3,1c-0.5,1.5-1.1,3-1.7,4.5c-1.9,3.1-4.9,5.7-7.2,7.6c-1.3,1-2.4,1.9-3.7,2.6
				c-1.2,0.7-2.6,1.4-4.1,2.2c-2.6,1.2-5.3,2.3-7.9,3.3l-0.4,0.2c1.5-1.2,2.8-2.5,4.1-3.8c3.6-3.8,6.4-8.1,8.3-12.7
				c0.3-0.7,0.5-1.3,0.8-2c0.3-0.2,0.5-0.5,0.7-0.9c0.2-0.4,0.2-0.9,0.3-1.3l0-0.2c0.1-0.6,0.2-1.3,0.3-1.9c0.1-0.6,0.2-1.2,0.3-1.9
				l0.2-1.7l-0.8-0.1c-0.4-0.4-0.9-0.6-1.5-0.6c-0.3,0-0.6,0.1-0.9,0.2L240,705l-0.3,1.8c-0.2,1.2-0.5,2.4-0.8,3.5
				c-1.2,3.1-3.4,6.2-6.5,9c-2,1.8-4.3,3.5-6.5,5.1c-2.3,1.7-4.6,3.1-6.9,4.3c-2.8,1.5-5.7,2.6-8.6,3.4c-0.1,0-0.2,0.1-0.2,0.1
				c-0.2,0-0.4-0.1-0.5-0.1c-0.6,0-1.2,0.3-1.6,0.7c-0.4,0.5-0.6,1-0.5,1.7c0,0.2,0.1,0.4,0.1,0.6c-0.2,0-0.5,0-0.7,0
				c-0.1,0-0.1,0-0.2,0c-2.9-4.5-5.5-9.2-6.7-14.3c-1-4.4-1.1-9-1.1-12.9c0.1-4.6,0.7-8.6,1.8-12c2.2-6.3,6.5-12.3,12.5-17.4
				c5.4-4.6,12.1-8.5,20.1-11.6c4.5-1.8,8.1-2.9,11.5-3.6c2.5-0.5,4.9-0.8,7.2-0.8c1.6,0,3.1,0.1,4.6,0.4c0.9,0.2,1.8,0.4,2.8,0.7
				c0.2,0.1,0.4,0.1,0.6,0.1c1,0,1.8-0.7,2-1.8c0.1-1-0.4-1.9-1.4-2.2c-2.6-0.9-5.5-1.3-8.5-1.3c-5,0-10.5,1.1-17.2,3.6
				c-8.6,3.1-15.9,7-21.9,11.6c-6.8,5.3-11.9,11.6-14.8,18.3c-1.7,3.8-2.7,8-3,12.4c-0.2,2.2-0.2,4.5-0.1,6.9c0.1,2.7,0.2,4.9,0.5,7
				c0.5,4.1,1.8,8.2,4,12.4c1,2,2.2,4,3.4,5.9c-0.5,0.4-0.9,0.8-1.3,1.3c-1.4,1.9-1.7,4.6-0.7,7.1c0.8,2,2.2,3.8,4.3,5.3
				c2.2,1.6,4.7,2.6,6.9,3.4c0.1,0,0.2,0,0.2,0.1c1.4,3.6,3.1,7.2,5,10.7c2.4,4.2,5.3,8.4,8.7,12.4c3.3,3.9,7,7.5,11,10.8
				c4.6,3.9,9,6.7,13.2,8.7c4.6,2.1,9,3.2,13.1,3.2c1.1,0,2.1-0.1,3.1-0.2c1.6-0.2,3-0.7,4.3-1.4c1.4-0.7,2.6-1.8,3.4-2.7
				c1.7-1.7,3.3-3.7,5.3-6.3c3.1-4.1,5.8-8.6,8.5-13.8c2.6-5,4.7-10.2,6.5-14.6c1-2.4,1.9-4.9,2.9-7.4l0.1-0.3
				c0.2,0,0.3-0.1,0.5-0.2c3.1-1.9,7.4-4.6,9.3-9c0.4-1,0.7-2.2,0.8-3.3c0.1-1.4-0.1-2.6-0.6-3.5c-0.8-1.7-2.7-1.9-3.8-2
				c0,0-0.1,0-0.1,0c2.7-4.3,5.1-8.8,6.7-13.7c1.2-3.7,1.7-7.3,1.6-10.9C311.8,706.3,311.1,702.5,309.7,698.2z M206.4,741.3
				c0.3,0.4,0.5,0.8,0.8,1.2c0,0,0.7,0.9,0.9,1.4c0.4,0.5,0.9,0.8,1.5,0.9c0.3,1.2,0.6,2.4,1,3.7c-2.2-1-4.3-2.3-5.4-4.3
				c-0.7-1.2-0.9-2.5-0.5-3.5c0.1-0.3,0.3-0.6,0.6-0.9C205.6,740.3,206,740.8,206.4,741.3z M213.4,739.8c-0.2-0.8-0.5-1.6-1.1-2.3
				c-0.1-0.6-0.2-1.1-0.3-1.7c5-1.4,9.9-3.8,15.1-7.4c-0.5,0.4-1,0.8-1.5,1.2c-2.3,1.8-4.9,3.4-7.6,4.7c-0.7,0.3-1.2,1.1-1.1,1.9
				c0.1,0.9,0.6,1.6,1.5,1.8c0.8,0.2,1.7,0.4,2.7,0.4c2.6,0,5.1-1,7.3-1.8l0.2-0.1c3.1-1.2,6.2-2.4,9.3-3.8c1.8-0.8,3.9-1.8,6.1-3.1
				c-0.5,0.6-1.1,1.2-1.6,1.8c-1.8,1.9-3.6,3.6-5.4,5.1c-0.6,0.5-0.9,1.4-0.6,2.2c0.3,0.8,1.1,1.4,1.9,1.4c0.4,0,0.7,0,1.1,0
				c6.3,0,13.1-2.1,20.8-6.4c3.9-2.2,7.2-4.7,9.8-7.5c-0.7,1.7-1.6,3.4-2.7,5.1c-1.3,1.9-2.7,3.6-4.4,5.1c-0.6,0.5-0.9,1.3-0.6,2.1
				c0.3,0.8,1,1.4,1.8,1.4c0.3,0,0.6,0.1,1,0.1c3.3,0,6.2-1.8,8-3.2c2.2-1.7,4.3-3.6,6.5-6.1c3.9-4.4,6.9-9.3,9-14.7
				c0.1-0.4,0.3-0.8,0.4-1.2c1,3.2,2.5,6.9,4.7,10.3c1.1,1.7,2.4,3.2,3.7,4.4c0,0,0.1,0.1,0.1,0.1c-0.1,1.7-0.2,3.4-0.4,5
				c-0.2,2.3-0.6,4.4-1,6.4c-0.1,0.6,0,1.2,0.4,1.7c0,0,0.1,0.1,0.1,0.1c-0.4,1.6-0.9,3.2-1.4,4.7c-0.7,1.9-1.5,3.9-2.2,5.8
				l-0.7,1.7c-2.2,5.8-4.1,10.2-6,14.2c-2.3,5-4.8,9.4-7.5,13.5c-1.4,2.1-2.9,4.1-4.6,6.2l-0.4,0.5c-1.4,1.7-2.9,3.5-4.8,4.5
				c-1.3,0.7-3,1-5.1,1c-0.6,0-1.2,0-1.8-0.1c-2.3-0.2-4.6-0.7-7.1-1.6c-4.1-1.5-8.1-3.8-12.8-7.3c-4-3.1-7.6-6.4-10.8-9.9
				c-3.3-3.6-6.2-7.5-8.7-11.4c-2.5-3.9-4.6-8.1-6.3-12.5c-1.3-3.3-2.4-7-3.2-11C213.4,740.9,213.5,740.3,213.4,739.8z M300.7,745.5
				c-0.3,0.3-0.7,0.5-1,0.8c0.2-0.7,0.4-1.3,0.5-2c0.3-1,0.4-2,0.6-3c0.1-0.3,0.1-0.6,0.1-0.9c0-0.2,0.1-0.4,0.1-0.6
				c0-0.2,0-0.5-0.1-0.7c0.2-0.2,0.4-0.4,0.7-0.5c0.4-0.1,0.8-0.2,1.3-0.2c0.2,0,0.3,0,0.5,0c0.2,0,0.4,0,0.6,0.1
				C304.7,741.6,301.9,744.4,300.7,745.5z"/>
			<path class="st4" d="M267.9,749.7c0,0,0.1,0,0.1,0c0.1,0.7,0.2,1.3,0.5,2c0.9,1.9,2.5,3.2,4.6,3.6c0.5,0.1,1,0.1,1.5,0.1
				c0.6,0,1.1,0,1.8-0.1c1.2-0.2,2.1-0.6,2.9-1.3c1.2-1,1.9-2.6,2.1-4.7c0.2-1.8,0.2-3.5,0.2-5.2c0.6,0,1.2-0.1,1.8-0.1
				c1.5,0,3,0.2,4.5,0.5c0.1,0,0.3,0,0.4,0c1,0,1.9-0.8,2-1.8c0.1-1-0.5-1.9-1.6-2.2c-1.8-0.4-3.6-0.6-5.5-0.6
				c-4.6,0-9.2,1.2-13.1,3.3c-0.8,0.4-1.5,0.9-2.2,1.4c-0.7,0.5-2,1.4-2,3.1C265.9,748.8,266.8,749.7,267.9,749.7z M275.7,745.1
				c0.6-0.2,1.3-0.4,1.9-0.6c0,1,0,2-0.1,3c-0.1,1.1-0.2,2.3-0.7,3c-0.2,0.4-0.7,0.7-2.3,0.7c-0.6,0-1-0.1-1.4-0.3
				c-0.3-0.2-0.5-0.4-0.7-0.7c-0.6-1-0.4-2.2-0.1-3.7C273.3,746,274.4,745.5,275.7,745.1z"/>
			<path class="st4" d="M222,748.9c0.1,0,0.2,0,0.4,0c1.8-0.3,3.7-0.5,5.5-0.5c0.2,0,0.4,0,0.7,0c-0.3,1.1-0.4,2.3-0.2,3.6
				c0.2,1.6,1.2,3.1,2.5,4c1.4,1,2.9,1.1,3.9,1.1c0.4,0,0.7,0,1.2-0.1c1.2-0.1,3.6-0.2,4.6-2.3c0.5-1,0.5-2,0.5-2.8l0-0.3
				c0-0.1,0-0.2,0-0.3c0.2,0.1,0.4,0.1,0.5,0.2c0.3,0.1,0.6,0.2,0.9,0.2c0.9,0,1.8-0.7,2-1.6c0.2-0.9-0.2-1.8-1.1-2.2
				c-4.8-2.4-10.2-3.6-15.6-3.6c-0.4,0-0.9,0-1.3,0c-1.6,0.1-3.3,0.2-5,0.6c-1,0.2-1.7,1.1-1.6,2.1
				C220.1,748.1,220.9,748.9,222,748.9z M237.1,751c0,0.6,0,1.3-0.1,1.9c-0.3,0.1-0.6,0.1-0.9,0.2c-0.5,0-0.9,0.1-1.3,0.1
				c-0.7,0-1.1-0.1-1.4-0.3c-0.4-0.2-0.8-0.8-0.9-1.4c-0.2-0.8,0-1.8,0.3-2.7c1.5,0.2,3,0.6,4.4,1
				C237.1,750.2,237.1,750.6,237.1,751z"/>
			<path class="st4" d="M251.5,755c0,0.8,0,1.7,0,2.6c0,0.9,0,1.8,0.1,2.8c0.1,2.3,0.7,4.1,1.8,5.5c1.2,1.7,3.2,2.7,5.1,2.8
				c0.1,0,0.2,0,0.3,0c2.1,0,4.5-1.2,5-3.6c0.1-0.6,0-1.2-0.4-1.7c-0.4-0.5-1-0.8-1.6-0.8c-0.9,0-1.7,0.6-1.9,1.5
				c-0.1,0.3-0.7,0.5-1.2,0.5l-0.1,0c-0.8-0.1-1.6-0.6-2.1-1.4c-0.5-0.9-0.8-2-0.9-3.6c0-0.7,0-1.3,0-2c0-1,0-1.9-0.1-2.9
				c-0.1-2-0.4-4-0.9-6c-0.3-0.9-1-1.5-1.9-1.5c-0.6,0-1.2,0.3-1.6,0.8c-0.4,0.5-0.5,1.1-0.4,1.7C251.1,751.5,251.4,753.3,251.5,755
				z"/>
			<path class="st4" d="M253.1,774.8c-1,0.2-1.7,1-1.6,2.1c0.1,1.1,1,1.9,2.1,1.9c0.1,0,0.2,0,0.4,0c4.4-0.8,8.5-2.3,12.1-4.2
				c1.3-0.7,2.2-1.3,3.1-1.8c0.8-0.5,1.1-1.4,0.8-2.3c-0.3-0.9-1-1.5-1.9-1.5c-0.4,0-0.8,0.1-1.1,0.3c-3.2,2.1-6.7,3.7-10.5,4.8
				C255.2,774.3,254.1,774.6,253.1,774.8z"/>
		</g>
	</g>
	<path class="st5" d="M331,704.3c0-0.8,0.3-1.5,0.8-1.9c0.5-0.4,1.1-0.7,1.8-0.7H358c1.4,0,2.6,0.2,3.4,0.5c0.8,0.3,1.5,0.8,1.8,1.3
		c0.4,0.5,0.6,1.2,0.7,1.9c0.1,0.8,0.1,1.5,0.1,2.4v8.3c0,5.2-0.6,9.7-1.7,13.7c-1.1,4-2.5,7.3-4.1,10c-0.6,1-1.4,1.5-2.3,1.5
		c-1,0-1.8-0.2-2.4-0.8c-0.7-0.5-1-1.2-0.9-1.9c0.1-0.7,0.3-1.5,0.8-2.4c2-3.6,3.3-7,3.9-10.2c0.6-3.2,0.9-6.8,0.9-10.6v-6.6
		c0-0.7-0.1-1.2-0.4-1.4c-0.3-0.2-0.6-0.4-1.1-0.4h-23.2c-0.7,0-1.3-0.2-1.8-0.7C331.2,705.8,331,705.2,331,704.3z M393.2,750.4
		c1.4,0,2.6,0.2,3.5,0.6c0.9,0.4,1.5,1,2,1.6c0.4,0.7,0.7,1.4,0.9,2.2c0.1,0.8,0.2,1.7,0.2,2.5v11.9c0,0.8-0.1,1.7-0.2,2.5
		c-0.1,0.8-0.4,1.6-0.9,2.2c-0.4,0.7-1.1,1.2-2,1.6c-0.9,0.4-2,0.6-3.5,0.6h-51.6c-1.4,0-2.6-0.2-3.5-0.6c-0.9-0.4-1.5-1-2-1.6
		c-0.4-0.7-0.7-1.4-0.9-2.2c-0.1-0.8-0.2-1.7-0.2-2.5v-11.9c0-0.8,0.1-1.7,0.2-2.5c0.1-0.8,0.4-1.6,0.9-2.2c0.4-0.7,1.1-1.2,2-1.6
		c0.9-0.4,2-0.6,3.5-0.6H393.2z M392.3,771.1c0.5,0,0.9-0.1,1.1-0.4c0.3-0.2,0.4-0.7,0.4-1.4v-11.9c0-0.7-0.1-1.2-0.4-1.4
		c-0.3-0.2-0.6-0.4-1.1-0.4h-49.8c-0.5,0-0.9,0.1-1.1,0.4c-0.3,0.2-0.4,0.7-0.4,1.4v11.9c0,0.7,0.1,1.2,0.4,1.4
		c0.3,0.2,0.6,0.4,1.1,0.4H392.3z M393.9,703.3c0-0.9,0.3-1.6,0.8-2c0.5-0.4,1.2-0.7,2.1-0.7c0.8,0,1.5,0.2,2.1,0.7
		c0.6,0.4,0.9,1.1,0.9,2v36c0,0.9-0.3,1.6-0.9,2c-0.6,0.4-1.3,0.7-2.1,0.7c-0.8,0-1.5-0.2-2.1-0.7c-0.5-0.4-0.8-1.1-0.8-2V703.3z"/>
	<path class="st6" d="M439.4,710.3c0,3.1,0.4,5.9,1.1,8.3c0.7,2.4,1.9,4.5,3.3,6.4c1.5,1.9,3.3,3.5,5.5,4.9c2.2,1.4,4.8,2.8,7.6,4
		c1.9,0.8,2.5,2,2.1,3.8c-0.2,0.8-0.7,1.4-1.4,1.8c-0.7,0.4-1.6,0.4-2.7,0c-2-0.6-3.9-1.5-5.8-2.7s-3.6-2.5-5.2-3.9
		c-1.6-1.4-3-2.9-4.2-4.4c-1.2-1.6-2.2-3-2.8-4.4c-0.7,1.6-1.7,3.1-3,4.8c-1.3,1.6-2.7,3.2-4.3,4.6c-1.6,1.5-3.4,2.8-5.3,4
		c-1.9,1.2-4,2.2-6.2,2.9c-1.1,0.4-2,0.4-2.7,0c-0.7-0.4-1.2-1-1.4-1.8c-0.2-0.8-0.2-1.6,0.2-2.3c0.4-0.7,1-1.2,1.8-1.5
		c2.8-1.1,5.3-2.3,7.5-3.8c2.2-1.4,4-3.1,5.5-5c1.5-1.9,2.6-4,3.4-6.5c0.8-2.4,1.2-5.2,1.2-8.3v-7.4c0-0.9,0.3-1.6,0.8-2
		c0.5-0.4,1.2-0.7,2.1-0.7c0.8,0,1.5,0.2,2.1,0.7c0.6,0.4,0.9,1.1,0.9,2V710.3z M487.5,763.6c0,4.5-1.4,7.7-4.3,9.8
		c-2.8,2-7.2,3-13.1,3h-34.2c-5.9,0-10.2-1-13.1-3c-2.8-2-4.3-5.3-4.3-9.8c0-4.5,1.4-7.7,4.3-9.8c2.8-2,7.2-3,13.1-3h34.2
		c5.9,0,10.2,1,13.1,3C486.1,755.8,487.5,759.1,487.5,763.6z M481.7,763.6c0-2.8-0.9-4.8-2.8-5.9c-1.9-1.1-5.2-1.7-9.9-1.7h-31.7
		c-4.7,0-8,0.6-9.9,1.7c-1.9,1.1-2.8,3.1-2.8,5.9s0.9,4.8,2.8,5.9c1.9,1.1,5.2,1.7,9.9,1.7h31.7c4.7,0,8-0.6,9.9-1.7
		C480.7,768.3,481.7,766.4,481.7,763.6z M460.2,721.1c0-0.8,0.3-1.5,0.8-1.9c0.5-0.4,1.1-0.7,1.8-0.7h16.4v-15.2
		c0-0.9,0.3-1.6,0.8-2c0.5-0.4,1.2-0.7,2.1-0.7c0.8,0,1.5,0.2,2.1,0.7c0.6,0.4,0.9,1.1,0.9,2v37.8c0,0.9-0.3,1.6-0.9,2
		c-0.6,0.4-1.3,0.7-2.1,0.7c-0.8,0-1.5-0.2-2.1-0.7c-0.5-0.4-0.8-1.1-0.8-2v-17.4h-16.4c-0.7,0-1.3-0.2-1.8-0.7
		C460.4,722.6,460.2,722,460.2,721.1z"/>
	<path class="st7" d="M510.5,768.1c0,0.7,0.1,1.2,0.4,1.4c0.3,0.2,0.6,0.4,1.1,0.4h17.1c0.7,0,1.3,0.2,1.8,0.7
		c0.5,0.4,0.8,1.1,0.8,1.9c0,0.8-0.3,1.5-0.8,1.9c-0.5,0.4-1.1,0.7-1.8,0.7h-18c-1.4,0-2.6-0.2-3.5-0.6c-0.9-0.4-1.5-1-2-1.6
		c-0.4-0.7-0.7-1.4-0.9-2.2c-0.1-0.8-0.2-1.7-0.2-2.5v-59.3c0-0.8,0.1-1.7,0.2-2.5c0.1-0.8,0.4-1.6,0.9-2.2c0.4-0.7,1.1-1.2,2-1.6
		c0.9-0.4,2-0.6,3.5-0.6h16.2c0.7,0,1.3,0.2,1.8,0.7c0.5,0.4,0.8,1.1,0.8,1.9c0,0.8-0.3,1.5-0.8,1.9c-0.5,0.4-1.1,0.7-1.8,0.7H512
		c-0.5,0-0.9,0.1-1.1,0.4c-0.3,0.2-0.4,0.7-0.4,1.4v26.7h16.7c0.7,0,1.3,0.2,1.8,0.7c0.5,0.4,0.8,1.1,0.8,1.9c0,0.8-0.3,1.5-0.8,1.9
		c-0.5,0.4-1.1,0.7-1.8,0.7h-16.7V768.1z M547,703.3c0-0.9,0.3-1.6,0.8-2s1.2-0.7,2.1-0.7s1.5,0.2,2.1,0.7c0.6,0.4,0.9,1.1,0.9,2
		v30.7h13.7v-30.7c0-0.9,0.3-1.6,0.8-2s1.2-0.7,2.1-0.7c0.8,0,1.5,0.2,2.1,0.7s0.9,1.1,0.9,2v71.8c0,0.9-0.3,1.6-0.9,2
		c-0.6,0.5-1.3,0.7-2.1,0.7c-0.8,0-1.5-0.2-2.1-0.7c-0.5-0.4-0.8-1.1-0.8-2v-35.9h-13.7v35.9c0,0.9-0.3,1.6-0.9,2
		c-0.6,0.5-1.3,0.7-2.1,0.7s-1.5-0.2-2.1-0.7c-0.5-0.4-0.8-1.1-0.8-2V703.3z"/>
	<path class="st8" d="M329,631c23-14.9,61-21,121-13s106-2.6,116-1.8c10,0.8,35,4.8,28,41.8s-102.4,6.1-132.4,6S380,682,348,657.9
		c-14.9-9-29.9,13.7-29.9,13.7S306,645.9,329,631z"/>
	<g>
		<path class="st0" d="M355.7,647.7c0.8,0,1.5-0.1,2-0.2c0.5-0.1,0.9-0.3,1.2-0.5c0.3-0.2,0.4-0.4,0.5-0.7c0.1-0.3,0.1-0.5,0.1-0.8
			c0-0.5-0.1-0.9-0.3-1.2c-0.2-0.3-0.5-0.5-0.9-0.7c-0.4-0.2-0.9-0.3-1.4-0.5c-0.6-0.1-1.2-0.3-1.9-0.5c-0.5-0.1-1.1-0.3-1.6-0.5
			c-0.6-0.2-1.1-0.4-1.5-0.7c-0.4-0.3-0.8-0.6-1.1-1c-0.3-0.4-0.4-0.9-0.4-1.5c0-0.4,0.1-0.9,0.3-1.3c0.2-0.4,0.5-0.8,1-1.1
			c0.4-0.3,1-0.6,1.7-0.8c0.7-0.2,1.6-0.3,2.6-0.3c0.9,0,1.7,0.1,2.4,0.2c0.7,0.1,1.3,0.3,1.8,0.6c0.2,0.1,0.3,0.3,0.5,0.4
			c0.1,0.2,0.1,0.4,0,0.7c-0.1,0.2-0.2,0.3-0.5,0.4c-0.2,0-0.5,0-0.8-0.1c-0.4-0.1-0.9-0.2-1.4-0.4c-0.5-0.1-1.2-0.2-2-0.2
			c-0.8,0-1.4,0-1.9,0.1c-0.5,0.1-0.9,0.2-1.2,0.4c-0.3,0.2-0.5,0.4-0.6,0.6s-0.2,0.5-0.2,0.7c0,0.4,0.1,0.7,0.3,1
			c0.2,0.3,0.5,0.5,0.9,0.7c0.4,0.2,0.8,0.4,1.4,0.5c0.5,0.2,1.2,0.3,1.9,0.5c0.5,0.1,1.1,0.3,1.6,0.5c0.6,0.2,1.1,0.5,1.5,0.8
			c0.5,0.3,0.8,0.7,1.1,1.2c0.3,0.5,0.4,1,0.4,1.7c0,1.1-0.5,1.9-1.4,2.6c-0.9,0.7-2.3,1-4.2,1c-1.2,0-2.3-0.1-3.3-0.4
			c-0.9-0.3-1.7-0.6-2.2-1c-0.1-0.1-0.2-0.2-0.3-0.5c0-0.2,0-0.4,0.1-0.6c0.1-0.2,0.3-0.4,0.5-0.4c0.2,0,0.4,0,0.5,0.1
			c0.3,0.2,0.6,0.3,0.9,0.5s0.6,0.3,1,0.4c0.4,0.1,0.8,0.2,1.2,0.3C354.6,647.6,355.1,647.7,355.7,647.7z"/>
		<path class="st0" d="M365.1,632.2c0-0.4,0.2-0.8,0.5-1c0.3-0.3,0.7-0.4,1.2-0.4c0.4,0,0.8,0.1,1.1,0.4c0.3,0.3,0.5,0.6,0.5,1
			c0,0.4-0.2,0.8-0.5,1.1c-0.3,0.3-0.7,0.4-1.1,0.4c-0.5,0-0.8-0.1-1.2-0.4C365.3,633,365.1,632.7,365.1,632.2z M365.9,636.3
			c0-0.3,0.1-0.5,0.3-0.6c0.2-0.1,0.4-0.2,0.6-0.2c0.2,0,0.5,0.1,0.6,0.2c0.2,0.1,0.3,0.3,0.3,0.6v11.6c0,0.3-0.1,0.5-0.3,0.6
			c-0.2,0.1-0.4,0.2-0.6,0.2c-0.3,0-0.5-0.1-0.6-0.2c-0.2-0.1-0.3-0.3-0.3-0.6V636.3z"/>
		<path class="st0" d="M384.2,639.8c-0.1-0.6-0.4-1.1-0.7-1.6c-0.3-0.4-0.8-0.8-1.4-1c-0.6-0.2-1.4-0.3-2.3-0.3
			c-0.8,0-1.5,0.1-2,0.3c-0.6,0.2-1,0.5-1.4,0.9c-0.4,0.4-0.6,0.8-0.8,1.2c-0.2,0.5-0.3,0.9-0.3,1.4v7.1c0,0.3-0.1,0.5-0.3,0.6
			c-0.2,0.1-0.4,0.2-0.6,0.2c-0.3,0-0.5-0.1-0.6-0.2c-0.2-0.1-0.2-0.3-0.2-0.6v-11.5c0-0.3,0.1-0.5,0.2-0.6s0.4-0.2,0.6-0.2
			c0.2,0,0.5,0.1,0.6,0.2c0.2,0.1,0.3,0.3,0.3,0.6v0.8c0.5-0.6,1.1-1,1.9-1.3c0.7-0.3,1.6-0.5,2.6-0.5c2.1,0,3.7,0.6,4.8,1.7
			c1.1,1.1,1.6,2.7,1.6,4.8v6c0,0.3-0.1,0.5-0.3,0.6c-0.2,0.1-0.4,0.2-0.6,0.2c-0.3,0-0.5-0.1-0.6-0.2c-0.2-0.1-0.2-0.3-0.2-0.6v-6
			C384.4,641.1,384.4,640.4,384.2,639.8z"/>
		<path class="st0" d="M397.8,649.2c-1.2,0-2.2-0.1-3-0.4c-0.8-0.3-1.5-0.6-2.1-1.1c-0.6-0.5-1-1-1.3-1.6s-0.5-1.3-0.5-2.1
			c0-0.6-0.1-1.1-0.1-1.6c0-0.5,0-1,0.1-1.5c0-0.8,0.2-1.5,0.5-2.2c0.3-0.7,0.7-1.2,1.3-1.7c0.6-0.5,1.3-0.9,2.1-1.2
			c0.8-0.3,1.8-0.4,3-0.4c1,0,1.9,0.1,2.6,0.4c0.7,0.3,1.3,0.6,1.6,0.8c0.4,0.3,0.5,0.6,0.3,1c-0.1,0.2-0.2,0.3-0.4,0.4
			c-0.2,0.1-0.4,0-0.6-0.1c-0.2-0.1-0.4-0.2-0.6-0.3c-0.2-0.1-0.4-0.2-0.7-0.3c-0.3-0.1-0.6-0.2-0.9-0.3c-0.3-0.1-0.8-0.1-1.2-0.1
			c-1.7,0-3,0.3-3.8,1c-0.8,0.7-1.3,1.6-1.4,2.9c-0.1,1-0.1,2,0,3c0.1,0.6,0.2,1.1,0.4,1.6c0.2,0.5,0.5,0.9,0.9,1.2
			c0.4,0.3,1,0.6,1.6,0.7s1.5,0.2,2.4,0.2c0.5,0,0.9,0,1.3-0.1c0.4-0.1,0.7-0.2,1-0.3c0.3-0.1,0.5-0.3,0.8-0.4
			c0.2-0.1,0.4-0.2,0.6-0.3c0.2-0.1,0.4-0.1,0.5-0.1s0.3,0.1,0.5,0.3c0.1,0.2,0.2,0.4,0.1,0.6c-0.1,0.2-0.1,0.3-0.3,0.4
			c-0.2,0.2-0.4,0.3-0.7,0.5c-0.3,0.2-0.6,0.3-1,0.5c-0.4,0.1-0.9,0.3-1.4,0.3S398.4,649.2,397.8,649.2z"/>
		<path class="st0" d="M412.7,635.5c1,0,1.8,0.1,2.6,0.4c0.8,0.3,1.5,0.7,2,1.2c0.6,0.5,1,1.1,1.3,1.7c0.3,0.7,0.5,1.4,0.5,2.1
			c0,0.5,0,0.9-0.1,1.2c-0.1,0.3-0.2,0.5-0.3,0.7c-0.2,0.2-0.3,0.3-0.6,0.3c-0.2,0-0.5,0.1-0.8,0.1h-9.3c0,1.6,0.4,2.7,1.2,3.5
			s2,1.1,3.7,1.1c0.9,0,1.7-0.1,2.3-0.3c0.6-0.2,1.3-0.5,2-0.8c0.2-0.2,0.5-0.2,0.7-0.1c0.2,0.1,0.4,0.2,0.5,0.4
			c0.1,0.3,0.1,0.5,0,0.7c-0.1,0.2-0.2,0.3-0.3,0.3c-0.5,0.4-1.2,0.7-2,0.9s-1.9,0.4-3.1,0.4c-1.1,0-2.1-0.1-2.9-0.4
			c-0.8-0.3-1.5-0.6-2-1.1c-0.5-0.5-1-1-1.3-1.7c-0.3-0.7-0.5-1.4-0.6-2.2c0-0.5-0.1-1.1-0.1-1.6s0-1,0.1-1.4c0.1-0.7,0.2-1.4,0.5-2
			c0.3-0.6,0.7-1.2,1.2-1.7c0.5-0.5,1.2-0.9,2-1.2C410.7,635.6,411.6,635.5,412.7,635.5z M416.8,641.5c0.3,0,0.4,0,0.5-0.1
			c0.1-0.1,0.2-0.3,0.2-0.5c0-1.2-0.4-2.1-1.2-2.8s-2-1-3.6-1c-0.7,0-1.3,0.1-1.9,0.3c-0.6,0.2-1.1,0.4-1.5,0.8s-0.7,0.8-1,1.4
			c-0.2,0.6-0.4,1.3-0.4,2.1H416.8z"/>
		<path class="st0" d="M442.3,639.9c-0.1-0.6-0.4-1.1-0.7-1.6c-0.3-0.4-0.8-0.8-1.4-1c-0.6-0.2-1.4-0.3-2.3-0.3
			c-0.8,0-1.5,0.1-2,0.3c-0.6,0.2-1,0.5-1.4,0.9s-0.6,0.8-0.8,1.2c-0.2,0.5-0.3,0.9-0.3,1.4v7c0,0.3-0.1,0.5-0.3,0.6
			c-0.2,0.1-0.4,0.2-0.6,0.2c-0.3,0-0.5-0.1-0.6-0.2c-0.2-0.1-0.2-0.3-0.2-0.6v-18.3c0-0.3,0.1-0.5,0.2-0.6s0.4-0.2,0.6-0.2
			c0.2,0,0.5,0.1,0.6,0.2c0.2,0.1,0.3,0.3,0.3,0.6v7.7c0.5-0.6,1.1-1,1.9-1.3c0.7-0.3,1.6-0.5,2.6-0.5c2.1,0,3.7,0.6,4.8,1.7
			c1.1,1.1,1.6,2.7,1.6,4.8v5.9c0,0.3-0.1,0.5-0.3,0.6c-0.2,0.1-0.4,0.2-0.6,0.2c-0.3,0-0.5-0.1-0.6-0.2c-0.2-0.1-0.2-0.3-0.2-0.6
			V642C442.5,641.2,442.5,640.5,442.3,639.9z"/>
		<path class="st0" d="M455.6,635.5c1,0,1.8,0.1,2.6,0.4c0.8,0.3,1.5,0.7,2,1.2c0.6,0.5,1,1.1,1.3,1.7c0.3,0.7,0.5,1.4,0.5,2.1
			c0,0.5,0,0.9-0.1,1.2c-0.1,0.3-0.2,0.5-0.3,0.7c-0.2,0.2-0.3,0.3-0.6,0.3c-0.2,0-0.5,0.1-0.8,0.1h-9.3c0,1.6,0.4,2.7,1.2,3.5
			s2,1.1,3.7,1.1c0.9,0,1.7-0.1,2.3-0.3c0.6-0.2,1.3-0.5,2-0.8c0.2-0.2,0.5-0.2,0.7-0.1c0.2,0.1,0.4,0.2,0.5,0.4
			c0.1,0.3,0.1,0.5,0,0.7c-0.1,0.2-0.2,0.3-0.3,0.3c-0.5,0.4-1.2,0.7-2,0.9s-1.9,0.4-3.1,0.4c-1.1,0-2.1-0.1-2.9-0.4
			c-0.8-0.3-1.5-0.6-2-1.1c-0.5-0.5-1-1-1.3-1.7c-0.3-0.7-0.5-1.4-0.6-2.2c0-0.5-0.1-1.1-0.1-1.6s0-1,0.1-1.4c0.1-0.7,0.2-1.4,0.5-2
			c0.3-0.6,0.7-1.2,1.2-1.7c0.5-0.5,1.2-0.9,2-1.2C453.6,635.6,454.5,635.5,455.6,635.5z M459.7,641.5c0.3,0,0.4,0,0.5-0.1
			c0.1-0.1,0.2-0.3,0.2-0.5c0-1.2-0.4-2.1-1.2-2.8s-2-1-3.6-1c-0.7,0-1.3,0.1-1.9,0.3c-0.6,0.2-1.1,0.4-1.5,0.8s-0.7,0.8-1,1.4
			c-0.2,0.6-0.4,1.3-0.4,2.1H459.7z"/>
		<path class="st0" d="M467,629.5c0-0.3,0.1-0.5,0.2-0.6c0.2-0.1,0.4-0.2,0.6-0.2c0.2,0,0.5,0.1,0.6,0.2s0.3,0.3,0.3,0.6v18.4
			c0,0.3-0.1,0.5-0.3,0.6c-0.2,0.1-0.4,0.2-0.6,0.2c-0.3,0-0.5-0.1-0.6-0.2c-0.2-0.1-0.2-0.3-0.2-0.6V629.5z"/>
		<path class="st0" d="M474.9,629.5c0-0.3,0.1-0.5,0.2-0.6c0.2-0.1,0.4-0.2,0.6-0.2c0.2,0,0.5,0.1,0.6,0.2s0.3,0.3,0.3,0.6v18.4
			c0,0.3-0.1,0.5-0.3,0.6c-0.2,0.1-0.4,0.2-0.6,0.2c-0.3,0-0.5-0.1-0.6-0.2c-0.2-0.1-0.2-0.3-0.2-0.6V629.5z"/>
		<path class="st0" d="M488.3,635.5c1.9,0,3.4,0.5,4.5,1.5c1.1,1,1.7,2.3,1.9,4c0,0.4,0.1,0.9,0.1,1.4s0,1-0.1,1.4
			c-0.1,1.7-0.7,3-1.7,4c-1,1-2.6,1.5-4.7,1.5c-1.1,0-2-0.1-2.7-0.4c-0.8-0.3-1.4-0.6-1.9-1.1c-0.5-0.5-0.9-1-1.2-1.7
			c-0.3-0.7-0.5-1.4-0.5-2.2c0-0.4-0.1-0.9-0.1-1.4s0-1,0.1-1.4c0.1-1.7,0.7-3,1.8-4S486.3,635.5,488.3,635.5z M492.9,640.4
			c-0.1-1-0.5-1.8-1.3-2.4c-0.7-0.6-1.9-0.9-3.3-0.9c-0.7,0-1.4,0.1-1.9,0.3c-0.5,0.2-1,0.4-1.4,0.7s-0.7,0.6-0.9,1
			c-0.2,0.4-0.4,0.8-0.4,1.3c-0.1,0.6-0.1,1.3-0.1,2c0,0.7,0,1.3,0.1,1.9c0.1,0.5,0.2,1,0.4,1.4c0.2,0.4,0.5,0.8,0.8,1.1
			s0.8,0.5,1.4,0.7s1.2,0.3,2,0.3c0.8,0,1.4-0.1,2-0.3s1-0.4,1.4-0.7c0.4-0.3,0.6-0.7,0.8-1.1c0.2-0.4,0.3-0.9,0.4-1.4
			c0.1-0.6,0.1-1.3,0.1-2S493,640.9,492.9,640.4z"/>
		<path class="st0" d="M513.9,647.5c0.3,0,0.4-0.1,0.5-0.3l3.7-11.1c0.1-0.3,0.3-0.5,0.5-0.6c0.2-0.1,0.4-0.1,0.7,0
			c0.2,0,0.3,0.1,0.5,0.3c0.2,0.2,0.2,0.5,0.1,0.9l-3.7,10.8c-0.1,0.2-0.1,0.4-0.2,0.5c-0.1,0.2-0.2,0.3-0.3,0.5
			c-0.2,0.2-0.4,0.3-0.6,0.4c-0.3,0.1-0.6,0.1-1,0.1s-0.7,0-1-0.1c-0.3-0.1-0.5-0.2-0.6-0.4c-0.2-0.1-0.3-0.3-0.3-0.5
			c-0.1-0.2-0.1-0.4-0.2-0.5l-2.9-8.7l-2.9,8.7c-0.1,0.2-0.1,0.4-0.2,0.5c-0.1,0.2-0.2,0.3-0.3,0.5c-0.2,0.1-0.4,0.3-0.6,0.4
			c-0.3,0.1-0.6,0.1-1,0.1c-0.4,0-0.7,0-1-0.1c-0.3-0.1-0.5-0.2-0.6-0.4c-0.2-0.2-0.3-0.3-0.3-0.5c-0.1-0.2-0.1-0.4-0.2-0.5
			l-3.7-10.8c-0.1-0.4-0.1-0.7,0.1-0.9c0.2-0.2,0.3-0.3,0.5-0.3c0.3-0.1,0.5-0.1,0.7,0s0.4,0.3,0.5,0.6l3.7,11.1
			c0.1,0.2,0.2,0.3,0.5,0.3c0.1,0,0.2,0,0.3-0.1c0.1-0.1,0.1-0.1,0.1-0.2l3.7-11.1c0.1-0.2,0.2-0.4,0.4-0.5s0.3-0.1,0.6-0.1
			c0.2,0,0.4,0,0.6,0.1s0.3,0.3,0.4,0.5l3.7,11.1c0,0.1,0.1,0.2,0.1,0.2S513.8,647.5,513.9,647.5z"/>
		<path class="st0" d="M529.8,635.5c1.9,0,3.4,0.5,4.5,1.5c1.1,1,1.7,2.3,1.9,4c0,0.4,0.1,0.9,0.1,1.4s0,1-0.1,1.4
			c-0.1,1.7-0.7,3-1.7,4c-1,1-2.6,1.5-4.7,1.5c-1.1,0-2-0.1-2.7-0.4c-0.8-0.3-1.4-0.6-1.9-1.1c-0.5-0.5-0.9-1-1.2-1.7
			c-0.3-0.7-0.5-1.4-0.5-2.2c0-0.4-0.1-0.9-0.1-1.4s0-1,0.1-1.4c0.1-1.7,0.7-3,1.8-4S527.7,635.5,529.8,635.5z M534.4,640.4
			c-0.1-1-0.5-1.8-1.3-2.4c-0.7-0.6-1.9-0.9-3.3-0.9c-0.7,0-1.4,0.1-1.9,0.3c-0.5,0.2-1,0.4-1.4,0.7s-0.7,0.6-0.9,1
			c-0.2,0.4-0.4,0.8-0.4,1.3c-0.1,0.6-0.1,1.3-0.1,2c0,0.7,0,1.3,0.1,1.9c0.1,0.5,0.2,1,0.4,1.4c0.2,0.4,0.5,0.8,0.8,1.1
			s0.8,0.5,1.4,0.7s1.2,0.3,2,0.3c0.8,0,1.4-0.1,2-0.3s1-0.4,1.4-0.7c0.4-0.3,0.6-0.7,0.8-1.1c0.2-0.4,0.3-0.9,0.4-1.4
			c0.1-0.6,0.1-1.3,0.1-2S534.4,640.9,534.4,640.4z"/>
		<path class="st0" d="M545.4,637.5c-0.6,0.3-1,0.7-1.4,1.2s-0.6,1-0.8,1.5c-0.2,0.6-0.2,1.1-0.2,1.6v6.1c0,0.3-0.1,0.5-0.3,0.6
			c-0.2,0.1-0.4,0.2-0.6,0.2c-0.3,0-0.5-0.1-0.6-0.2c-0.2-0.1-0.2-0.3-0.2-0.6v-11.5c0-0.3,0.1-0.5,0.2-0.6s0.4-0.2,0.6-0.2
			c0.2,0,0.5,0.1,0.6,0.2c0.2,0.1,0.3,0.3,0.3,0.6v1c0.5-0.6,1-1.1,1.7-1.4c0.7-0.3,1.5-0.5,2.5-0.5h3c0.2,0,0.4,0.1,0.5,0.2
			c0.2,0.1,0.2,0.3,0.2,0.6s-0.1,0.4-0.2,0.6c-0.2,0.1-0.3,0.2-0.5,0.2h-2.8C546.6,637,545.9,637.2,545.4,637.5z"/>
		<path class="st0" d="M554.7,629.5c0-0.3,0.1-0.5,0.2-0.6c0.2-0.1,0.4-0.2,0.6-0.2c0.2,0,0.5,0.1,0.6,0.2s0.3,0.3,0.3,0.6v18.4
			c0,0.3-0.1,0.5-0.3,0.6c-0.2,0.1-0.4,0.2-0.6,0.2c-0.3,0-0.5-0.1-0.6-0.2c-0.2-0.1-0.2-0.3-0.2-0.6V629.5z"/>
		<path class="st0" d="M568,635.5c1,0,1.9,0.2,2.6,0.5c0.8,0.3,1.4,0.7,2,1.3v-7.6c0-0.3,0.1-0.5,0.2-0.6s0.4-0.2,0.6-0.2
			c0.2,0,0.5,0.1,0.6,0.2c0.2,0.1,0.3,0.3,0.3,0.6v18.3c0,0.3-0.1,0.5-0.3,0.6c-0.2,0.1-0.4,0.2-0.6,0.2c-0.3,0-0.5-0.1-0.6-0.2
			c-0.2-0.1-0.2-0.3-0.2-0.6v-0.2c-0.5,0.5-1.2,0.8-1.9,1.1s-1.6,0.4-2.7,0.4c-1.1,0-2-0.1-2.7-0.4c-0.8-0.3-1.4-0.6-1.9-1.1
			s-0.9-1-1.1-1.7c-0.3-0.7-0.4-1.4-0.5-2.2c0-0.4-0.1-0.9-0.1-1.4s0-1,0.1-1.4c0.1-1.7,0.7-3,1.7-4S566,635.5,568,635.5z
			 M572.5,640.4c-0.1-0.4-0.2-0.8-0.4-1.2c-0.2-0.4-0.5-0.8-0.8-1.1s-0.8-0.6-1.4-0.7c-0.5-0.2-1.2-0.3-1.9-0.3
			c-0.7,0-1.4,0.1-1.9,0.3c-0.5,0.2-1,0.4-1.3,0.7c-0.3,0.3-0.6,0.6-0.8,1c-0.2,0.4-0.3,0.8-0.4,1.3c-0.1,0.6-0.1,1.3-0.1,2
			c0,0.7,0,1.3,0.1,1.9c0.1,0.5,0.2,1,0.3,1.4c0.2,0.4,0.4,0.8,0.8,1.1s0.8,0.5,1.3,0.7s1.2,0.3,2,0.3c0.8,0,1.4-0.1,1.9-0.3
			c0.5-0.2,1-0.5,1.3-0.8c0.3-0.3,0.6-0.7,0.8-1.1c0.2-0.4,0.3-0.8,0.4-1.3c0-0.1,0-0.2,0.1-0.5c0-0.3,0-0.6,0-1c0-0.4,0-0.8,0-1.2
			C572.6,641.1,572.5,640.7,572.5,640.4z"/>
	</g>
</g>
</svg>
