<?xml version="1.0" encoding="utf-8"?>
<!-- Generator: Adobe Illustrator 23.1.0, SVG Export Plug-In . SVG Version: 6.00 Build 0)  -->
<svg version="1.1" id="Layer_1" xmlns="http://www.w3.org/2000/svg" xmlns:xlink="http://www.w3.org/1999/xlink" x="0px" y="0px"
	 viewBox="0 0 448 242" style="enable-background:new 0 0 448 242;" xml:space="preserve">
<style type="text/css">
	.st0{fill:#1E1E1E;}
	.st1{fill:#4EC9AB;}
	.st2{fill:#52B9FE;}
</style>
<g>
	<g>
		<path d="M135.7,114.2c-0.1-0.4-0.3-0.9-0.4-1.3c0.3,0.1,0.6,0.2,0.9,0.2c0.6,0,1.1-0.2,1.5-0.6l0.8-0.1l-0.3-1.8
			c-0.4-3.6-1-7.5-2.1-11.1c-1.3-4.2-3.4-7.8-6.1-10.5c-3-3-6.7-5.1-10.3-7.2l-0.6-0.4c-2.2-1.3-4.2-2.4-6.1-3.4l-0.8-0.4
			c-1.7-0.9-3.4-1.8-5.3-2.6c-2-0.8-4.2-1.2-6.5-1.2c-0.5,0-1,0-1.5,0.1c-2.6,0.2-5.1,0.8-7.9,1.5l-0.2,0.1
			c-0.9,0.4-1.5,1.3-1.3,2.3s1,1.7,2,1.7c0.2,0,0.3,0,0.5-0.1c2.5-0.6,5.5-1.4,8.4-1.4c1.4,0,2.7,0.2,3.8,0.5
			c1.7,0.5,3.4,1.4,5.1,2.3l0.4,0.2c1.9,1,3.9,2.1,5.9,3.2c2,1.2,3.9,2.2,5.6,3.3c1.4,0.9,3.2,2.1,4.8,3.4c2.6,2.3,4.6,5.2,5.8,8.7
			c0.4,1.1,0.7,2.2,1,3.5c-1-0.7-2.2-1.2-3.4-1.6c-0.2-0.1-0.4-0.1-0.7-0.1c-0.7,0-1.3,0.4-1.7,1c-0.4,0.6-0.4,1.4-0.1,2
			c1.7,3.2,3.2,6.5,4.3,9.9c1.4,4.1,2.2,7.5,2.4,10.5c0.3,3.1-0.1,6.4-1,9.7c-0.8,2.8-2.1,5.8-3.9,9.2c-0.6,1-1.1,2-1.7,3.1
			c0.3-4.4,0.2-8.8-0.2-13.2c-0.2-2.1-0.4-4.2-0.8-6.7c-0.1-1-1-1.7-2-1.7c-0.2,0-0.4,0-0.6,0.1c-0.5,0.1-0.9,0.4-1.2,0.9
			c-0.3,0.4-0.4,1-0.3,1.5c0.6,4,1,8,1.1,12c-2.3-3.2-4-7.2-5.5-12.5c-0.4-1.3-0.7-2.6-1-3.8l-0.2-0.8l0.2-1.7l-1.1,0.1
			c-0.1-0.1-0.2-0.1-0.3-0.2c-0.3-0.1-0.5-0.2-0.8-0.2c-1,0-1.9,0.8-2.1,1.8c-0.6,4.9-2.3,9.7-4.9,14.2s-6,8.6-10.2,12.1
			c-0.2,0.2-0.5,0.4-0.7,0.6c1-1.6,1.9-3.3,2.7-5.1c2-4.5,3.4-9.3,4.5-13.4c0.7-2.6,1.4-5.3,1.9-8c0.1-0.6,0-1.2-0.4-1.7
			s-1-0.8-1.6-0.8c-0.2,0-0.4,0-0.6,0.1l-1-0.5l-0.4,1.8c-1.2,2.2-2.1,4.5-2.9,6.8c-0.4,1.2-0.9,2.4-1.4,3.6c-1.2,2.8-2.9,5.4-5,7.6
			s-4.6,4.1-7.4,5.9c-3.1,1.8-6.3,3.3-9.4,4.5c-2.1,0.7-4,1.3-5.9,1.6c5.1-5.1,9.2-10.9,12-17.1c0.1-0.3,0.3-0.6,0.3-0.8
			c0.1-0.2,0.3-0.4,0.4-0.7c0.2-0.2,0.4-0.5,0.6-0.8c0,0,0-0.1,0.1-0.2c0-0.1,0-0.1,0-0.2c0.1-0.3,0.2-0.6,0.3-0.9l0.2-0.5
			c0.3-0.7,0.4-1.5,0.6-2.1l0.6-2.1l-0.9-0.2c0,0,0,0-0.1-0.1c-0.4-0.4-0.9-0.7-1.5-0.7c-0.2,0-0.5,0-0.7,0.1l-0.9-0.2l-0.3,1.5
			l-0.3,1c-0.5,1.5-1.1,3-1.7,4.5c-1.9,3.1-4.9,5.7-7.2,7.6c-1.3,1-2.4,1.9-3.7,2.6c-1.2,0.7-2.6,1.4-4.1,2.2
			c-2.6,1.2-5.3,2.3-7.9,3.3l-0.4,0.2c1.5-1.2,2.8-2.5,4.1-3.8c3.6-3.8,6.4-8.1,8.3-12.7c0.3-0.7,0.5-1.3,0.8-2
			c0.3-0.2,0.5-0.5,0.7-0.9s0.2-0.9,0.3-1.3v-0.2c0.1-0.6,0.2-1.3,0.3-1.9c0.1-0.6,0.2-1.2,0.3-1.9l0.2-1.7l-0.8-0.1
			c-0.4-0.4-0.9-0.6-1.5-0.6c-0.3,0-0.6,0.1-0.9,0.2l-0.8-0.2l-0.3,1.8c-0.2,1.2-0.5,2.4-0.8,3.5c-1.2,3.1-3.4,6.2-6.5,9
			c-2,1.8-4.3,3.5-6.5,5.1c-2.3,1.7-4.6,3.1-6.9,4.3c-2.8,1.5-5.7,2.6-8.6,3.4c-0.1,0-0.2,0.1-0.2,0.1c-0.2,0-0.4-0.1-0.5-0.1
			c-0.6,0-1.2,0.3-1.6,0.7c-0.4,0.5-0.6,1-0.5,1.7c0,0.2,0.1,0.4,0.1,0.6c-0.2,0-0.5,0-0.7,0c-0.1,0-0.1,0-0.2,0
			c-2.9-4.5-5.5-9.2-6.7-14.3c-1-4.4-1.1-9-1.1-12.9c0.1-4.6,0.7-8.6,1.8-12c2.2-6.3,6.5-12.3,12.5-17.4c5.4-4.6,12.1-8.5,20.1-11.6
			c4.5-1.8,8.1-2.9,11.5-3.6c2.5-0.5,4.9-0.8,7.2-0.8c1.6,0,3.1,0.1,4.6,0.4c0.9,0.2,1.8,0.4,2.8,0.7c0.2,0.1,0.4,0.1,0.6,0.1
			c1,0,1.8-0.7,2-1.8c0.1-1-0.4-1.9-1.4-2.2c-2.6-0.9-5.5-1.3-8.5-1.3c-5,0-10.5,1.1-17.2,3.6C52.3,81.1,45,85,39,89.6
			c-6.8,5.3-11.9,11.6-14.8,18.3c-1.7,3.8-2.7,8-3,12.4c-0.2,2.2-0.2,4.5-0.1,6.9c0.1,2.7,0.2,4.9,0.5,7c0.5,4.1,1.8,8.2,4,12.4
			c1,2,2.2,4,3.4,5.9c-0.5,0.4-0.9,0.8-1.3,1.3c-1.4,1.9-1.7,4.6-0.7,7.1c0.8,2,2.2,3.8,4.3,5.3c2.2,1.6,4.7,2.6,6.9,3.4
			c0.1,0,0.2,0,0.2,0.1c1.4,3.6,3.1,7.2,5,10.7c2.4,4.2,5.3,8.4,8.7,12.4c3.3,3.9,7,7.5,11,10.8c4.6,3.9,9,6.7,13.2,8.7
			c4.6,2.1,9,3.2,13.1,3.2c1.1,0,2.1-0.1,3.1-0.2c1.6-0.2,3-0.7,4.3-1.4c1.4-0.7,2.6-1.8,3.4-2.7c1.7-1.7,3.3-3.7,5.3-6.3
			c3.1-4.1,5.8-8.6,8.5-13.8c2.6-5,4.7-10.2,6.5-14.6c1-2.4,1.9-4.9,2.9-7.4l0.1-0.3c0.2,0,0.3-0.1,0.5-0.2c3.1-1.9,7.4-4.6,9.3-9
			c0.4-1,0.7-2.2,0.8-3.3c0.1-1.4-0.1-2.6-0.6-3.5c-0.8-1.7-2.7-1.9-3.8-2h-0.1c2.7-4.3,5.1-8.8,6.7-13.7c1.2-3.7,1.7-7.3,1.6-10.9
			C137.8,122.2,137.1,118.5,135.7,114.2z M32.4,157.3c0.3,0.4,0.5,0.8,0.8,1.2c0,0,0.7,0.9,0.9,1.4c0.4,0.5,0.9,0.8,1.5,0.9
			c0.3,1.2,0.6,2.4,1,3.7c-2.2-1-4.3-2.3-5.4-4.3c-0.7-1.2-0.9-2.5-0.5-3.5c0.1-0.3,0.3-0.6,0.6-0.9C31.6,156.2,32,156.7,32.4,157.3
			z M39.4,155.7c-0.2-0.8-0.5-1.6-1.1-2.3c-0.1-0.6-0.2-1.1-0.3-1.7c5-1.4,9.9-3.8,15.1-7.4c-0.5,0.4-1,0.8-1.5,1.2
			c-2.3,1.8-4.9,3.4-7.6,4.7c-0.7,0.3-1.2,1.1-1.1,1.9c0.1,0.9,0.6,1.6,1.5,1.8c0.8,0.2,1.7,0.4,2.7,0.4c2.6,0,5.1-1,7.3-1.8
			l0.2-0.1c3.1-1.2,6.2-2.4,9.3-3.8c1.8-0.8,3.9-1.8,6.1-3.1c-0.5,0.6-1.1,1.2-1.6,1.8c-1.8,1.9-3.6,3.6-5.4,5.1
			c-0.6,0.5-0.9,1.4-0.6,2.2c0.3,0.8,1.1,1.4,1.9,1.4c0.4,0,0.7,0,1.1,0c6.3,0,13.1-2.1,20.8-6.4c3.9-2.2,7.2-4.7,9.8-7.5
			c-0.7,1.7-1.6,3.4-2.7,5.1c-1.3,1.9-2.7,3.6-4.4,5.1c-0.6,0.5-0.9,1.3-0.6,2.1c0.3,0.8,1,1.4,1.8,1.4c0.3,0,0.6,0.1,1,0.1
			c3.3,0,6.2-1.8,8-3.2c2.2-1.7,4.3-3.6,6.5-6.1c3.9-4.4,6.9-9.3,9-14.7c0.1-0.4,0.3-0.8,0.4-1.2c1,3.2,2.5,6.9,4.7,10.3
			c1.1,1.7,2.4,3.2,3.7,4.4l0.1,0.1c-0.1,1.7-0.2,3.4-0.4,5c-0.2,2.3-0.6,4.4-1,6.4c-0.1,0.6,0,1.2,0.4,1.7l0.1,0.1
			c-0.4,1.6-0.9,3.2-1.4,4.7c-0.7,1.9-1.5,3.9-2.2,5.8l-0.7,1.7c-2.2,5.8-4.1,10.2-6,14.2c-2.3,5-4.8,9.4-7.5,13.5
			c-1.4,2.1-2.9,4.1-4.6,6.2l-0.4,0.5c-1.4,1.7-2.9,3.5-4.8,4.5c-1.3,0.7-3,1-5.1,1c-0.6,0-1.2,0-1.8-0.1c-2.3-0.2-4.6-0.7-7.1-1.6
			c-4.1-1.5-8.1-3.8-12.8-7.3c-4-3.1-7.6-6.4-10.8-9.9c-3.3-3.6-6.2-7.5-8.7-11.4s-4.6-8.1-6.3-12.5c-1.3-3.3-2.4-7-3.2-11
			C39.4,156.8,39.5,156.3,39.4,155.7z M126.7,161.4c-0.3,0.3-0.7,0.5-1,0.8c0.2-0.7,0.4-1.3,0.5-2c0.3-1,0.4-2,0.6-3
			c0.1-0.3,0.1-0.6,0.1-0.9c0-0.2,0.1-0.4,0.1-0.6s0-0.5-0.1-0.7c0.2-0.2,0.4-0.4,0.7-0.5c0.4-0.1,0.8-0.2,1.3-0.2
			c0.2,0,0.3,0,0.5,0s0.4,0,0.6,0.1C130.7,157.5,127.9,160.3,126.7,161.4z"/>
		<path d="M93.9,165.6H94c0.1,0.7,0.2,1.3,0.5,2c0.9,1.9,2.5,3.2,4.6,3.6c0.5,0.1,1,0.1,1.5,0.1c0.6,0,1.1,0,1.8-0.1
			c1.2-0.2,2.1-0.6,2.9-1.3c1.2-1,1.9-2.6,2.1-4.7c0.2-1.8,0.2-3.5,0.2-5.2c0.6,0,1.2-0.1,1.8-0.1c1.5,0,3,0.2,4.5,0.5
			c0.1,0,0.3,0,0.4,0c1,0,1.9-0.8,2-1.8s-0.5-1.9-1.6-2.2c-1.8-0.4-3.6-0.6-5.5-0.6c-4.6,0-9.2,1.2-13.1,3.3
			c-0.8,0.4-1.5,0.9-2.2,1.4s-2,1.4-2,3.1C91.9,164.7,92.8,165.6,93.9,165.6z M101.7,161.1c0.6-0.2,1.3-0.4,1.9-0.6c0,1,0,2-0.1,3
			c-0.1,1.1-0.2,2.3-0.7,3c-0.2,0.4-0.7,0.7-2.3,0.7c-0.6,0-1-0.1-1.4-0.3c-0.3-0.2-0.5-0.4-0.7-0.7c-0.6-1-0.4-2.2-0.1-3.7
			C99.3,162,100.4,161.5,101.7,161.1z"/>
		<path d="M48,164.9c0.1,0,0.2,0,0.4,0c1.8-0.3,3.7-0.5,5.5-0.5c0.2,0,0.4,0,0.7,0c-0.3,1.1-0.4,2.3-0.2,3.6c0.2,1.6,1.2,3.1,2.5,4
			c1.4,1,2.9,1.1,3.9,1.1c0.4,0,0.7,0,1.2-0.1c1.2-0.1,3.6-0.2,4.6-2.3c0.5-1,0.5-2,0.5-2.8v-0.3c0-0.1,0-0.2,0-0.3
			c0.2,0.1,0.4,0.1,0.5,0.2c0.3,0.1,0.6,0.2,0.9,0.2c0.9,0,1.8-0.7,2-1.6s-0.2-1.8-1.1-2.2c-4.8-2.4-10.2-3.6-15.6-3.6
			c-0.4,0-0.9,0-1.3,0c-1.6,0.1-3.3,0.2-5,0.6c-1,0.2-1.7,1.1-1.6,2.1C46.1,164,46.9,164.9,48,164.9z M63.1,166.9
			c0,0.6,0,1.3-0.1,1.9c-0.3,0.1-0.6,0.1-0.9,0.2c-0.5,0-0.9,0.1-1.3,0.1c-0.7,0-1.1-0.1-1.4-0.3c-0.4-0.2-0.8-0.8-0.9-1.4
			c-0.2-0.8,0-1.8,0.3-2.7c1.5,0.2,3,0.6,4.4,1C63.1,166.1,63.1,166.5,63.1,166.9z"/>
		<path d="M77.5,171c0,0.8,0,1.7,0,2.6s0,1.8,0.1,2.8c0.1,2.3,0.7,4.1,1.8,5.5c1.2,1.7,3.2,2.7,5.1,2.8c0.1,0,0.2,0,0.3,0
			c2.1,0,4.5-1.2,5-3.6c0.1-0.6,0-1.2-0.4-1.7s-1-0.8-1.6-0.8c-0.9,0-1.7,0.6-1.9,1.5c-0.1,0.3-0.7,0.5-1.2,0.5h-0.1
			c-0.8-0.1-1.6-0.6-2.1-1.4c-0.5-0.9-0.8-2-0.9-3.6c0-0.7,0-1.3,0-2c0-1,0-1.9-0.1-2.9c-0.1-2-0.4-4-0.9-6c-0.3-0.9-1-1.5-1.9-1.5
			c-0.6,0-1.2,0.3-1.6,0.8c-0.4,0.5-0.5,1.1-0.4,1.7C77.1,167.4,77.4,169.2,77.5,171z"/>
		<path d="M79.1,190.7c-1,0.2-1.7,1-1.6,2.1c0.1,1.1,1,1.9,2.1,1.9c0.1,0,0.2,0,0.4,0c4.4-0.8,8.5-2.3,12.1-4.2
			c1.3-0.7,2.2-1.3,3.1-1.8c0.8-0.5,1.1-1.4,0.8-2.3c-0.3-0.9-1-1.5-1.9-1.5c-0.4,0-0.8,0.1-1.1,0.3c-3.2,2.1-6.7,3.7-10.5,4.8
			C81.2,190.3,80.1,190.6,79.1,190.7z"/>
	</g>
	<g>
		<path d="M157,120.3c0-0.8,0.3-1.5,0.8-1.9s1.1-0.7,1.8-0.7H184c1.4,0,2.6,0.2,3.4,0.5s1.5,0.8,1.8,1.3c0.4,0.5,0.6,1.2,0.7,1.9
			c0.1,0.8,0.1,1.5,0.1,2.4v8.3c0,5.2-0.6,9.7-1.7,13.7s-2.5,7.3-4.1,10c-0.6,1-1.4,1.5-2.3,1.5c-1,0-1.8-0.2-2.4-0.8
			c-0.7-0.5-1-1.2-0.9-1.9c0.1-0.7,0.3-1.5,0.8-2.4c2-3.6,3.3-7,3.9-10.2s0.9-6.8,0.9-10.6v-6.6c0-0.7-0.1-1.2-0.4-1.4
			s-0.6-0.4-1.1-0.4h-23.2c-0.7,0-1.3-0.2-1.8-0.7C157.2,121.8,157,121.1,157,120.3z M219.2,166.4c1.4,0,2.6,0.2,3.5,0.6
			s1.5,1,2,1.6c0.4,0.7,0.7,1.4,0.9,2.2c0.1,0.8,0.2,1.7,0.2,2.5v11.9c0,0.8-0.1,1.7-0.2,2.5s-0.4,1.6-0.9,2.2
			c-0.4,0.7-1.1,1.2-2,1.6s-2,0.6-3.5,0.6h-51.6c-1.4,0-2.6-0.2-3.5-0.6s-1.5-1-2-1.6c-0.4-0.7-0.7-1.4-0.9-2.2
			c-0.1-0.8-0.2-1.7-0.2-2.5v-11.9c0-0.8,0.1-1.7,0.2-2.5s0.4-1.6,0.9-2.2c0.4-0.7,1.1-1.2,2-1.6s2-0.6,3.5-0.6H219.2z M218.3,187.1
			c0.5,0,0.9-0.1,1.1-0.4c0.3-0.2,0.4-0.7,0.4-1.4v-11.9c0-0.7-0.1-1.2-0.4-1.4c-0.3-0.2-0.6-0.4-1.1-0.4h-49.8
			c-0.5,0-0.9,0.1-1.1,0.4c-0.3,0.2-0.4,0.7-0.4,1.4v11.9c0,0.7,0.1,1.2,0.4,1.4c0.3,0.2,0.6,0.4,1.1,0.4H218.3z M219.9,119.3
			c0-0.9,0.3-1.6,0.8-2s1.2-0.7,2.1-0.7c0.8,0,1.5,0.2,2.1,0.7c0.6,0.4,0.9,1.1,0.9,2v36c0,0.9-0.3,1.6-0.9,2s-1.3,0.7-2.1,0.7
			c-0.8,0-1.5-0.2-2.1-0.7c-0.5-0.4-0.8-1.1-0.8-2V119.3z"/>
		<path d="M265.4,126.2c0,3.1,0.4,5.9,1.1,8.3s1.9,4.5,3.3,6.4c1.5,1.9,3.3,3.5,5.5,4.9s4.8,2.8,7.6,4c1.9,0.8,2.5,2,2.1,3.8
			c-0.2,0.8-0.7,1.4-1.4,1.8c-0.7,0.4-1.6,0.4-2.7,0c-2-0.6-3.9-1.5-5.8-2.7s-3.6-2.5-5.2-3.9s-3-2.9-4.2-4.4
			c-1.2-1.6-2.2-3-2.8-4.4c-0.7,1.6-1.7,3.1-3,4.8c-1.3,1.6-2.7,3.2-4.3,4.6c-1.6,1.5-3.4,2.8-5.3,4s-4,2.2-6.2,2.9
			c-1.1,0.4-2,0.4-2.7,0s-1.2-1-1.4-1.8c-0.2-0.8-0.2-1.6,0.2-2.3c0.4-0.7,1-1.2,1.8-1.5c2.8-1.1,5.3-2.3,7.5-3.8
			c2.2-1.4,4-3.1,5.5-5s2.6-4,3.4-6.5c0.8-2.4,1.2-5.2,1.2-8.3v-7.4c0-0.9,0.3-1.6,0.8-2s1.2-0.7,2.1-0.7c0.8,0,1.5,0.2,2.1,0.7
			c0.6,0.4,0.9,1.1,0.9,2v6.5H265.4z M313.5,179.5c0,4.5-1.4,7.7-4.3,9.8c-2.8,2-7.2,3-13.1,3h-34.2c-5.9,0-10.2-1-13.1-3
			c-2.8-2-4.3-5.3-4.3-9.8s1.4-7.7,4.3-9.8c2.8-2,7.2-3,13.1-3h34.2c5.9,0,10.2,1,13.1,3C312.1,171.8,313.5,175,313.5,179.5z
			 M307.7,179.5c0-2.8-0.9-4.8-2.8-5.9s-5.2-1.7-9.9-1.7h-31.7c-4.7,0-8,0.6-9.9,1.7s-2.8,3.1-2.8,5.9s0.9,4.8,2.8,5.9
			s5.2,1.7,9.9,1.7H295c4.7,0,8-0.6,9.9-1.7C306.7,184.3,307.7,182.3,307.7,179.5z M286.2,137.1c0-0.8,0.3-1.5,0.8-1.9
			s1.1-0.7,1.8-0.7h16.4v-15.2c0-0.9,0.3-1.6,0.8-2s1.2-0.7,2.1-0.7c0.8,0,1.5,0.2,2.1,0.7c0.6,0.4,0.9,1.1,0.9,2v37.8
			c0,0.9-0.3,1.6-0.9,2s-1.3,0.7-2.1,0.7c-0.8,0-1.5-0.2-2.1-0.7c-0.5-0.4-0.8-1.1-0.8-2v-17.4h-16.4c-0.7,0-1.3-0.2-1.8-0.7
			C286.4,138.6,286.2,137.9,286.2,137.1z"/>
		<path d="M336.5,184c0,0.7,0.1,1.2,0.4,1.4c0.3,0.2,0.6,0.4,1.1,0.4h17.1c0.7,0,1.3,0.2,1.8,0.7c0.5,0.4,0.8,1.1,0.8,1.9
			s-0.3,1.5-0.8,1.9s-1.1,0.7-1.8,0.7h-18c-1.4,0-2.6-0.2-3.5-0.6s-1.5-1-2-1.6c-0.4-0.7-0.7-1.4-0.9-2.2c-0.1-0.8-0.2-1.7-0.2-2.5
			v-59.3c0-0.8,0.1-1.7,0.2-2.5s0.4-1.6,0.9-2.2c0.4-0.7,1.1-1.2,2-1.6c0.9-0.4,2-0.6,3.5-0.6h16.2c0.7,0,1.3,0.2,1.8,0.7
			c0.5,0.4,0.8,1.1,0.8,1.9c0,0.8-0.3,1.5-0.8,1.9s-1.1,0.7-1.8,0.7H338c-0.5,0-0.9,0.1-1.1,0.4c-0.3,0.2-0.4,0.7-0.4,1.4v26.7h16.7
			c0.7,0,1.3,0.2,1.8,0.7c0.5,0.4,0.8,1.1,0.8,1.9s-0.3,1.5-0.8,1.9s-1.1,0.7-1.8,0.7h-16.7V184z M373,119.3c0-0.9,0.3-1.6,0.8-2
			s1.2-0.7,2.1-0.7s1.5,0.2,2.1,0.7c0.6,0.4,0.9,1.1,0.9,2V150h13.7v-30.7c0-0.9,0.3-1.6,0.8-2s1.2-0.7,2.1-0.7
			c0.8,0,1.5,0.2,2.1,0.7s0.9,1.1,0.9,2v71.8c0,0.9-0.3,1.6-0.9,2c-0.6,0.5-1.3,0.7-2.1,0.7s-1.5-0.2-2.1-0.7
			c-0.5-0.4-0.8-1.1-0.8-2v-35.9h-13.7v35.9c0,0.9-0.3,1.6-0.9,2c-0.6,0.5-1.3,0.7-2.1,0.7s-1.5-0.2-2.1-0.7c-0.5-0.4-0.8-1.1-0.8-2
			V119.3z"/>
	</g>
	<path class="st0" d="M155,47c23-14.9,61-21,121-13s106-2.6,116-1.8S427,37,420,74s-102.4,6.1-132.4,6S206,98,174,73.9
		c-14.9-9-29.9,13.7-29.9,13.7S132,61.9,155,47z"/>
	<g>
		<g>
			<path class="st1" d="M181.7,63.6c0.8,0,1.5-0.1,2-0.2c0.5-0.1,0.9-0.3,1.2-0.5c0.3-0.2,0.4-0.4,0.5-0.7s0.1-0.5,0.1-0.8
				c0-0.5-0.1-0.9-0.3-1.2c-0.2-0.3-0.5-0.5-0.9-0.7s-0.9-0.3-1.4-0.5c-0.6-0.1-1.2-0.3-1.9-0.5c-0.5-0.1-1.1-0.3-1.6-0.5
				c-0.6-0.2-1.1-0.4-1.5-0.7s-0.8-0.6-1.1-1c-0.3-0.4-0.4-0.9-0.4-1.5c0-0.4,0.1-0.9,0.3-1.3c0.2-0.4,0.5-0.8,1-1.1
				c0.4-0.3,1-0.6,1.7-0.8s1.6-0.3,2.6-0.3c0.9,0,1.7,0.1,2.4,0.2c0.7,0.1,1.3,0.3,1.8,0.6c0.2,0.1,0.3,0.3,0.5,0.4
				c0.1,0.2,0.1,0.4,0,0.7c-0.1,0.2-0.2,0.3-0.5,0.4c-0.2,0-0.5,0-0.8-0.1c-0.4-0.1-0.9-0.2-1.4-0.4c-0.5-0.1-1.2-0.2-2-0.2
				s-1.4,0-1.9,0.1s-0.9,0.2-1.2,0.4c-0.3,0.2-0.5,0.4-0.6,0.6s-0.2,0.5-0.2,0.7c0,0.4,0.1,0.7,0.3,1c0.2,0.3,0.5,0.5,0.9,0.7
				s0.8,0.4,1.4,0.5c0.5,0.2,1.2,0.3,1.9,0.5c0.5,0.1,1.1,0.3,1.6,0.5c0.6,0.2,1.1,0.5,1.5,0.8c0.5,0.3,0.8,0.7,1.1,1.2
				c0.3,0.5,0.4,1,0.4,1.7c0,1.1-0.5,1.9-1.4,2.6c-0.9,0.7-2.3,1-4.2,1c-1.2,0-2.3-0.1-3.3-0.4c-0.9-0.3-1.7-0.6-2.2-1
				c-0.1-0.1-0.2-0.2-0.3-0.5c0-0.2,0-0.4,0.1-0.6c0.1-0.2,0.3-0.4,0.5-0.4s0.4,0,0.5,0.1c0.3,0.2,0.6,0.3,0.9,0.5s0.6,0.3,1,0.4
				c0.4,0.1,0.8,0.2,1.2,0.3C180.6,63.6,181.1,63.6,181.7,63.6z"/>
			<path class="st1" d="M191.1,48.2c0-0.4,0.2-0.8,0.5-1c0.3-0.3,0.7-0.4,1.2-0.4c0.4,0,0.8,0.1,1.1,0.4c0.3,0.3,0.5,0.6,0.5,1
				s-0.2,0.8-0.5,1.1s-0.7,0.4-1.1,0.4c-0.5,0-0.8-0.1-1.2-0.4C191.3,49,191.1,48.6,191.1,48.2z M191.9,52.2c0-0.3,0.1-0.5,0.3-0.6
				c0.2-0.1,0.4-0.2,0.6-0.2s0.5,0.1,0.6,0.2c0.2,0.1,0.3,0.3,0.3,0.6v11.6c0,0.3-0.1,0.5-0.3,0.6c-0.2,0.1-0.4,0.2-0.6,0.2
				c-0.3,0-0.5-0.1-0.6-0.2c-0.2-0.1-0.3-0.3-0.3-0.6V52.2z"/>
			<path class="st1" d="M210.2,55.8c-0.1-0.6-0.4-1.1-0.7-1.6c-0.3-0.4-0.8-0.8-1.4-1s-1.4-0.3-2.3-0.3c-0.8,0-1.5,0.1-2,0.3
				c-0.6,0.2-1,0.5-1.4,0.9s-0.6,0.8-0.8,1.2c-0.2,0.5-0.3,0.9-0.3,1.4v7.1c0,0.3-0.1,0.5-0.3,0.6c-0.2,0.1-0.4,0.2-0.6,0.2
				c-0.3,0-0.5-0.1-0.6-0.2c-0.2-0.1-0.2-0.3-0.2-0.6V52.3c0-0.3,0.1-0.5,0.2-0.6s0.4-0.2,0.6-0.2s0.5,0.1,0.6,0.2
				c0.2,0.1,0.3,0.3,0.3,0.6v0.8c0.5-0.6,1.1-1,1.9-1.3c0.7-0.3,1.6-0.5,2.6-0.5c2.1,0,3.7,0.6,4.8,1.7c1.1,1.1,1.6,2.7,1.6,4.8v6
				c0,0.3-0.1,0.5-0.3,0.6c-0.2,0.1-0.4,0.2-0.6,0.2c-0.3,0-0.5-0.1-0.6-0.2c-0.2-0.1-0.2-0.3-0.2-0.6v-6
				C210.4,57.1,210.4,56.4,210.2,55.8z"/>
			<path class="st1" d="M223.8,65.1c-1.2,0-2.2-0.1-3-0.4c-0.8-0.3-1.5-0.6-2.1-1.1s-1-1-1.3-1.6s-0.5-1.3-0.5-2.1
				c0-0.6-0.1-1.1-0.1-1.6s0-1,0.1-1.5c0-0.8,0.2-1.5,0.5-2.2s0.7-1.2,1.3-1.7c0.6-0.5,1.3-0.9,2.1-1.2c0.8-0.3,1.8-0.4,3-0.4
				c1,0,1.9,0.1,2.6,0.4c0.7,0.3,1.3,0.6,1.6,0.8c0.4,0.3,0.5,0.6,0.3,1c-0.1,0.2-0.2,0.3-0.4,0.4c-0.2,0.1-0.4,0-0.6-0.1
				s-0.4-0.2-0.6-0.3s-0.4-0.2-0.7-0.3c-0.3-0.1-0.6-0.2-0.9-0.3s-0.8-0.1-1.2-0.1c-1.7,0-3,0.3-3.8,1s-1.3,1.6-1.4,2.9
				c-0.1,1-0.1,2,0,3c0.1,0.6,0.2,1.1,0.4,1.6c0.2,0.5,0.5,0.9,0.9,1.2s1,0.6,1.6,0.7s1.5,0.2,2.4,0.2c0.5,0,0.9,0,1.3-0.1
				s0.7-0.2,1-0.3s0.5-0.3,0.8-0.4c0.2-0.1,0.4-0.2,0.6-0.3s0.4-0.1,0.5-0.1s0.3,0.1,0.5,0.3c0.1,0.2,0.2,0.4,0.1,0.6
				c-0.1,0.2-0.1,0.3-0.3,0.4c-0.2,0.2-0.4,0.3-0.7,0.5c-0.3,0.2-0.6,0.3-1,0.5c-0.4,0.1-0.9,0.3-1.4,0.3S224.4,65.1,223.8,65.1z"/>
			<path class="st1" d="M238.7,51.4c1,0,1.8,0.1,2.6,0.4c0.8,0.3,1.5,0.7,2,1.2c0.6,0.5,1,1.1,1.3,1.7c0.3,0.7,0.5,1.4,0.5,2.1
				c0,0.5,0,0.9-0.1,1.2s-0.2,0.5-0.3,0.7c-0.2,0.2-0.3,0.3-0.6,0.3c-0.2,0-0.5,0.1-0.8,0.1H234c0,1.6,0.4,2.7,1.2,3.5
				s2,1.1,3.7,1.1c0.9,0,1.7-0.1,2.3-0.3c0.6-0.2,1.3-0.5,2-0.8c0.2-0.2,0.5-0.2,0.7-0.1c0.2,0.1,0.4,0.2,0.5,0.4
				c0.1,0.3,0.1,0.5,0,0.7s-0.2,0.3-0.3,0.3c-0.5,0.4-1.2,0.7-2,0.9s-1.9,0.4-3.1,0.4c-1.1,0-2.1-0.1-2.9-0.4
				c-0.8-0.3-1.5-0.6-2-1.1s-1-1-1.3-1.7s-0.5-1.4-0.6-2.2c0-0.5-0.1-1.1-0.1-1.6s0-1,0.1-1.4c0.1-0.7,0.2-1.4,0.5-2
				s0.7-1.2,1.2-1.7s1.2-0.9,2-1.2C236.7,51.6,237.6,51.4,238.7,51.4z M242.8,57.5c0.3,0,0.4,0,0.5-0.1s0.2-0.3,0.2-0.5
				c0-1.2-0.4-2.1-1.2-2.8s-2-1-3.6-1c-0.7,0-1.3,0.1-1.9,0.3s-1.1,0.4-1.5,0.8s-0.7,0.8-1,1.4c-0.2,0.6-0.4,1.3-0.4,2.1h8.9V57.5z"
				/>
			<path class="st2" d="M268.3,55.9c-0.1-0.6-0.4-1.1-0.7-1.6c-0.3-0.4-0.8-0.8-1.4-1s-1.4-0.3-2.3-0.3c-0.8,0-1.5,0.1-2,0.3
				c-0.6,0.2-1,0.5-1.4,0.9s-0.6,0.8-0.8,1.2c-0.2,0.5-0.3,0.9-0.3,1.4v7c0,0.3-0.1,0.5-0.3,0.6c-0.2,0.1-0.4,0.2-0.6,0.2
				c-0.3,0-0.5-0.1-0.6-0.2c-0.2-0.1-0.2-0.3-0.2-0.6V45.5c0-0.3,0.1-0.5,0.2-0.6s0.4-0.2,0.6-0.2s0.5,0.1,0.6,0.2
				c0.2,0.1,0.3,0.3,0.3,0.6v7.7c0.5-0.6,1.1-1,1.9-1.3c0.7-0.3,1.6-0.5,2.6-0.5c2.1,0,3.7,0.6,4.8,1.7c1.1,1.1,1.6,2.7,1.6,4.8v5.9
				c0,0.3-0.1,0.5-0.3,0.6c-0.2,0.1-0.4,0.2-0.6,0.2c-0.3,0-0.5-0.1-0.6-0.2c-0.2-0.1-0.2-0.3-0.2-0.6v-5.9
				C268.5,57.2,268.5,56.5,268.3,55.9z"/>
			<path class="st2" d="M281.6,51.4c1,0,1.8,0.1,2.6,0.4c0.8,0.3,1.5,0.7,2,1.2c0.6,0.5,1,1.1,1.3,1.7c0.3,0.7,0.5,1.4,0.5,2.1
				c0,0.5,0,0.9-0.1,1.2s-0.2,0.5-0.3,0.7c-0.2,0.2-0.3,0.3-0.6,0.3c-0.2,0-0.5,0.1-0.8,0.1h-9.3c0,1.6,0.4,2.7,1.2,3.5
				s2,1.1,3.7,1.1c0.9,0,1.7-0.1,2.3-0.3c0.6-0.2,1.3-0.5,2-0.8c0.2-0.2,0.5-0.2,0.7-0.1c0.2,0.1,0.4,0.2,0.5,0.4
				c0.1,0.3,0.1,0.5,0,0.7s-0.2,0.3-0.3,0.3c-0.5,0.4-1.2,0.7-2,0.9s-1.9,0.4-3.1,0.4c-1.1,0-2.1-0.1-2.9-0.4
				c-0.8-0.3-1.5-0.6-2-1.1s-1-1-1.3-1.7s-0.5-1.4-0.6-2.2c0-0.5-0.1-1.1-0.1-1.6s0-1,0.1-1.4c0.1-0.7,0.2-1.4,0.5-2
				s0.7-1.2,1.2-1.7s1.2-0.9,2-1.2C279.6,51.6,280.5,51.4,281.6,51.4z M285.7,57.5c0.3,0,0.4,0,0.5-0.1s0.2-0.3,0.2-0.5
				c0-1.2-0.4-2.1-1.2-2.8s-2-1-3.6-1c-0.7,0-1.3,0.1-1.9,0.3s-1.1,0.4-1.5,0.8s-0.7,0.8-1,1.4c-0.2,0.6-0.4,1.3-0.4,2.1h8.9V57.5z"
				/>
			<path class="st2" d="M293,45.5c0-0.3,0.1-0.5,0.2-0.6c0.2-0.1,0.4-0.2,0.6-0.2s0.5,0.1,0.6,0.2s0.3,0.3,0.3,0.6v18.4
				c0,0.3-0.1,0.5-0.3,0.6c-0.2,0.1-0.4,0.2-0.6,0.2c-0.3,0-0.5-0.1-0.6-0.2c-0.2-0.1-0.2-0.3-0.2-0.6V45.5z"/>
			<path class="st2" d="M300.9,45.5c0-0.3,0.1-0.5,0.2-0.6c0.2-0.1,0.4-0.2,0.6-0.2s0.5,0.1,0.6,0.2s0.3,0.3,0.3,0.6v18.4
				c0,0.3-0.1,0.5-0.3,0.6c-0.2,0.1-0.4,0.2-0.6,0.2c-0.3,0-0.5-0.1-0.6-0.2c-0.2-0.1-0.2-0.3-0.2-0.6V45.5z"/>
			<path class="st2" d="M314.3,51.4c1.9,0,3.4,0.5,4.5,1.5s1.7,2.3,1.9,4c0,0.4,0.1,0.9,0.1,1.4s0,1-0.1,1.4c-0.1,1.7-0.7,3-1.7,4
				s-2.6,1.5-4.7,1.5c-1.1,0-2-0.1-2.7-0.4c-0.8-0.3-1.4-0.6-1.9-1.1s-0.9-1-1.2-1.7c-0.3-0.7-0.5-1.4-0.5-2.2
				c0-0.4-0.1-0.9-0.1-1.4s0-1,0.1-1.4c0.1-1.7,0.7-3,1.8-4S312.3,51.4,314.3,51.4z M318.9,56.3c-0.1-1-0.5-1.8-1.3-2.4
				c-0.7-0.6-1.9-0.9-3.3-0.9c-0.7,0-1.4,0.1-1.9,0.3s-1,0.4-1.4,0.7s-0.7,0.6-0.9,1c-0.2,0.4-0.4,0.8-0.4,1.3
				c-0.1,0.6-0.1,1.3-0.1,2s0,1.3,0.1,1.9c0.1,0.5,0.2,1,0.4,1.4c0.2,0.4,0.5,0.8,0.8,1.1s0.8,0.5,1.4,0.7s1.2,0.3,2,0.3
				s1.4-0.1,2-0.3s1-0.4,1.4-0.7s0.6-0.7,0.8-1.1c0.2-0.4,0.3-0.9,0.4-1.4c0.1-0.6,0.1-1.3,0.1-2S319,56.9,318.9,56.3z"/>
			<path class="st2" d="M339.9,63.5c0.3,0,0.4-0.1,0.5-0.3l3.7-11.1c0.1-0.3,0.3-0.5,0.5-0.6s0.4-0.1,0.7,0c0.2,0,0.3,0.1,0.5,0.3
				s0.2,0.5,0.1,0.9l-3.7,10.8c-0.1,0.2-0.1,0.4-0.2,0.5c-0.1,0.2-0.2,0.3-0.3,0.5c-0.2,0.2-0.4,0.3-0.6,0.4c-0.3,0.1-0.6,0.1-1,0.1
				s-0.7,0-1-0.1s-0.5-0.2-0.6-0.4c-0.2-0.1-0.3-0.3-0.3-0.5c-0.1-0.2-0.1-0.4-0.2-0.5l-2.9-8.7l-2.9,8.7c-0.1,0.2-0.1,0.4-0.2,0.5
				c-0.1,0.2-0.2,0.3-0.3,0.5c-0.2,0.1-0.4,0.3-0.6,0.4c-0.3,0.1-0.6,0.1-1,0.1s-0.7,0-1-0.1s-0.5-0.2-0.6-0.4
				c-0.2-0.2-0.3-0.3-0.3-0.5c-0.1-0.2-0.1-0.4-0.2-0.5l-3.7-10.8c-0.1-0.4-0.1-0.7,0.1-0.9s0.3-0.3,0.5-0.3c0.3-0.1,0.5-0.1,0.7,0
				s0.4,0.3,0.5,0.6l3.7,11.1c0.1,0.2,0.2,0.3,0.5,0.3c0.1,0,0.2,0,0.3-0.1c0.1-0.1,0.1-0.1,0.1-0.2l3.7-11.1
				c0.1-0.2,0.2-0.4,0.4-0.5s0.3-0.1,0.6-0.1c0.2,0,0.4,0,0.6,0.1s0.3,0.3,0.4,0.5l3.7,11.1c0,0.1,0.1,0.2,0.1,0.2
				S339.8,63.5,339.9,63.5z"/>
			<path class="st2" d="M355.8,51.4c1.9,0,3.4,0.5,4.5,1.5s1.7,2.3,1.9,4c0,0.4,0.1,0.9,0.1,1.4s0,1-0.1,1.4c-0.1,1.7-0.7,3-1.7,4
				s-2.6,1.5-4.7,1.5c-1.1,0-2-0.1-2.7-0.4c-0.8-0.3-1.4-0.6-1.9-1.1s-0.9-1-1.2-1.7s-0.5-1.4-0.5-2.2c0-0.4-0.1-0.9-0.1-1.4
				s0-1,0.1-1.4c0.1-1.7,0.7-3,1.8-4S353.7,51.4,355.8,51.4z M360.4,56.3c-0.1-1-0.5-1.8-1.3-2.4c-0.7-0.6-1.9-0.9-3.3-0.9
				c-0.7,0-1.4,0.1-1.9,0.3s-1,0.4-1.4,0.7s-0.7,0.6-0.9,1s-0.4,0.8-0.4,1.3c-0.1,0.6-0.1,1.3-0.1,2s0,1.3,0.1,1.9
				c0.1,0.5,0.2,1,0.4,1.4s0.5,0.8,0.8,1.1s0.8,0.5,1.4,0.7s1.2,0.3,2,0.3s1.4-0.1,2-0.3s1-0.4,1.4-0.7s0.6-0.7,0.8-1.1
				c0.2-0.4,0.3-0.9,0.4-1.4c0.1-0.6,0.1-1.3,0.1-2S360.4,56.9,360.4,56.3z"/>
			<path class="st2" d="M371.4,53.5c-0.6,0.3-1,0.7-1.4,1.2s-0.6,1-0.8,1.5c-0.2,0.6-0.2,1.1-0.2,1.6v6.1c0,0.3-0.1,0.5-0.3,0.6
				s-0.4,0.2-0.6,0.2c-0.3,0-0.5-0.1-0.6-0.2c-0.2-0.1-0.2-0.3-0.2-0.6V52.4c0-0.3,0.1-0.5,0.2-0.6s0.4-0.2,0.6-0.2
				c0.2,0,0.5,0.1,0.6,0.2c0.2,0.1,0.3,0.3,0.3,0.6v1c0.5-0.6,1-1.1,1.7-1.4c0.7-0.3,1.5-0.5,2.5-0.5h3c0.2,0,0.4,0.1,0.5,0.2
				c0.2,0.1,0.2,0.3,0.2,0.6s-0.1,0.4-0.2,0.6c-0.2,0.1-0.3,0.2-0.5,0.2h-2.8C372.6,53,371.9,53.1,371.4,53.5z"/>
			<path class="st2" d="M380.7,45.5c0-0.3,0.1-0.5,0.2-0.6c0.2-0.1,0.4-0.2,0.6-0.2c0.2,0,0.5,0.1,0.6,0.2s0.3,0.3,0.3,0.6v18.4
				c0,0.3-0.1,0.5-0.3,0.6s-0.4,0.2-0.6,0.2c-0.3,0-0.5-0.1-0.6-0.2c-0.2-0.1-0.2-0.3-0.2-0.6V45.5z"/>
			<path class="st2" d="M394,51.4c1,0,1.9,0.2,2.6,0.5c0.8,0.3,1.4,0.7,2,1.3v-7.6c0-0.3,0.1-0.5,0.2-0.6s0.4-0.2,0.6-0.2
				c0.2,0,0.5,0.1,0.6,0.2c0.2,0.1,0.3,0.3,0.3,0.6v18.3c0,0.3-0.1,0.5-0.3,0.6s-0.4,0.2-0.6,0.2c-0.3,0-0.5-0.1-0.6-0.2
				c-0.2-0.1-0.2-0.3-0.2-0.6v-0.2c-0.5,0.5-1.2,0.8-1.9,1.1s-1.6,0.4-2.7,0.4c-1.1,0-2-0.1-2.7-0.4c-0.8-0.3-1.4-0.6-1.9-1.1
				s-0.9-1-1.1-1.7c-0.3-0.7-0.4-1.4-0.5-2.2c0-0.4-0.1-0.9-0.1-1.4s0-1,0.1-1.4c0.1-1.7,0.7-3,1.7-4S392,51.4,394,51.4z
				 M398.5,56.3c-0.1-0.4-0.2-0.8-0.4-1.2s-0.5-0.8-0.8-1.1s-0.8-0.6-1.4-0.7c-0.5-0.2-1.2-0.3-1.9-0.3s-1.4,0.1-1.9,0.3
				s-1,0.4-1.3,0.7s-0.6,0.6-0.8,1s-0.3,0.8-0.4,1.3c-0.1,0.6-0.1,1.3-0.1,2s0,1.3,0.1,1.9c0.1,0.5,0.2,1,0.3,1.4
				c0.2,0.4,0.4,0.8,0.8,1.1s0.8,0.5,1.3,0.7s1.2,0.3,2,0.3s1.4-0.1,1.9-0.3s1-0.5,1.3-0.8s0.6-0.7,0.8-1.1c0.2-0.4,0.3-0.8,0.4-1.3
				c0-0.1,0-0.2,0.1-0.5c0-0.3,0-0.6,0-1s0-0.8,0-1.2C398.6,57.1,398.5,56.7,398.5,56.3z"/>
		</g>
	</g>
</g>
</svg>
