<?xml version="1.0" encoding="utf-8"?>
<!-- Generator: Adobe Illustrator 23.1.0, SVG Export Plug-In . SVG Version: 6.00 Build 0)  -->
<svg version="1.1" id="Layer_1" xmlns="http://www.w3.org/2000/svg" xmlns:xlink="http://www.w3.org/1999/xlink" x="0px" y="0px"
	 viewBox="0 0 283.46 283.46" style="enable-background:new 0 0 283.46 283.46;" xml:space="preserve">
<style type="text/css">
	.st0{fill:#E60012;}
</style>
<g>
	<g>
		<path d="M-1.2,0c-0.17,35.97-0.34,71.93-0.51,107.9c-0.17,35.78-0.34,71.57-0.51,107.35c-0.09,20.19-0.19,40.37-0.28,60.56
			c-0.02,3.22,4.98,3.22,5,0c0.17-35.97,0.34-71.93,0.51-107.9c0.17-35.78,0.34-71.57,0.51-107.35C3.61,40.37,3.7,20.19,3.8,0
			C3.81-3.22-1.19-3.22-1.2,0L-1.2,0z"/>
	</g>
</g>
<g>
	<g>
		<path d="M0.33,3.89c34.89,0,69.78,0,104.66,0c34.71,0,69.42,0,104.13,0c19.58,0,39.16,0,58.74,0c3.22,0,3.22-5,0-5
			c-34.89,0-69.78,0-104.66,0c-34.71,0-69.42,0-104.13,0c-19.58,0-39.16,0-58.74,0C-2.89-1.11-2.9,3.89,0.33,3.89L0.33,3.89z"/>
	</g>
</g>
<g>
	<g>
		<path d="M274.36,1.35c2.51,36.2,4.31,72.45,5.39,108.72c1.08,36.26,1.44,72.54,1.08,108.82c-0.2,20.36-0.63,40.72-1.28,61.07
			c-0.1,3.22,4.9,3.21,5,0c1.16-36.26,1.61-72.54,1.34-108.82c-0.27-36.28-1.26-72.55-2.97-108.79c-0.96-20.35-2.15-40.68-3.56-61
			C279.13-1.85,274.13-1.87,274.36,1.35L274.36,1.35z"/>
	</g>
</g>
<g>
	<g>
		<path d="M3.54,281.87c35.43,1.63,70.88,2.78,106.34,3.43c35.47,0.66,70.94,0.83,106.41,0.51c19.91-0.18,39.81-0.51,59.71-0.99
			c3.21-0.08,3.22-5.08,0-5c-35.46,0.86-70.93,1.24-106.41,1.13c-35.47-0.11-70.94-0.71-106.39-1.79
			c-19.89-0.61-39.78-1.37-59.66-2.29C0.32,276.72,0.33,281.72,3.54,281.87L3.54,281.87z"/>
	</g>
</g>
<g>
	<g>
		<path d="M244.01,159.15c-2.63-1.79-5.72-0.14-7.49,2.04c-1.85,2.28-3.09,5.13-4.15,7.85c-1.08,2.78-1.81,5.68-2.22,8.63
			c-0.37,2.63-0.44,5.48,0.9,7.87c1.5,2.67,4.34,3.54,7.23,3.63c3.06,0.09,6.23,0.22,9.29-0.01c3.03-0.22,5.5-1.59,6.87-4.38
			c1.29-2.63,2.19-5.67,2.68-8.55c0.57-3.4,0.44-6.85-1.18-9.96c-1.33-2.55-3.74-4.75-6.65-5.21c-1.33-0.21-2.69,0.34-3.08,1.75
			c-0.33,1.19,0.4,2.86,1.75,3.08c3.52,0.56,4.63,4.5,4.47,7.61c-0.12,2.33-0.86,4.61-1.59,6.81c-0.45,1.35-0.89,3.23-2.41,3.7
			c-0.85,0.27-1.8,0.19-2.68,0.19c-1.32,0-2.65-0.01-3.97-0.01c-1.17,0-2.34,0.02-3.5-0.02c-0.78-0.02-1.78-0.02-2.43-0.54
			c-1.05-0.85-0.99-2.64-0.93-3.85c0.1-1.99,0.57-3.99,1.1-5.9c0.66-2.38,1.56-4.66,2.71-6.84c0.49-0.93,0.99-1.94,1.68-2.74
			c0.24-0.28,0.7-0.52,0.9-0.8c1.93-2.77,0.14-0.04,0.32-0.14c-0.22,0.12-0.79-0.32-0.15,0.11
			C244.16,165.28,246.66,160.95,244.01,159.15L244.01,159.15z"/>
	</g>
</g>
<g>
	<g>
		<path d="M245.27,175.58c3.22,0,3.22-5,0-5C242.05,170.58,242.05,175.58,245.27,175.58L245.27,175.58z"/>
	</g>
</g>
<g>
	<g>
		<path class="st0" d="M118.76,36.14c-4.82,0.79-9.14,2.9-12.15,5.84c-3.15,3.08-4.68,6.98-4.58,10.85c0.03,1.25,1.44,2.46,3.18,2.4
			c1.69-0.06,3.21-1.05,3.18-2.4c-0.01-0.4-0.01-0.8,0.02-1.2c0.01-0.2,0.03-0.4,0.06-0.6c0.01-0.08,0.09-0.61,0.01-0.2
			c0.14-0.79,0.38-1.57,0.69-2.33c0.14-0.34,0.3-0.68,0.47-1.02c0.11-0.23-0.12,0.17,0.11-0.2c0.11-0.18,0.22-0.36,0.34-0.54
			c0.42-0.62,1.14-1.5,1.52-1.87c-0.16,0.16,0.34-0.31,0.33-0.3c0.13-0.12,0.26-0.23,0.4-0.34c0.34-0.28,0.69-0.55,1.06-0.8
			c0.18-0.13,0.37-0.25,0.56-0.38c0.14-0.09,0.53-0.32,0.18-0.12c0.4-0.23,0.82-0.44,1.24-0.64c0.42-0.2,0.86-0.39,1.31-0.56
			c0.18-0.07,0.36-0.14,0.54-0.2c0.03-0.01,0.91-0.29,0.34-0.12c0.94-0.28,1.89-0.49,2.88-0.65c1.63-0.27,2.73-1.76,2.22-2.95
			C122.11,36.52,120.5,35.85,118.76,36.14L118.76,36.14z"/>
	</g>
	<g>
		<path class="st0" d="M139.68,41.13c0.51-0.23-0.28,0.02,0.06-0.05c0.2-0.04,0.41-0.08,0.62-0.12c-0.26,0.05-0.46,0.02-0.08,0.03
			c0.02,0,0.81,0.05,0.35,0c-0.46-0.05,0.33,0.07,0.35,0.07c0.17,0.04,0.34,0.08,0.51,0.12c-0.6-0.14-0.05-0.01,0.09,0.05
			c0.2,0.08,0.39,0.18,0.58,0.26c0.48,0.22-0.11-0.13,0.1,0.07c0.11,0.1,0.26,0.19,0.38,0.28c0.13,0.1,0.38,0.35,0.14,0.1
			c0.15,0.15,0.28,0.31,0.41,0.48c0.23,0.29,0.44,0.6,0.63,0.91c-0.18-0.31,0.01,0.04,0.07,0.18c0.09,0.18,0.17,0.36,0.24,0.55
			c0.61,1.48,0.98,3.02,1.41,4.54c0.51,1.78,1.03,3.57,1.54,5.35c0.35,1.23,2.34,2.06,3.91,1.67c1.71-0.42,2.6-1.63,2.22-2.95
			c-0.59-2.06-1.18-4.12-1.78-6.17c-0.55-1.91-1.06-3.8-2.13-5.59c-2.14-3.57-7.91-6.09-12.83-3.93c-1.44,0.63-2.07,2.19-1.14,3.28
			C136.27,41.36,138.15,41.8,139.68,41.13L139.68,41.13z"/>
	</g>
	<g>
		<path d="M71.2,53.57c9.22,0.8,18.97,0.7,28.15-0.16c1.7-0.16,3.18-0.99,3.18-2.4c0-1.18-1.47-2.56-3.18-2.4
			c-9.18,0.86-18.96,0.91-28.15,0.16c-1.7-0.14-3.18,1.2-3.18,2.4C68.02,52.58,69.48,53.44,71.2,53.57L71.2,53.57z"/>
	</g>
	<g>
		<path d="M65.8,52.83c0,18.46,0,36.93,0,55.39c0,3.09,6.35,3.09,6.35,0c0-18.46,0-36.93,0-55.39C72.15,49.74,65.8,49.74,65.8,52.83
			L65.8,52.83z"/>
	</g>
	<g>
		<path d="M68.24,112.86c37,0,74,0,111,0c10.44,0,20.87,0,31.31,0c4.09,0,4.09-4.8,0-4.8c-37,0-74,0-111,0c-10.44,0-20.87,0-31.31,0
			C64.15,108.06,64.14,112.86,68.24,112.86L68.24,112.86z"/>
	</g>
	<g>
		<path d="M214.31,111.29c0.29-9.91-0.38-20.13-1.37-29.94c-1.01-10.02-1.92-20.15-2.89-30.22c-0.12-1.29-1.37-2.4-3.18-2.4
			c-1.62,0-3.3,1.1-3.18,2.4c0.96,10.07,1.88,20.21,2.89,30.22c0.99,9.81,1.64,20.04,1.37,29.94
			C207.88,114.38,214.23,114.38,214.31,111.29L214.31,111.29z"/>
	</g>
	<g>
		<path d="M156.44,52.71c15.56-0.03,31.13-0.05,46.69-0.08c4.09-0.01,4.09-4.8,0-4.8c-15.56,0.03-31.13,0.05-46.69,0.08
			C152.35,47.93,152.35,52.72,156.44,52.71L156.44,52.71z"/>
	</g>
	<g>
		<g>
			<g>
				<path d="M86.37,63.36c0.11-0.08,0.24-0.12,0.07-0.07c0.08-0.02,0.17-0.01,0.34,0.03c0.32,0.07,0.6,0.24,0.81,0.48
					c0.72,0.86,0.49,2.13,0.38,3.08c-0.29,2.73-0.62,5.45-0.94,8.17c-0.62,5.43-1.24,10.86-1.87,16.29
					c-0.35,3.06-0.7,6.12-1.05,9.19c-0.09,0.75,0.91,1.4,1.85,1.4c1.07,0,1.77-0.64,1.85-1.4c0.7-6.08,1.39-12.16,2.09-18.24
					c0.35-3.02,0.69-6.03,1.04-9.05c0.18-1.53,0.35-3.06,0.53-4.59c0.16-1.38,0.42-2.78,0.19-4.16c-0.24-1.43-1.08-2.81-2.82-3.53
					c-1.68-0.69-3.71-0.62-5.1,0.43C82.06,62.66,84.67,64.64,86.37,63.36L86.37,63.36z"/>
			</g>
		</g>
		<g>
			<g>
				<path d="M89.13,80.02c5.59-2.82,10.6-6.25,14.86-10.18c0.63-0.58,0.76-1.41,0-1.98c-0.65-0.49-1.98-0.59-2.62,0
					c-4.06,3.74-8.78,7.05-14.1,9.74c-0.83,0.42-1.19,1.23-0.66,1.91C87.08,80.14,88.3,80.44,89.13,80.02L89.13,80.02z"/>
			</g>
		</g>
		<g>
			<g>
				<path d="M89.75,79.19c1.86,3.68,3.73,7.47,6.9,10.64c2.88,2.87,6.86,5.34,11.68,5.94c0.99,0.12,1.99-0.19,2.28-0.98
					c0.24-0.67-0.3-1.6-1.29-1.72c-9.22-1.14-13.09-8.86-16-14.62c-0.36-0.71-1.25-1.19-2.28-0.98
					C90.15,77.66,89.4,78.48,89.75,79.19L89.75,79.19z"/>
			</g>
		</g>
		<g>
			<g>
				<path d="M148.68,64.45c-3.87-2.03-9.03-1.94-13.11-0.31c-4.4,1.77-6.87,5.23-7.2,8.91c-0.33,3.73,1.57,7.57,5.23,10.1
					c1.97,1.36,4.43,2.45,5.76,4.26c1.08,1.47,0.86,3.03-0.85,4.13c-2.01,1.29-4.97,1.7-7.49,2.02c-3.48,0.45-7.05,0.45-10.55,0.13
					c-1-0.09-1.85,0.71-1.85,1.4c0,0.83,0.86,1.31,1.85,1.4c3.09,0.29,6.21,0.3,9.3,0.02c2.8-0.26,5.61-0.65,8.2-1.49
					c2.11-0.69,4.14-1.82,5.11-3.44c1.2-2.01,0.67-4.26-0.91-6.06c-1.56-1.78-3.89-2.92-5.94-4.34c-1.66-1.15-2.86-2.55-3.53-4.17
					c-1.24-3-0.8-6.66,2.2-9.01c3.13-2.45,8.19-3.08,11.91-1.13c0.82,0.43,2.06,0.11,2.54-0.5
					C149.88,65.67,149.5,64.89,148.68,64.45L148.68,64.45z"/>
			</g>
		</g>
		<g>
			<g>
				<path d="M159.8,69.54c9.61,1.63,19.58,2.62,29.29,3.04c2.37,0.1,2.37-2.7,0-2.8c-9.38-0.4-19.04-1.4-28.3-2.94
					C158.47,66.46,157.47,69.16,159.8,69.54L159.8,69.54z"/>
			</g>
		</g>
		<g>
			<g>
				<path d="M179.02,71.6c-0.74,8.34-0.97,16.7-0.69,25.05c0.06,1.8,3.77,1.8,3.71,0c-0.29-8.35-0.06-16.71,0.69-25.05
					c0.07-0.75-0.9-1.4-1.85-1.4C179.81,70.2,179.08,70.84,179.02,71.6L179.02,71.6z"/>
			</g>
		</g>
	</g>
</g>
</svg>
